<?xml version="1.0" standalone="no"?>
<!DOCTYPE svg PUBLIC "-//W3C//DTD SVG 1.1//EN" "http://www.w3.org/Graphics/SVG/1.1/DTD/svg11.dtd" >
<svg>
<metadata>
Created by FontForge 20090914 at Sat Jul  9 08:24:41 2016
 By www-data
Font data copyright Google 2014
</metadata>
<defs>
<font id="Roboto-Black" horiz-adv-x="1186" >
  <font-face 
    font-family="Roboto"
    font-weight="400"
    font-stretch="normal"
    units-per-em="2048"
    panose-1="0 0 0 0 0 0 0 0 0 0"
    ascent="1536"
    descent="-512"
    x-height="1082"
    cap-height="1456"
    bbox="-1476 -497.999 2481.99 1928"
    underline-thickness="100"
    underline-position="-100"
    unicode-range="U+0002-U+04FF"
  />
<missing-glyph horiz-adv-x="510" 
 />
    <glyph glyph-name="fi" unicode="fi" horiz-adv-x="1302" 
d="M173 0l0.000976562 847.998h-157v234h157v28c0 72.667 11.5 136.834 34.5 192.501s56.167 102.334 99.5 140.001s96.666 66.167 159.999 85.5s135.666 29 216.999 29c60.667 0 119.334 -5.33301 176.001 -16s115.334 -24.667 176.001 -42l-46 -266l-60 16
c-20 5.33301 -41.333 10 -64 14s-47.334 7.33301 -74.001 10s-56 4 -88 4c-61.333 0 -108.833 -14.333 -142.5 -43s-50.5 -70 -50.5 -124v-28h212v-234h-212v-848h-338zM1191 -0.00195312h-339v1082h339v-1082z" />
    <glyph glyph-name=".notdef" horiz-adv-x="510" 
 />
    <glyph glyph-name="uni0009" horiz-adv-x="0" 
 />
    <glyph glyph-name="uni0009" horiz-adv-x="0" 
 />
    <glyph glyph-name="uni0002" horiz-adv-x="0" 
 />
    <glyph glyph-name="nonmarkingreturn" unicode="&#xd;" horiz-adv-x="510" 
 />
    <glyph glyph-name="space" unicode=" " horiz-adv-x="510" 
 />
    <glyph glyph-name="exclam" unicode="!" horiz-adv-x="565" 
d="M429 461h-273l-43 995h359zM103 151c0 24 4.5 46.333 13.5 67s21.833 38.5 38.5 53.5s36.334 26.833 59.001 35.5s48 13 76 13s53.333 -4.33301 76 -13s42.334 -20.5 59.001 -35.5s29.5 -32.833 38.5 -53.5s13.5 -43 13.5 -67s-4.5 -46.333 -13.5 -67
s-21.833 -38.5 -38.5 -53.5s-36.334 -26.833 -59.001 -35.5s-48 -13 -76 -13s-53.333 4.33301 -76 13s-42.334 20.5 -59.001 35.5s-29.5 32.833 -38.5 53.5s-13.5 43 -13.5 67z" />
    <glyph glyph-name="quotedbl" unicode="&#x22;" horiz-adv-x="649" 
d="M255 1398l-43 -429h-187v568h230v-139zM606 1398l-43 -429h-185v568h228v-139z" />
    <glyph glyph-name="numbersign" unicode="#" horiz-adv-x="1190" 
d="M619 410h-161l-67 -410h-199l67 410h-222v183h252l44 264h-221v183h251l69 416h198l-68 -416h161l69 416h199l-69 -416h231v-183h-261l-44 -264h229v-183h-259l-67 -410h-199zM488 593h161l44 264h-161z" />
    <glyph glyph-name="dollar" unicode="$" 
d="M760 386c0 27.333 -3.16113 51.0029 -9.49414 71.0029s-16.333 37.833 -30 53.5s-31.5 30.167 -53.5 43.5s-48.667 26.666 -80 39.999c-66 26.667 -126.667 53.667 -182 81s-103 58.666 -143 93.999s-71 77 -93 125s-33 106 -33 174c0 56.667 10 108.667 30 156
s48.333 88.5 85 123.5s80.667 63.333 132 85s108.333 35.5 171 41.5v211h159v-215c58.667 -8.66699 112.167 -25.334 160.5 -50.001s89.666 -56.834 123.999 -96.501s60.833 -86.167 79.5 -139.5s28 -112.666 28 -177.999h-338c0 38 -3.83301 70.667 -11.5 98
s-18.5 49.833 -32.5 67.5s-30.333 30.5 -49 38.5s-39 12 -61 12c-24.667 0 -45.834 -4.16699 -63.501 -12.5s-32 -19.5 -43 -33.5s-19.167 -30.5 -24.5 -49.5s-8 -39.167 -8 -60.5c0 -22.667 2.66699 -43 8 -61s14.666 -34.667 27.999 -50s31.166 -30.166 53.499 -44.499
s50.166 -28.833 83.499 -43.5c64.667 -27.333 124.5 -55.166 179.5 -83.499s102.5 -60.5 142.5 -96.5s71.333 -78 94 -126s34 -105.667 34 -173c0 -59.333 -9.66699 -112.5 -29 -159.5s-46.666 -87.667 -81.999 -122s-77.833 -62 -127.5 -83s-104.834 -34.5 -165.501 -40.5
v-201h-159v202c-57.333 6 -113.166 19 -167.499 39s-102.5 49.333 -144.5 88s-75.667 87.167 -101 145.5s-38 128.5 -38 210.5h337c0 -44.667 5.33301 -81.834 16 -111.501s25 -53.5 43 -71.5s38.667 -30.833 62 -38.5s47.666 -11.5 72.999 -11.5s47.166 4 65.499 12
s33.5 18.833 45.5 32.5s20.833 29.667 26.5 48s8.5 38.166 8.5 59.499z" />
    <glyph glyph-name="percent" unicode="%" horiz-adv-x="1520" 
d="M90 1176c0 41.333 6.83105 80.166 20.498 116.499s34 68.166 61 95.499s60.833 49 101.5 65s87.667 24 141 24c54.667 0 102.334 -8 143.001 -24s74.334 -37.667 101.001 -65s46.667 -59.166 60 -95.499s20 -75.166 20 -116.499v-77
c0 -40.667 -6.66699 -79.167 -20 -115.5s-33.333 -68 -60 -95s-60.167 -48.5 -100.5 -64.5s-87.5 -24 -141.5 -24s-101.333 8 -142 24s-74.667 37.5 -102 64.5s-47.833 58.667 -61.5 95s-20.5 74.833 -20.5 115.5v77zM306.998 1099c0 -15.333 2.16895 -30 6.50195 -44
s11 -26.5 20 -37.5s20.333 -19.667 34 -26s29.834 -9.5 48.501 -9.5c18 0 33.667 3.16699 47 9.5s24.166 15 32.499 26s14.666 23.5 18.999 37.5s6.5 28.667 6.5 44v77c0 16 -2.16699 31.167 -6.5 45.5s-10.833 27 -19.5 38s-19.834 19.667 -33.501 26s-29.5 9.5 -47.5 9.5
s-33.667 -3.16699 -47 -9.5s-24.5 -15 -33.5 -26s-15.667 -23.667 -20 -38s-6.5 -29.5 -6.5 -45.5v-77zM782 357c0 40.667 6.83301 79.334 20.5 116.001s34 68.5 61 95.5s60.833 48.5 101.5 64.5s87.667 24 141 24c54.667 0 102.5 -8 143.5 -24s74.833 -37.5 101.5 -64.5
s46.667 -58.833 60 -95.5s20 -75.334 20 -116.001v-77c0 -41.333 -6.66699 -80.166 -20 -116.499s-33.333 -68 -60 -95s-60.167 -48.5 -100.5 -64.5s-87.833 -24 -142.5 -24c-54 0 -101.333 8 -142 24s-74.667 37.5 -102 64.5s-47.833 58.667 -61.5 95
s-20.5 75.166 -20.5 116.499v77zM998 280c0 -15.333 2.83398 -30.166 8.50098 -44.499s13.5 -27 23.5 -38s21.667 -19.667 35 -26s27.666 -9.5 42.999 -9.5c22.667 0 41 3.16699 55 9.5s24.833 15 32.5 26s12.667 23.667 15 38s3.5 29.166 3.5 44.499v77
c0 15.333 -2.16699 30.166 -6.5 44.499s-11 27 -20 38s-20.333 19.667 -34 26s-29.5 9.5 -47.5 9.5s-33.833 -3.16699 -47.5 -9.5s-25 -15 -34 -26s-15.667 -23.667 -20 -38s-6.5 -29.166 -6.5 -44.499v-77zM480.001 109l-157 79l711 1138l157 -79z" />
    <glyph glyph-name="ampersand" unicode="&#x26;" horiz-adv-x="1380" 
d="M311 767c-39.333 56 -70.168 109.338 -92.501 160.005s-33.5 103 -33.5 157c0 57.333 9.66699 110.166 29 158.499s47 89.833 83 124.5s79.333 61.667 130 81s107.334 29 170.001 29c58 0 110.333 -9.33301 157 -28s86.667 -44 120 -76s59 -69.167 77 -111.5
s27 -87.166 27 -134.499c0 -33.333 -4.83301 -65.166 -14.5 -95.499s-23.167 -59 -40.5 -86s-37.833 -52.167 -61.5 -75.5s-49.5 -45 -77.5 -65l-87 -61l224 -257c17.333 34.667 30.833 72.167 40.5 112.5s14.5 83.166 14.5 128.499h283
c0 -91.333 -10.333 -176.833 -31 -256.5s-55.667 -151.834 -105 -216.501l222 -255h-376l-68 77c-56 -33.333 -113.167 -58 -171.5 -74s-124.166 -24 -197.499 -24s-139.5 10.167 -198.5 30.5s-109 48.666 -150 84.999s-72.5 79.833 -94.5 130.5s-33 106 -33 166
c0 42 6.16699 80.167 18.5 114.5s29.666 66.166 51.999 95.499s48.833 57.166 79.5 83.499s64.667 53.166 102 80.499zM553.998 239.005c58.667 0 114.668 13.667 168.001 41l-262 298l-9 -6c-20.667 -25.333 -35.334 -50.5 -44.001 -75.5s-13 -52.5 -13 -82.5
c0 -26 4.33301 -49.667 13 -71s20.334 -39.833 35.001 -55.5s31.667 -27.667 51 -36s39.666 -12.5 60.999 -12.5zM475.999 1088c0 -28 6.83398 -55.6641 20.501 -82.9971s32.167 -56.333 55.5 -87l64 40c20.667 13.333 37 26.166 49 38.499s21.167 24.5 27.5 36.5
s10.333 23.833 12 35.5s2.5 23.167 2.5 34.5c0 14 -2.5 27.667 -7.5 41s-12.333 25.5 -22 36.5s-21.334 19.833 -35.001 26.5s-29.167 10 -46.5 10c-20 0 -37.5 -3.33301 -52.5 -10s-27.5 -15.834 -37.5 -27.501s-17.5 -25.334 -22.5 -41.001s-7.5 -32.5 -7.5 -50.5z" />
    <glyph glyph-name="quotesingle" unicode="'" horiz-adv-x="316" 
d="M283 1374l-33 -413h-207v575h240v-162z" />
    <glyph glyph-name="parenleft" unicode="(" horiz-adv-x="723" 
d="M120 592c0 138 14.498 263.834 43.498 377.501s67 213.5 114 299.5s100.333 157.333 160 214s120.167 97.667 181.5 123l64 -166c-37.333 -27.333 -73.666 -64.333 -108.999 -111s-66.666 -104.5 -93.999 -173.5s-49.333 -149.833 -66 -242.5s-25 -199 -25 -319v-32
c0 -120 8.33301 -226.333 25 -319s38.667 -173.5 66 -242.5s58.666 -126.833 93.999 -173.5s71.666 -83.667 108.999 -111l-64 -166c-41.333 16.667 -82.166 40.5 -122.499 71.5s-79 68.667 -116 113s-71.333 95.166 -103 152.499s-59.167 120.833 -82.5 190.5
s-41.666 145.167 -54.999 226.5s-20 168 -20 260v28z" />
    <glyph glyph-name="parenright" unicode=")" horiz-adv-x="721" 
d="M626 564c0 -131.333 -15.168 -253.33 -45.501 -365.997s-70 -212.834 -119 -300.501s-104.667 -161.334 -167 -221.001s-125.833 -101.834 -190.5 -126.501l-64 166c36.667 27.333 72.667 64.333 108 111s66.666 104.5 93.999 173.5s49.5 149.833 66.5 242.5
s25.5 199 25.5 319v32c0 120 -8.33301 226.333 -25 319s-38.667 173.5 -66 242.5s-58.666 126.833 -93.999 173.5s-71.666 83.667 -108.999 111l64 166c64.667 -25.333 128.167 -67.666 190.5 -126.999s118 -132.833 167 -220.5s88.667 -187.834 119 -300.501
s45.5 -234.667 45.5 -366v-28z" />
    <glyph glyph-name="asterisk" unicode="*" horiz-adv-x="952" 
d="M352 956l-326 90l65 189l319 -131l-25 352h214l-26 -359l310 128l65 -191l-330 -90l219 -265l-173 -118l-183 294l-184 -284l-173 113z" />
    <glyph glyph-name="plus" unicode="+" horiz-adv-x="1094" 
d="M702 826h341v-289h-341v-391h-315v391h-342v289h342v380h315v-380z" />
    <glyph glyph-name="comma" unicode="," horiz-adv-x="552" 
d="M419 40c0 -40.667 -5.33203 -81.332 -15.999 -121.999s-25.334 -79.834 -44.001 -117.501s-40.5 -73 -65.5 -106s-51.833 -61.833 -80.5 -86.5l-170 80c10.667 22.667 22.167 45.5 34.5 68.5s23.833 47.5 34.5 73.5s19.667 54.5 27 85.5s11 66.167 11 105.5v233h270z" />
    <glyph glyph-name="hyphen" unicode="-" horiz-adv-x="921" 
d="M753 497h-601v261h601v-261z" />
    <glyph glyph-name="period" unicode="." horiz-adv-x="619" 
d="M117 158c0 24 4.5 46.333 13.5 67s21.667 38.5 38 53.5s35.833 26.833 58.5 35.5s48 13 76 13c27.333 0 52.5 -4.33301 75.5 -13s42.667 -20.5 59 -35.5s29 -32.833 38 -53.5s13.5 -43 13.5 -67s-4.5 -46.333 -13.5 -67s-21.667 -38.5 -38 -53.5s-36 -26.833 -59 -35.5
s-48.167 -13 -75.5 -13c-28 0 -53.333 4.33301 -76 13s-42.167 20.5 -58.5 35.5s-29 32.833 -38 53.5s-13.5 43 -13.5 67z" />
    <glyph glyph-name="slash" unicode="/" horiz-adv-x="719" 
d="M210 -125h-239l497 1581h240z" />
    <glyph glyph-name="zero" unicode="0" 
d="M1100 595c0 -105.333 -12.334 -196.5 -37.001 -273.5s-59.334 -140.833 -104.001 -191.5s-98 -88.334 -160 -113.001s-130.333 -37 -205 -37c-75.333 0 -144.166 12.333 -206.499 37s-115.833 62.334 -160.5 113.001s-79.5 114.5 -104.5 191.5s-37.5 168.167 -37.5 273.5
v266c0 104.667 12.333 195.667 37 273s59.334 141.333 104.001 192s98 88.334 160 113.001s130.667 37 206 37c74.667 0 143.167 -12.333 205.5 -37s115.833 -62.334 160.5 -113.001s79.5 -114.667 104.5 -192s37.5 -168.333 37.5 -273v-266zM762.999 904
c0 58 -4.00195 106.833 -12.002 146.5s-19.333 71.834 -34 96.501s-32.5 42.334 -53.5 53.001s-44.833 16 -71.5 16s-50.5 -5.33301 -71.5 -16s-38.667 -28.334 -53 -53.001s-25.333 -56.834 -33 -96.501s-11.5 -88.5 -11.5 -146.5v-350c0 -59.333 3.83301 -109 11.5 -149
s18.834 -72.167 33.501 -96.5s32.667 -41.833 54 -52.5s45.333 -16 72 -16c26 0 49.5 5.33301 70.5 16s38.833 28.167 53.5 52.5s25.834 56.5 33.501 96.5s11.5 89.667 11.5 149v350z" />
    <glyph glyph-name="one" unicode="1" 
d="M836 0h-338v1076l-332 -97v256l639 221h31v-1456z" />
    <glyph glyph-name="two" unicode="2" 
d="M1105 0l-1016 0.00195312v220l468 492c62 70.667 106.333 131.167 133 181.5s40 94.166 40 131.499c0 62.667 -13.667 110.334 -41 143.001s-67 49 -119 49c-26 0 -49.667 -5.83301 -71 -17.5s-39.5 -27.834 -54.5 -48.501s-26.667 -44.834 -35 -72.501
s-12.5 -57.834 -12.5 -90.501h-338c0 66.667 12.5 129.667 37.5 189s60.333 111.333 106 156s100.334 79.834 164.001 105.501s134.167 38.5 211.5 38.5c80.667 0 151.5 -9.5 212.5 -28.5s112.167 -46.5 153.5 -82.5s72.5 -80.167 93.5 -132.5s31.5 -111.833 31.5 -178.5
c0 -50.667 -8 -99.167 -24 -145.5s-39 -92.5 -69 -138.5s-66.667 -93 -110 -141s-92 -99 -146 -153l-188 -217h573v-260z" />
    <glyph glyph-name="three" unicode="3" 
d="M397 869l164.001 0.000976562c62.667 0 109 16.5 139 49.5s45 78.167 45 135.5c0 22 -3.5 42.833 -10.5 62.5s-17.5 37 -31.5 52s-31.833 26.833 -53.5 35.5s-47.167 13 -76.5 13c-20.667 0 -40.834 -3.16699 -60.501 -9.5s-37.334 -15.333 -53.001 -27
s-28.334 -25.834 -38.001 -42.501s-14.5 -35.667 -14.5 -57h-337c0 62 13.333 117.5 40 166.5s62.667 90.5 108 124.5s97.5 60 156.5 78s121.167 27 186.5 27c77.333 0 148 -9 212 -27s118.833 -44.5 164.5 -79.5s81.167 -78.333 106.5 -130s38 -111.5 38 -179.5
c0 -33.333 -5.33301 -65.333 -16 -96s-25.667 -59.5 -45 -86.5s-43 -51.5 -71 -73.5s-59 -41 -93 -57c77.333 -28 138 -70.5 182 -127.5s66 -127.5 66 -211.5c0 -68 -13.833 -128.667 -41.5 -182s-65.834 -98.333 -114.501 -135s-106.167 -64.5 -172.5 -83.5
s-138.166 -28.5 -215.499 -28.5c-40.667 0 -81.5 3.66699 -122.5 11s-80.5 18.333 -118.5 33s-73.667 33.5 -107 56.5s-62.166 50.333 -86.499 82s-43.666 67.5 -57.999 107.5s-21.5 85 -21.5 135h339c0 -23.333 5 -45 15 -65s23.5 -37.5 40.5 -52.5
s36.833 -26.667 59.5 -35s46.667 -12.5 72 -12.5c30.667 0 58.167 4.5 82.5 13.5s44.833 21.5 61.5 37.5s29.334 34.667 38.001 56s13 44.333 13 69c0 73.333 -18.333 125.333 -55 156s-87.334 46 -152.001 46h-164v251z" />
    <glyph glyph-name="four" unicode="4" 
d="M979 569h148v-260h-148v-309h-337v309h-563l-20 206l583 938v3h337v-887zM380 569h262v448l-21 -34z" />
    <glyph glyph-name="five" unicode="5" 
d="M109 712l88.999 744.003h851v-262h-577l-33 -289c8 4.66699 19 10 33 16s30.333 11.833 49 17.5s38.667 10.334 60 14.001s43.666 5.5 66.999 5.5c72 0 136 -10.833 192 -32.5s103 -53.334 141 -95.001s67 -92.834 87 -153.501s30 -130 30 -208
c0 -62.667 -10.167 -123.334 -30.5 -182.001s-51.166 -110.834 -92.499 -156.501s-93.666 -82.167 -156.999 -109.5s-138.333 -41 -225 -41c-65.333 0 -128.833 10 -190.5 30s-116.5 48.833 -164.5 86.5s-86.333 83.167 -115 136.5s-42.667 113.666 -42 180.999h338
c3.33301 -53.333 20.333 -95.666 51 -126.999s71 -47 121 -47c33.333 0 61 6.66699 83 20s39.5 31.5 52.5 54.5s22 49.833 27 80.5s7.5 63 7.5 97c0 36 -4 68.333 -12 97s-20.333 53 -37 73s-38.167 35.5 -64.5 46.5s-57.833 16.5 -94.5 16.5c-24 0 -45.5 -2.33301 -64.5 -7
s-35.667 -10.667 -50 -18s-26.5 -15.5 -36.5 -24.5s-18.333 -17.833 -25 -26.5z" />
    <glyph glyph-name="six" unicode="6" 
d="M903 1477v-264.998h-18c-57.333 0 -111.5 -7 -162.5 -21s-96.5 -35.167 -136.5 -63.5s-73.833 -63.833 -101.5 -106.5s-46.5 -93 -56.5 -151c34 33.333 74.833 60.333 122.5 81s102.834 31 165.501 31c66.667 0 125.667 -12.833 177 -38.5s94.5 -61 129.5 -106
s61.5 -97.833 79.5 -158.5s27 -126.334 27 -197.001c0 -71.333 -12.667 -137.5 -38 -198.5s-60.5 -114 -105.5 -159s-98.667 -80.333 -161 -106s-130.5 -38.5 -204.5 -38.5c-76.667 0 -147.834 13.167 -213.501 39.5s-122.5 64.666 -170.5 114.999
s-85.5 111.833 -112.5 184.5s-40.5 155 -40.5 247v123c0 83.333 9.5 160.5 28.5 231.5s45.5 135.667 79.5 194s74.667 110 122 155s99.333 82.833 156 113.5s117.167 54 181.5 70s130.5 24 198.5 24h54zM599 724.002c-44.667 0 -82 -10.333 -112 -31s-52.333 -46 -67 -76
v-101c0 -94 16.167 -163.5 48.5 -208.5s79.833 -67.5 142.5 -67.5c26 0 50 6.16699 72 18.5s41 29.333 57 51s28.5 47.167 37.5 76.5s13.5 61.333 13.5 96c0 37.333 -4.83301 71 -14.5 101s-23 55.5 -40 76.5s-37.167 37 -60.5 48s-49 16.5 -77 16.5z" />
    <glyph glyph-name="seven" unicode="7" 
d="M1101 1276l-544 -1276h-356l545 1196h-694v260h1049v-180z" />
    <glyph glyph-name="eight" unicode="8" 
d="M1071 1067c0 -70.667 -17.499 -132.998 -52.499 -186.998s-83.167 -97.333 -144.5 -130c69.333 -34 124.333 -80.5 165 -139.5s61 -128.833 61 -209.5c0 -70 -12.667 -131.167 -38 -183.5s-60.333 -96.166 -105 -131.499s-98 -61.833 -160 -79.5
s-129.333 -26.5 -202 -26.5c-73.333 0 -141.166 8.83301 -203.499 26.5s-116.166 44.167 -161.499 79.5s-81 79.166 -107 131.499s-39 113.5 -39 183.5c0 40 5.33301 77.667 16 113s26 67.666 46 96.999s44.167 55.666 72.5 78.999s60.166 43.333 95.499 60
c-62 32.667 -110.667 76 -146 130s-53 116.333 -53 187c0 66.667 11.833 125.5 35.5 176.5s56.667 93.833 99 128.5s92.666 60.834 150.999 78.501s122.166 26.5 191.499 26.5c70 0 134.333 -8.83301 193 -26.5s109.167 -43.834 151.5 -78.501s75.333 -77.5 99 -128.5
s35.5 -109.833 35.5 -176.5zM762.001 428.002c0 60 -15.499 106.166 -46.499 138.499s-71.833 48.5 -122.5 48.5s-91.667 -16.167 -123 -48.5s-47 -78.5 -47 -138.5c0 -29.333 4.16699 -55.666 12.5 -78.999s20 -43 35 -59s33.167 -28.333 54.5 -37s44.666 -13 69.999 -13
c50 0 90.333 16.667 121 50s46 79.333 46 138zM733.002 1049c0 52 -11.832 93.001 -35.499 123.001s-58.834 45 -105.501 45c-45.333 0 -79.833 -14.833 -103.5 -44.5s-35.5 -70.834 -35.5 -123.501c0 -52 12 -94 36 -126s59.333 -48 106 -48c46 0 80.5 16 103.5 48
s34.5 74 34.5 126z" />
    <glyph glyph-name="nine" unicode="9" 
d="M323 250c60 0 114.668 5.83301 164.001 17.5s92.5 30 129.5 55s67.167 57.333 90.5 97s38.666 87.5 45.999 143.5c-33.333 -30 -70.833 -53.833 -112.5 -71.5s-85.5 -26.5 -131.5 -26.5c-66 0 -125.667 11.667 -179 35s-98.5 56.5 -135.5 99.5s-65.5 94.833 -85.5 155.5
s-30 128 -30 202c0 70.667 12.5 137.667 37.5 201s60 118.5 105 165.5s98.5 84.333 160.5 112s130 41.5 204 41.5c70 0 135.833 -13.167 197.5 -39.5s115.667 -64.833 162 -115.5s82.833 -113 109.5 -187s40 -158.667 40 -254v-116c0 -129.333 -19.667 -243 -59 -341
s-93.5 -179.833 -162.5 -245.5s-150.167 -115.167 -243.5 -148.5s-194 -50 -302 -50h-26v270h21zM600.001 708c40 0 72.998 9.16504 98.998 27.498s45.667 40.833 59 67.5v140c0 93.333 -15.667 162.333 -47 207s-73.666 67 -126.999 67
c-26.667 0 -50.334 -7.66699 -71.001 -23s-38.167 -35.333 -52.5 -60s-25.166 -52.5 -32.499 -83.5s-11 -62.167 -11 -93.5c0 -35.333 3.83301 -68.166 11.5 -98.499s19.167 -56.666 34.5 -78.999s34.333 -39.833 57 -52.5s49.334 -19 80.001 -19z" />
    <glyph glyph-name="colon" unicode=":" horiz-adv-x="615" 
d="M118 158c0 24 4.5 46.333 13.5 67s21.667 38.5 38 53.5s35.833 26.833 58.5 35.5s48 13 76 13c27.333 0 52.5 -4.33301 75.5 -13s42.667 -20.5 59 -35.5s29 -32.833 38 -53.5s13.5 -43 13.5 -67s-4.5 -46.333 -13.5 -67s-21.667 -38.5 -38 -53.5s-36 -26.833 -59 -35.5
s-48.167 -13 -75.5 -13c-28 0 -53.333 4.33301 -76 13s-42.167 20.5 -58.5 35.5s-29 32.833 -38 53.5s-13.5 43 -13.5 67zM118 956c0 24 4.5 46.333 13.5 67s21.667 38.5 38 53.5s35.833 26.833 58.5 35.5s48 13 76 13c27.333 0 52.5 -4.33301 75.5 -13
s42.667 -20.5 59 -35.5s29 -32.833 38 -53.5s13.5 -43 13.5 -67s-4.5 -46.333 -13.5 -67s-21.667 -38.5 -38 -53.5s-36 -26.833 -59 -35.5s-48.167 -13 -75.5 -13c-28 0 -53.333 4.33301 -76 13s-42.167 20.5 -58.5 35.5s-29 32.833 -38 53.5s-13.5 43 -13.5 67z" />
    <glyph glyph-name="semicolon" unicode=";" horiz-adv-x="590" 
d="M108 956c0 24 4.5 46.333 13.5 67s21.667 38.5 38 53.5s35.833 26.833 58.5 35.5s48 13 76 13c27.333 0 52.5 -4.33301 75.5 -13s42.667 -20.5 59 -35.5s29 -32.833 38 -53.5s13.5 -43 13.5 -67s-4.5 -46.333 -13.5 -67s-21.667 -38.5 -38 -53.5s-36 -26.833 -59 -35.5
s-48.167 -13 -75.5 -13c-28 0 -53.333 4.33301 -76 13s-42.167 20.5 -58.5 35.5s-29 32.833 -38 53.5s-13.5 43 -13.5 67zM444 40c0 -40.667 -5.33203 -81.332 -15.999 -121.999s-25.334 -79.834 -44.001 -117.501s-40.5 -73 -65.5 -106s-51.833 -61.833 -80.5 -86.5
l-170 80c10.667 22.667 22.167 45.5 34.5 68.5s23.833 47.5 34.5 73.5s19.667 54.5 27 85.5s11 66.167 11 105.5v233h270z" />
    <glyph glyph-name="less" unicode="&#x3c;" horiz-adv-x="1044" 
d="M383 609l547 -184v-307l-884 360v266l884 360v-306z" />
    <glyph glyph-name="equal" unicode="=" horiz-adv-x="1199" 
d="M1054 722h-926v260h926v-260zM1054 283h-926v260h926v-260z" />
    <glyph glyph-name="greater" unicode="&#x3e;" horiz-adv-x="1050" 
d="M655 612l-544 185v306l879 -360v-266l-879 -360v306z" />
    <glyph glyph-name="question" unicode="?" horiz-adv-x="1043" 
d="M344 461c0 44 2.1709 84.001 6.50391 120.001s11.833 69.167 22.5 99.5s25 58.333 43 84s40.667 50.167 68 73.5c46.667 38.667 83.5 75.667 110.5 111s40.5 74 40.5 116c0 52 -10.833 90.167 -32.5 114.5s-54.167 36.5 -97.5 36.5c-17.333 0 -34 -3.16699 -50 -9.5
s-30.167 -16 -42.5 -29s-22.5 -29.833 -30.5 -50.5s-12.333 -45.334 -13 -74.001h-338c0.666992 74.667 13.5 138.667 38.5 192s58.667 97.166 101 131.499s92.166 59.5 149.499 75.5s119 24 185 24c72.667 0 138 -8.5 196 -25.5s107.167 -42.167 147.5 -75.5
s71.166 -74.666 92.499 -123.999s32 -106.333 32 -171c0 -43.333 -6.16699 -82 -18.5 -116s-29.333 -65.667 -51 -95s-47.167 -57.833 -76.5 -85.5l-94 -87.5c-19.333 -17.333 -35.5 -34.333 -48.5 -51s-23.333 -34.167 -31 -52.5s-13.334 -38.333 -17.001 -60
s-5.83398 -45.5 -6.50098 -71.5h-286zM303.004 157.001c0 24 4.5 46.333 13.5 67s21.833 38.5 38.5 53.5s36.334 26.833 59.001 35.5s48 13 76 13s53.333 -4.33301 76 -13s42.334 -20.5 59.001 -35.5s29.5 -32.833 38.5 -53.5s13.5 -43 13.5 -67s-4.5 -46.333 -13.5 -67
s-21.833 -38.5 -38.5 -53.5s-36.334 -26.833 -59.001 -35.5s-48 -13 -76 -13s-53.333 4.33301 -76 13s-42.334 20.5 -59.001 35.5s-29.5 32.833 -38.5 53.5s-13.5 43 -13.5 67z" />
    <glyph glyph-name="at" unicode="@" horiz-adv-x="1834" 
d="M1754 550c-2.66699 -70.667 -13 -140.168 -31 -208.501s-45 -129.333 -81 -183s-81.833 -97 -137.5 -130s-122.5 -49.5 -200.5 -49.5c-54.667 0 -103 11.833 -145 35.5s-74.667 57.167 -98 100.5c-65.333 -88 -153 -132 -263 -132c-48 0 -91.667 10.667 -131 32
s-72.166 51.833 -98.499 91.5s-45.333 87.334 -57 143.001s-14.167 117.834 -7.5 186.501c10 84 29 160.167 57 228.5s63 126.666 105 174.999s90.167 85.5 144.5 111.5s112.833 39 175.5 39c40 0 75 -3 105 -9s57.167 -14.167 81.5 -24.5s46.833 -22.166 67.5 -35.499
l62 -41l-51 -587c-3.33301 -28 -2.83301 -50.833 1.5 -68.5s11.333 -31.834 21 -42.501s21 -18 34 -22s26.167 -6 39.5 -6c28.667 0 55.334 9.83301 80.001 29.5s46 46.834 64 81.501s32.333 75.5 43 122.5s17 97.833 19 152.5c5.33301 104 -2.66699 199 -24 285
s-56.5 159.5 -105.5 220.5s-112 108.333 -189 142s-168.833 50.5 -275.5 50.5c-101.333 0 -192.166 -19.833 -272.499 -59.5s-149.333 -94.5 -207 -164.5s-102.834 -152.5 -135.501 -247.5s-51.667 -197.833 -57 -308.5c-5.33301 -120 4.33398 -225 29.001 -315
s63 -165.167 115 -225.5s117 -105.5 195 -135.5s167.667 -45 269 -45c28.667 0 58 1.66699 88 5s59.5 8 88.5 14s56.667 12.833 83 20.5s50.166 16.167 71.499 25.5l37 -166c-23.333 -15.333 -50 -28.5 -80 -39.5s-61.5 -20.167 -94.5 -27.5s-66.5 -12.833 -100.5 -16.5
s-66.333 -5.5 -97 -5.5c-135.333 0 -255.333 19.333 -360 58s-192.167 96.167 -262.5 172.5s-122.833 171.333 -157.5 285s-49.334 245.5 -44.001 395.5c6 136.667 31.167 263.167 75.5 379.5s105.166 216.833 182.499 301.5s169.833 151 277.5 199s227.834 72 360.501 72
c132 0 248.333 -20.833 349 -62.5s184.667 -100.334 252 -176.001s117.166 -166.167 149.499 -271.5s45.833 -222 40.5 -350zM754 435.999c-7.33301 -86.667 -0.499023 -152.166 20.501 -196.499s54.833 -66.5 101.5 -66.5c10 0 21.5 2.16699 34.5 6.5s26.333 12.333 40 24
s27.167 28 40.5 49s25.666 48.5 36.999 82.5l40 456c-20 5.33301 -40.667 8 -62 8c-40 0 -74.333 -7.83301 -103 -23.5s-53 -38.834 -73 -69.501s-36.167 -68.667 -48.5 -114s-21.5 -97.333 -27.5 -156z" />
    <glyph glyph-name="A" unicode="A" horiz-adv-x="1395" 
d="M937 272h-481l-84 -272h-375l534 1456h330l538 -1456h-377zM540 543h313l-157 505z" />
    <glyph glyph-name="B" unicode="B" horiz-adv-x="1321" 
d="M110 0l-0.000976562 1456h523c90 0 170.5 -8.16699 241.5 -24.5s131.167 -41.166 180.5 -74.499s87 -75.166 113 -125.499s39 -109.5 39 -177.5c0 -33.333 -3.66699 -65.5 -11 -96.5s-19.166 -60.167 -35.499 -87.5s-37.5 -51.833 -63.5 -73.5s-57.667 -39.5 -95 -53.5
c43.333 -11.333 80 -27.666 110 -48.999s54.333 -46 73 -74s32.167 -58.167 40.5 -90.5s12.5 -65.166 12.5 -98.499c0 -144 -46 -251.833 -138 -323.5s-228.333 -107.5 -409 -107.5h-581zM460.999 618.996v-349.002h230c35.333 0 65.5 4.33301 90.5 13s45.333 20.5 61 35.5
s27.167 32.5 34.5 52.5s11 41.667 11 65c0 28 -3.33301 53.333 -10 76s-17.334 41.834 -32.001 57.501s-33.667 27.834 -57 36.501s-51.666 13 -84.999 13h-243zM460.999 848.994l182.999 0.000976562c76.667 0.666992 131.334 14.667 164.001 42s49 67.666 49 120.999
c0 61.333 -17.667 105.5 -53 132.5s-92.333 40.5 -171 40.5h-172v-336z" />
    <glyph glyph-name="C" unicode="C" horiz-adv-x="1344" 
d="M1288 493c-3.33301 -76 -19.6709 -145.501 -49.0039 -208.501s-70 -117 -122 -162s-114.333 -80 -187 -105s-154 -37.5 -244 -37.5c-97.333 0 -184.166 16.333 -260.499 49s-141 79.5 -194 140.5s-93.333 135.333 -121 223s-41.5 186.167 -41.5 295.5v79
c0 109.333 14.5 207.833 43.5 295.5s70.333 162.167 124 223.5s118.167 108.5 193.5 141.5s159.333 49.5 252 49.5c94.667 0 178.5 -13.167 251.5 -39.5s134.833 -62.833 185.5 -109.5s90.334 -102 119.001 -166s46.334 -133.667 53.001 -209h-350
c-1.33301 40.667 -6.83301 76.667 -16.5 108s-24.834 57.333 -45.501 78s-47 36.334 -79 47.001s-71.333 16 -118 16c-43.333 0 -81 -8 -113 -24s-58.667 -41.333 -80 -76s-37.166 -79.5 -47.499 -134.5s-15.5 -121.167 -15.5 -198.5v-81
c0 -77.333 4.66699 -143.333 14 -198s24.166 -99.5 44.499 -134.5s47 -60.5 80 -76.5s73.5 -24 121.5 -24c80.667 0 142.334 19 185.001 57s65.334 98.333 68.001 181h349z" />
    <glyph glyph-name="D" unicode="D" horiz-adv-x="1324" 
d="M110 0l-0.00195312 1456h469c98.667 0 189.334 -17 272.001 -51s153.834 -81.833 213.501 -143.5s106.167 -135.334 139.5 -221.001s50 -179.834 50 -282.501v-61c0 -103.333 -16.667 -197.666 -50 -282.999s-79.833 -158.666 -139.5 -219.999s-130.5 -109 -212.5 -143
s-171.667 -51 -269 -51h-473zM460.998 1185v-915h122c100.667 0 178 35.833 232 107.5s81 178.167 81 319.5v63c0 140.667 -27 246.667 -81 318s-132.667 107 -236 107h-118z" />
    <glyph glyph-name="E" unicode="E" horiz-adv-x="1146" 
d="M1013 617h-552v-347h652v-270h-1003v1456h1005v-271h-654v-307h552v-261z" />
    <glyph glyph-name="F" unicode="F" horiz-adv-x="1120" 
d="M1027 580h-566v-580h-351v1456h974v-271h-623v-335h566v-270z" />
    <glyph glyph-name="G" unicode="G" horiz-adv-x="1396" 
d="M1302 180c-18.667 -20.667 -44.668 -42.665 -78.001 -65.998s-74 -45 -122 -65s-103.5 -36.5 -166.5 -49.5s-133.833 -19.5 -212.5 -19.5c-97.333 0 -185.333 15.667 -264 47s-146 77 -202 137s-99.167 133.833 -129.5 221.5s-45.5 188.167 -45.5 301.5v81
c0 113.333 15.333 214 46 302s73.5 162.167 128.5 222.5s120.5 106.166 196.5 137.499s159.333 47 250 47c100.667 0 187 -12.167 259 -36.5s132 -58.5 180 -102.5s84.667 -96.333 110 -157s41.666 -127.334 48.999 -200.001h-338c-5.33301 36 -13.5 68 -24.5 96
s-26.333 51.667 -46 71s-44 34 -73 44s-63.833 15 -104.5 15c-42 0 -80.167 -9 -114.5 -27s-63.5 -45.167 -87.5 -81.5s-42.5 -81.833 -55.5 -136.5s-19.5 -118.667 -19.5 -192v-83c0 -145.333 24.833 -254.5 74.5 -327.5s127.834 -109.5 234.501 -109.5
c28 0 53 1.83301 75 5.5s41.333 8.5 58 14.5s30.834 12.667 42.501 20s21.167 14.333 28.5 21v226h-244v241h595v-598z" />
    <glyph glyph-name="H" unicode="H" horiz-adv-x="1439" 
d="M1327 0h-349v608h-517v-608h-351v1456h351v-578h517v578h349v-1456z" />
    <glyph glyph-name="I" unicode="I" horiz-adv-x="618" 
d="M484 0h-350v1456h350v-1456z" />
    <glyph glyph-name="J" unicode="J" horiz-adv-x="1151" 
d="M690 1456l349.996 -0.00292969v-999c0 -73.333 -13 -139.333 -39 -198s-61.5 -108.667 -106.5 -150s-98 -73.166 -159 -95.499s-126.833 -33.5 -197.5 -33.5c-73.333 0 -140.666 9.16699 -201.999 27.5s-114.166 46.333 -158.499 84s-79 85.334 -104 143.001
s-37.5 126.167 -37.5 205.5h352c0 -37.333 3.33301 -68.166 10 -92.499s16.334 -43.666 29.001 -57.999s28.334 -24.5 47.001 -30.5s40 -9 64 -9c48.667 0 86.167 18.167 112.5 54.5s39.5 87.166 39.5 152.499v999z" />
    <glyph glyph-name="K" unicode="K" horiz-adv-x="1310" 
d="M605 542l-144 -158v-384h-351v1456h351v-642l122 185l314 457h434l-492 -644l492 -812h-416z" />
    <glyph glyph-name="L" unicode="L" horiz-adv-x="1110" 
d="M461 270h611v-270h-962v1456h351v-1186z" />
    <glyph glyph-name="M" unicode="M" horiz-adv-x="1795" 
d="M571 1456l325 -1013l324 1013h462v-1456h-352v340l34 696l-352 -1036h-232l-353 1037l34 -697v-340h-351v1456h461z" />
    <glyph glyph-name="N" unicode="N" horiz-adv-x="1438" 
d="M1326 0h-349l-516 906v-906h-351v1456h351l515 -906v906h350v-1456z" />
    <glyph glyph-name="O" unicode="O" horiz-adv-x="1414" 
d="M1343 698c0 -111.333 -15.6689 -211.333 -47.002 -300s-75.166 -164 -131.499 -226s-123.333 -109.5 -201 -142.5s-162.834 -49.5 -255.501 -49.5c-94 0 -180.167 16.5 -258.5 49.5s-145.666 80.5 -201.999 142.5s-100.166 137.333 -131.499 226s-47 188.667 -47 300v59
c0 111.333 15.5 211.333 46.5 300s74.667 164 131 226s123.5 109.667 201.5 143s164 50 258 50c92.667 0 178 -16.667 256 -50s145.167 -81 201.5 -143s100.333 -137.333 132 -226s47.5 -188.667 47.5 -300v-59zM985.998 759c0 144.667 -24.166 254.502 -72.499 329.502
s-117.5 112.5 -207.5 112.5c-94 0 -164.167 -37.5 -210.5 -112.5s-69.5 -184.833 -69.5 -329.5v-61c0 -142.667 23.667 -252.334 71 -329.001s117.666 -115 210.999 -115c89.333 0 158 38.167 206 114.5s72 186.166 72 329.499v61z" />
    <glyph glyph-name="P" unicode="P" horiz-adv-x="1333" 
d="M461 494v-494.001h-351v1456h581c87.333 0 166 -12.333 236 -37s129.333 -59 178 -103s86 -96.167 112 -156.5s39 -126.166 39 -197.499c0 -70.667 -13 -134.667 -39 -192s-63.333 -106.5 -112 -147.5s-108 -72.667 -178 -95s-148.667 -33.5 -236 -33.5h-230z
M461 764.999h230c36.667 0 68.167 4.83301 94.5 14.5s48 23.167 65 40.5s29.5 38 37.5 62s12 50 12 78c0 30 -4 58.5 -12 85.5s-20.5 50.833 -37.5 71.5s-38.667 37.167 -65 49.5s-57.833 18.5 -94.5 18.5h-230v-420z" />
    <glyph glyph-name="Q" unicode="Q" horiz-adv-x="1414" 
d="M1345 698c0 -134.667 -22.334 -252.167 -67.001 -352.5s-106.334 -180.833 -185.001 -241.5l235 -186l-217 -184l-313 252c-29.333 -4 -58.666 -6 -87.999 -6c-94 0 -180 16.5 -258 49.5s-145.167 80.5 -201.5 142.5s-100.166 137.333 -131.499 226s-47 188.667 -47 300
v59c0 111.333 15.5 211.333 46.5 300s74.5 164 130.5 226s123 109.667 201 143s164 50 258 50c92.667 0 178 -16.667 256 -50s145.167 -81 201.5 -143s100.333 -137.333 132 -226s47.5 -188.667 47.5 -300v-59zM987.999 759c0 144.667 -24.166 254.5 -72.499 329.5
s-117.5 112.5 -207.5 112.5c-93.333 0 -163.333 -37.5 -210 -112.5s-70 -184.833 -70 -329.5v-61c0 -143.333 23.667 -253.166 71 -329.499s117.666 -114.5 210.999 -114.5c90 0 158.833 38.167 206.5 114.5s71.5 186.166 71.5 329.499v61z" />
    <glyph glyph-name="R" unicode="R" horiz-adv-x="1336" 
d="M651 514h-190.001v-514h-351v1456h573c84 0 160 -9.5 228 -28.5s126 -47 174 -84s84.833 -82.833 110.5 -137.5s38.5 -118 38.5 -190c0 -56 -6 -105.833 -18 -149.5s-29.167 -82 -51.5 -115s-49.166 -61.667 -80.499 -86s-66 -45.5 -104 -63.5l304 -587v-15h-376z
M460.999 785l221.999 -0.000976562c66.667 0 116.834 17.5 150.501 52.5s50.5 83.833 50.5 146.5s-17 111.834 -51 147.501s-84 53.5 -150 53.5h-222v-400z" />
    <glyph glyph-name="S" unicode="S" horiz-adv-x="1282" 
d="M861 387c0 22.667 -3.16992 43.1768 -9.50293 61.5098s-18.833 35.666 -37.5 51.999s-44.834 32.5 -78.501 48.5s-77.834 33 -132.501 51c-64 21.333 -125.667 45.333 -185 72s-112 58.334 -158 95.001s-82.833 79.5 -110.5 128.5s-41.5 106.167 -41.5 171.5
c0 62.667 14 119.167 42 169.5s67 93.166 117 128.499s109.167 62.666 177.5 81.999s142.833 29 223.5 29c79.333 0 152.333 -10.667 219 -32s124 -51.666 172 -90.999s85.5 -86.833 112.5 -142.5s40.5 -117.834 40.5 -186.501h-350c0 27.333 -4.16699 52.5 -12.5 75.5
s-21 42.667 -38 59s-38 29.166 -63 38.499s-54.5 14 -88.5 14c-33.333 0 -62.666 -3.83301 -87.999 -11.5s-46.5 -18.334 -63.5 -32.001s-29.833 -29.334 -38.5 -47.001s-13 -36.5 -13 -56.5c0 -22 6.16699 -41.833 18.5 -59.5s30 -34.334 53 -50.001s51 -30.334 84 -44.001
s70.167 -27.167 111.5 -40.5c77.333 -24.667 146.333 -52 207 -82s111.834 -64.333 153.501 -103s73.334 -82.334 95.001 -131.001s32.5 -103.667 32.5 -165c0 -65.333 -12.833 -123.5 -38.5 -174.5s-62 -93.833 -109 -128.5s-103.667 -61 -170 -79
s-140.166 -27 -221.499 -27c-50 0 -99.667 4.16699 -149 12.5s-96.5 21.166 -141.5 38.499s-87 39.166 -126 65.499s-72.667 57.833 -101 94.5s-50.666 78.334 -66.999 125.001s-24.5 98.667 -24.5 156h352c0 -42.667 5.66699 -78.5 17 -107.5s28 -52.5 50 -70.5
s48.833 -30.833 80.5 -38.5s68.167 -11.5 109.5 -11.5c33.333 0 61.833 3.83301 85.5 11.5s43.167 18 58.5 31s26.5 28.167 33.5 45.5s10.5 35.666 10.5 54.999z" />
    <glyph glyph-name="T" unicode="T" horiz-adv-x="1291" 
d="M1253 1185h-437v-1185h-351v1185h-429v271h1217v-271z" />
    <glyph glyph-name="U" unicode="U" horiz-adv-x="1361" 
d="M1252 1456l0.000976562 -951c0 -85.333 -13.667 -160.666 -41 -225.999s-66 -120.166 -116 -164.499s-110.167 -77.833 -180.5 -100.5s-148.5 -34 -234.5 -34c-85.333 0 -163.333 11.333 -234 34s-131.167 56.167 -181.5 100.5s-89.5 99.166 -117.5 164.499
s-42 140.666 -42 225.999v951h353v-951c0 -90 19.167 -155 57.5 -195s93.166 -60 164.499 -60c72.667 0 127.667 20 165 60s56 105 56 195v951h351z" />
    <glyph glyph-name="V" unicode="V" horiz-adv-x="1353" 
d="M675 396l290 1060h392l-490 -1456h-384l-486 1456h389z" />
    <glyph glyph-name="W" unicode="W" horiz-adv-x="1780" 
d="M1238 543l167 913h348l-309 -1456h-364l-195 830l-191 -830h-363l-310 1456h349l167 -913l200 913h298z" />
    <glyph glyph-name="X" unicode="X" horiz-adv-x="1307" 
d="M653 972l238 484h401l-407 -722l418 -734h-405l-245 493l-245 -493h-404l417 734l-406 722h400z" />
    <glyph glyph-name="Y" unicode="Y" horiz-adv-x="1286" 
d="M643 824l268 632h379l-469 -933v-523h-356v523l-468 933h377z" />
    <glyph glyph-name="Z" unicode="Z" horiz-adv-x="1249" 
d="M504 270h696v-270h-1134v185l694 1000h-698v271h1131v-180z" />
    <glyph glyph-name="bracketleft" unicode="[" horiz-adv-x="577" 
d="M564 1460h-118v-1564h118v-245h-456v2055h456v-246z" />
    <glyph glyph-name="backslash" unicode="\" horiz-adv-x="873" 
d="M-20 1456h351l608 -1581h-353z" />
    <glyph glyph-name="bracketright" unicode="]" horiz-adv-x="577" 
d="M14 1706h456v-2055h-456v245h119v1564h-119v246z" />
    <glyph glyph-name="asciicircum" unicode="^" horiz-adv-x="916" 
d="M460 1182l-171 -453h-253l299 727h249l300 -727h-254z" />
    <glyph glyph-name="underscore" unicode="_" horiz-adv-x="904" 
d="M903 -251h-903v251h903v-251z" />
    <glyph glyph-name="grave" unicode="`" horiz-adv-x="695" 
d="M610 1222h-274l-282 314h356z" />
    <glyph glyph-name="a" unicode="a" horiz-adv-x="1087" 
d="M704 0c-7.33301 13.333 -13.499 28.168 -18.499 44.501s-9.5 33.833 -13.5 52.5c-26 -32.667 -59.667 -60.334 -101 -83.001s-94.333 -34 -159 -34c-50 0 -97.167 8 -141.5 24s-83.166 38.167 -116.499 66.5s-59.833 62.5 -79.5 102.5s-29.5 84 -29.5 132
c0 56 10.167 106 30.5 150s51.333 81.167 93 111.5s94.334 53.666 158.001 69.999s139.167 24.5 226.5 24.5h104v57c0 46 -10 82.333 -30 109s-53 40 -99 40c-38.667 0 -68.334 -9.66699 -89.001 -29s-31 -49 -31 -89h-337c0 50 11.167 96.667 33.5 140
s54.166 80.666 95.499 111.999s91.166 56 149.499 74s123.5 27 195.5 27c64.667 0 124.5 -8 179.5 -24s102.5 -40.167 142.5 -72.5s71.333 -72.666 94 -120.999s34 -104.5 34 -168.5v-443c0 -35.333 1 -66 3 -92s5 -48.833 9 -68.5s8.83301 -37.167 14.5 -52.5
s12.167 -29.666 19.5 -42.999v-17h-337zM493.001 220.002c42 0 76.833 9.00098 104.5 27.001s47.5 38.333 59.5 61v173h-106c-31.333 0 -57.833 -4.33301 -79.5 -13s-39 -20.334 -52 -35.001s-22.333 -31.5 -28 -50.5s-8.5 -38.833 -8.5 -59.5
c0 -30.667 10.333 -55.5 31 -74.5s47 -28.5 79 -28.5z" />
    <glyph glyph-name="b" unicode="b" horiz-adv-x="1153" 
d="M1099 532c0 -82 -8.33203 -156.833 -24.999 -224.5s-42.334 -125.667 -77.001 -174s-78.334 -86 -131.001 -113s-115 -40.5 -187 -40.5c-59.333 0 -110.5 11.5 -153.5 34.5s-80.5 55.167 -112.5 96.5l-14 -111h-302v1536h337v-541c30 34 65 60.333 105 79s86 28 138 28
c72.667 0 135.5 -13.667 188.5 -41s96.833 -65.5 131.5 -114.5s60.334 -107 77.001 -174s25 -140.167 25 -219.5v-21zM761.001 553c0 39.333 -2.16895 76.501 -6.50195 111.501s-12.666 65.667 -24.999 92s-29.5 47.166 -51.5 62.499s-50.667 23 -86 23
c-40 0 -72.833 -7.5 -98.5 -22.5s-45.5 -36.5 -59.5 -64.5v-430c14 -28 33.833 -49.333 59.5 -64s59.167 -22 100.5 -22c36.667 0 66 7.16699 88 21.5s38.833 34.333 50.5 60s19.334 56.5 23.001 92.5s5.5 75.667 5.5 119v21z" />
    <glyph glyph-name="c" unicode="c" horiz-adv-x="1064" 
d="M552 240c47.333 0 84.001 12.833 110.001 38.5s38.667 61.5 38 107.5h316c0 -61.333 -11.5 -116.833 -34.5 -166.5s-54.833 -92.334 -95.5 -128.001s-89 -63.167 -145 -82.5s-116.333 -29 -181 -29c-84.667 0 -158.667 14 -222 42s-116.166 66.5 -158.499 115.5
s-74.166 107 -95.499 174s-32 139.5 -32 217.5v23c0 78 10.667 150.667 32 218s53 125.5 95 174.5s94.5 87.5 157.5 115.5s136.5 42 220.5 42c68 0 130.167 -9.66699 186.5 -29s104.666 -47.5 144.999 -84.5s71.666 -82.5 93.999 -136.5s33.5 -115.333 33.5 -184h-316
c0 24 -2.83301 46.667 -8.5 68s-14.834 39.833 -27.501 55.5s-28.5 28 -47.5 37s-41.5 13.5 -67.5 13.5c-34.667 0 -62.5 -7.83301 -83.5 -23.5s-37.167 -36.667 -48.5 -63s-18.833 -57.166 -22.5 -92.499s-5.5 -72.333 -5.5 -111v-23c0 -40 1.83301 -77.5 5.5 -112.5
s11.167 -65.667 22.5 -92s27.833 -47 49.5 -62s50.167 -22.5 85.5 -22.5z" />
    <glyph glyph-name="d" unicode="d" horiz-adv-x="1152" 
d="M52 549c0 82 9.00098 156.998 27.001 224.998s44.667 126.333 80 175s79.166 86.334 131.499 113.001s113.166 40 182.499 40c51.333 0 97 -10 137 -30s75.667 -48 107 -84v548h338v-1536h-303l-17 116c-32 -42 -69.667 -75.167 -113 -99.5s-93.666 -36.5 -150.999 -36.5
c-68.667 0 -129 13.833 -181 41.5s-95.667 65.834 -131 114.501s-62 106.5 -80 173.5s-27 139.833 -27 218.5v21zM389.001 527.998c0 -40.667 2.66797 -78.5 8.00098 -113.5s14.5 -65.5 27.5 -91.5s30.333 -46.333 52 -61s48.5 -22 80.5 -22c38 0 70.333 8.16699 97 24.5
s47.667 39.5 63 69.5v412c-30.667 64 -83.334 96 -158.001 96c-31.333 0 -57.833 -7.33301 -79.5 -22s-39.167 -35.167 -52.5 -61.5s-23 -57.333 -29 -93s-9 -74.5 -9 -116.5v-21z" />
    <glyph glyph-name="e" unicode="e" horiz-adv-x="1115" 
d="M618 -20c-88 0 -166.669 14.002 -236.002 42.002s-127.666 66 -174.999 114s-83.5 103.667 -108.5 167s-37.5 130.666 -37.5 201.999v38c0 78.667 10.833 152.167 32.5 220.5s54.334 127.5 98.001 177.5s98 89.333 163 118s140.833 43 227.5 43
c76.667 0 145.5 -12.333 206.5 -37s112.667 -60 155 -106s74.666 -101.667 96.999 -167s33.5 -138.666 33.5 -219.999v-137h-670c12 -60.667 38.333 -108.334 79 -143.001s93.334 -52 158.001 -52c46 0 91.167 8.66699 135.5 26s82.5 46 114.5 86l154 -182
c-17.333 -24 -39.5 -47.333 -66.5 -70s-58.5 -42.834 -94.5 -60.501s-76.333 -32 -121 -43s-93 -16.5 -145 -16.5zM579.998 842.002c-28.667 0 -53.3311 -5 -73.998 -15s-37.834 -23.667 -51.501 -41s-24.5 -38 -32.5 -62s-14 -50 -18 -78h340v26
c1.33301 54 -12.334 95.833 -41.001 125.5s-69.667 44.5 -123 44.5z" />
    <glyph glyph-name="f" unicode="f" horiz-adv-x="742" 
d="M169 0l-0.000976562 848h-157v234h157v88c0 62.667 9.66699 118.167 29 166.5s47 88.833 83 121.5s79.5 57.334 130.5 74.001s108.5 25 172.5 25c28.667 0 56 -2 82 -6s51.333 -9 76 -15l1 -248c-11.333 3.33301 -23.5 5.66602 -36.5 6.99902s-28.5 2 -46.5 2
c-49.333 0 -87.166 -10.833 -113.499 -32.5s-39.5 -53.167 -39.5 -94.5v-88h211v-234h-211v-848h-338z" />
    <glyph glyph-name="g" unicode="g" horiz-adv-x="1178" 
d="M55 549c0 82 10.1689 156.998 30.502 224.998s49.666 126.333 87.999 175s85 86.334 140 113.001s116.833 40 185.5 40c61.333 0 113.166 -10 155.499 -30s78.5 -48 108.5 -84l12 94h306v-1040c0 -75.333 -13.333 -142 -40 -200s-64.167 -106.833 -112.5 -146.5
s-106.333 -69.834 -174 -90.501s-142.5 -31 -224.5 -31c-36 0 -73.167 3.5 -111.5 10.5s-75.166 17.333 -110.499 31s-68.5 30.5 -99.5 50.5s-57.5 43.333 -79.5 70l141 198c26.667 -31.333 60.667 -57.666 102 -78.999s90 -32 146 -32c73.333 0 129 19.167 167 57.5
s57 92.833 57 163.5v43c-30.667 -34 -66 -60.333 -106 -79s-86.333 -28 -139 -28c-68.667 0 -130.334 13.833 -185.001 41.5s-101 65.834 -139 114.501s-67.167 106.5 -87.5 173.5s-30.5 139.833 -30.5 218.5v21zM393.002 527.998c0 -40.667 3.83203 -78.5 11.499 -113.5
s19.334 -65.5 35.001 -91.5s35.5 -46.333 59.5 -61s52 -22 84 -22c38 0 70 6.33301 96 19s47 30.667 63 54v455c-16 24 -36.833 42.333 -62.5 55s-57.167 19 -94.5 19c-31.333 0 -59 -7.33301 -83 -22s-44 -35.167 -60 -61.5s-28.167 -57.333 -36.5 -93
s-12.5 -74.5 -12.5 -116.5v-21z" />
    <glyph glyph-name="h" unicode="h" horiz-adv-x="1156" 
d="M424 966c34 42.667 74.168 76.001 120.501 100.001s98.166 36 155.499 36c54 0 103.167 -7.66699 147.5 -23s82.5 -40 114.5 -74s56.833 -78.333 74.5 -133s26.5 -121.334 26.5 -200.001v-672h-338v674c0 32.667 -3.5 59.834 -10.5 81.501s-17.167 39 -30.5 52
s-29.5 22 -48.5 27s-40.5 7.5 -64.5 7.5c-37.333 0 -67.833 -5.83301 -91.5 -17.5s-42.167 -27.834 -55.5 -48.501v-776h-337v1536h337v-570z" />
    <glyph glyph-name="i" unicode="i" horiz-adv-x="563" 
d="M450 0h-338v1082h338v-1082zM92 1361c0 24 4.5 46 13.5 66s21.833 37.333 38.5 52s36.334 26 59.001 34s48 12 76 12s53.333 -4 76 -12s42.334 -19.333 59.001 -34s29.5 -32 38.5 -52s13.5 -42 13.5 -66s-4.5 -46 -13.5 -66s-21.833 -37.333 -38.5 -52
s-36.334 -26 -59.001 -34s-48 -12 -76 -12s-53.333 4 -76 12s-42.334 19.333 -59.001 34s-29.5 32 -38.5 52s-13.5 42 -13.5 66z" />
    <glyph glyph-name="j" unicode="j" horiz-adv-x="553" 
d="M457 1082l0.00195312 -1117c0 -65.333 -9.5 -123 -28.5 -173s-46.5 -92 -82.5 -126s-79.5 -59.667 -130.5 -77s-108.5 -26 -172.5 -26c-28.667 0 -55 1.16699 -79 3.5s-50.667 6.83301 -80 13.5v255c17.333 -2.66699 33.166 -4.83398 47.499 -6.50098
s30.166 -2.5 47.499 -2.5c45.333 0 80 11.333 104 34s36 57.667 36 105v1117h338zM94.002 1361c0 24 4.5 46 13.5 66s21.833 37.333 38.5 52s36.5 26 59.5 34s48.167 12 75.5 12c28 0 53.333 -4 76 -12s42.334 -19.333 59.001 -34s29.5 -32 38.5 -52s13.5 -42 13.5 -66
s-4.5 -46 -13.5 -66s-21.833 -37.333 -38.5 -52s-36.334 -26 -59.001 -34s-48 -12 -76 -12c-27.333 0 -52.5 4 -75.5 12s-42.833 19.333 -59.5 34s-29.5 32 -38.5 52s-13.5 42 -13.5 66z" />
    <glyph glyph-name="k" unicode="k" horiz-adv-x="1120" 
d="M529 403l-95 -95v-308h-337v1537h337v-816l34 45l254 316h404l-379 -445l404 -637h-386z" />
    <glyph glyph-name="l" unicode="l" horiz-adv-x="563" 
d="M450 0h-338v1536h338v-1536z" />
    <glyph glyph-name="m" unicode="m" horiz-adv-x="1764" 
d="M413 1082l11.001 -126.999c36 46 79.5 82 130.5 108s110.5 39 178.5 39c63.333 0 119 -12.833 167 -38.5s84.667 -67.167 110 -124.5c34.667 51.333 78.334 91.333 131.001 120s115 43 187 43c49.333 0 94.666 -7.16699 135.999 -21.5s77 -38 107 -71
s53.333 -76.333 70 -130s25 -119.834 25 -198.501v-681h-338v681c0 33.333 -3 60.5 -9 81.5s-14.5 37.333 -25.5 49s-24.667 19.667 -41 24s-34.5 6.5 -54.5 6.5c-34.667 0 -64.334 -7.83301 -89.001 -23.5s-44.667 -37.5 -60 -65.5c0.666992 -5.33301 1 -10.5 1 -15.5
v-15.5v-722h-338v679c0 34 -2.83301 61.667 -8.5 83s-14 38 -25 50s-24.667 20 -41 24s-34.833 6 -55.5 6c-32.667 0 -61.5 -7.83301 -86.5 -23.5s-45.5 -37.5 -61.5 -65.5v-753h-337v1082h316z" />
    <glyph glyph-name="n" unicode="n" horiz-adv-x="1155" 
d="M404 1082l11.001 -127c36.667 48 81.167 84.5 133.5 109.5s110.833 37.5 175.5 37.5c50 0 95.833 -7.16699 137.5 -21.5s77.5 -38 107.5 -71s53.167 -76.333 69.5 -130s24.5 -119.834 24.5 -198.501v-681h-338v682c0 32.667 -3.5 59.334 -10.5 80.001s-17 37 -30 49
s-29 20.167 -48 24.5s-40.5 6.5 -64.5 6.5c-36 0 -65.833 -7 -89.5 -21s-42.834 -33 -57.501 -57v-764h-337v1082h316z" />
    <glyph glyph-name="o" unicode="o" horiz-adv-x="1150" 
d="M52 551c0 78.667 11.333 151.667 34 219s56 125.666 100 174.999s98.5 87.833 163.5 115.5s139.5 41.5 223.5 41.5c85.333 0 160.5 -13.833 225.5 -41.5s119.5 -66.167 163.5 -115.5s77.333 -107.666 100 -174.999s34 -140.333 34 -219v-21
c0 -79.333 -11.167 -152.5 -33.5 -219.5s-55.5 -125 -99.5 -174s-98.5 -87.333 -163.5 -115s-139.833 -41.5 -224.5 -41.5s-159.5 13.833 -224.5 41.5s-119.667 66 -164 115s-77.833 107 -100.5 174s-34 140.167 -34 219.5v21zM389 530c0 -40.667 2.83301 -78.667 8.5 -114
s15.667 -66 30 -92s33.5 -46.5 57.5 -61.5s54 -22.5 90 -22.5c35.333 0 64.833 7.5 88.5 22.5s42.5 35.5 56.5 61.5s24 56.667 30 92s9 73.333 9 114v21c0 39.333 -2.83301 76.666 -8.5 111.999s-15.667 66.166 -30 92.499s-33.5 47.333 -57.5 63s-54 23.5 -90 23.5
c-35.333 0 -64.833 -7.83301 -88.5 -23.5s-42.5 -36.667 -56.5 -63s-24 -57.166 -30 -92.499s-9 -72.666 -9 -111.999v-21z" />
    <glyph glyph-name="p" unicode="p" horiz-adv-x="1153" 
d="M1099 533c0 -78.667 -9 -151.667 -27 -219s-44.833 -125.833 -80.5 -175.5s-79.667 -88.5 -132 -116.5s-112.5 -42 -180.5 -42c-53.333 0 -100 9.66699 -140 29s-75 46 -105 80v-505h-337v1498h315l10 -100c30.667 38 66.667 67.5 108 88.5s90.333 31.5 147 31.5
c68.667 0 129.334 -13.167 182.001 -39.5s96.667 -63.5 132 -111.5s62.166 -105.667 80.499 -173s27.5 -142 27.5 -224v-21zM762 554c0 42 -2.99902 80.6699 -8.99902 116.003s-15.5 65.666 -28.5 90.999s-30.333 45.166 -52 59.499s-47.834 21.5 -78.501 21.5
c-41.333 0 -75 -7.16699 -101 -21.5s-45.667 -35.833 -59 -64.5v-426c14 -28.667 34 -50.834 60 -66.501s60 -23.5 102 -23.5c32 0 58.5 7.66699 79.5 23s38 36.166 51 62.499s22.167 57.333 27.5 93s8 73.834 8 114.501v21z" />
    <glyph glyph-name="q" unicode="q" horiz-adv-x="1151" 
d="M52 552c0 82 9.00098 156.834 27.001 224.501s44.833 125.667 80.5 174s79.667 85.666 132 111.999s112.833 39.5 181.5 39.5c59.333 0 110.666 -12 153.999 -36s80.666 -57.333 111.999 -100l24 116h292v-1498h-338v506c-30.667 -34.667 -66 -61.667 -106 -81
s-86.667 -29 -140 -29c-68 0 -128.167 14 -180.5 42s-96.166 66.5 -131.499 115.5s-62 107.167 -80 174.5s-27 140.333 -27 219v21zM389.001 531.001c0 -40.667 2.66699 -78.668 8 -114.001s14.5 -66.166 27.5 -92.499s30.333 -47 52 -62s48.5 -22.5 80.5 -22.5
c41.333 0 74.833 7.66699 100.5 23s45.5 37 59.5 65v428c-14 28.667 -33.667 50.167 -59 64.5s-58.333 21.5 -99 21.5c-31.333 0 -57.833 -7.16699 -79.5 -21.5s-39.167 -34.5 -52.5 -60.5s-23 -56.667 -29 -92s-9 -74 -9 -116v-21z" />
    <glyph glyph-name="r" unicode="r" horiz-adv-x="776" 
d="M749 777l-24.501 2.5c-9.66699 1 -19.667 1.83301 -30 2.5l-30.5 2c-10 0.666992 -18.667 1 -26 1c-54 0 -97.667 -8.16699 -131 -24.5s-57.666 -41.5 -72.999 -75.5v-685h-337v1082h316l11 -139c26.667 50 59.834 89 99.501 117s85.5 42 137.5 42
c16.667 0 33.167 -1 49.5 -3s31.166 -5 44.499 -9z" />
    <glyph glyph-name="s" unicode="s" horiz-adv-x="1049" 
d="M661 304c0 14 -3.16797 26.333 -9.50098 37s-17.5 20.834 -33.5 30.501s-37.667 18.834 -65 27.501s-62 17.667 -104 27c-52.667 11.333 -102.167 26.166 -148.5 44.499s-86.666 41 -120.999 68s-61.333 58.833 -81 95.5s-29.5 78.667 -29.5 126
c0 46 9.83301 89.667 29.5 131s48.5 77.666 86.5 108.999s84.667 56.166 140 74.499s118.333 27.5 189 27.5c72.667 0 138.334 -8.66699 197.001 -26s108.5 -41.5 149.5 -72.5s72.5 -68 94.5 -111s33 -90.5 33 -142.5h-338c0 41.333 -10.333 73.333 -31 96s-56 34 -106 34
c-17.333 0 -33.5 -2.5 -48.5 -7.5s-28.167 -12 -39.5 -21s-20.333 -19.833 -27 -32.5s-10 -26.667 -10 -42c0 -29.333 14.167 -53.333 42.5 -72s74.166 -34 137.499 -46c54.667 -10 107.167 -22.833 157.5 -38.5s94.833 -36.667 133.5 -63s69.5 -59.166 92.5 -98.499
s34.5 -87.666 34.5 -144.999c0 -48 -11 -92.333 -33 -133s-53.5 -75.834 -94.5 -105.501s-90.5 -53 -148.5 -70s-123.333 -25.5 -196 -25.5c-78 0 -146.833 11 -206.5 33s-109.667 50.5 -150 85.5s-70.833 74.333 -91.5 118s-31 87.167 -31 130.5h315
c1.33301 -50 18 -86.5 50 -109.5s73 -34.5 123 -34.5c46 0 80.5 9.33301 103.5 28s34.5 43 34.5 73z" />
    <glyph glyph-name="t" unicode="t" horiz-adv-x="703" 
d="M487 1351v-269.001h178v-234h-178v-495c0 -21.333 1.83301 -39 5.5 -53s9.66699 -25.167 18 -33.5s19.5 -14.166 33.5 -17.499s31.333 -5 52 -5c19.333 0 35.333 0.5 48 1.5s24.667 2.5 36 4.5v-241c-29.333 -9.33301 -59.333 -16.5 -90 -21.5s-64 -7.5 -100 -7.5
c-54 0 -102.167 6.16699 -144.5 18.5s-78 31.833 -107 58.5s-51 61 -66 103s-22.5 92.333 -22.5 151v537h-138v234h138v269h337z" />
    <glyph glyph-name="u" unicode="u" horiz-adv-x="1155" 
d="M739 117c-34 -43.333 -74.999 -77 -122.999 -101s-103.333 -36 -166 -36c-53.333 0 -102.166 7.5 -146.499 22.5s-82.333 38.667 -114 71s-56.334 74 -74.001 125s-26.5 112.167 -26.5 183.5v700h337v-702c0 -48 11.5 -83.333 34.5 -106s56.5 -34 100.5 -34
c42 0 76.167 7.33301 102.5 22s47.166 35 62.499 61v759h339v-1082h-316z" />
    <glyph glyph-name="v" unicode="v" horiz-adv-x="1058" 
d="M526 401l171 681h355l-353 -1082h-344l-353 1082h356z" />
    <glyph glyph-name="w" unicode="w" horiz-adv-x="1487" 
d="M1029 444l109 638h323l-255 -1082h-285l-179 642l-180 -642h-285l-255 1082h323l107 -653l172 653h235z" />
    <glyph glyph-name="x" unicode="x" horiz-adv-x="1054" 
d="M533 784l157 298h350l-285 -527l299 -555h-352l-170 320l-167 -320h-354l300 555l-284 527h354z" />
    <glyph glyph-name="y" unicode="y" horiz-adv-x="1061" 
d="M527 472l179.995 610h361l-434 -1243c-9.33301 -27.333 -21.666 -57 -36.999 -89s-36.5 -61.833 -63.5 -89.5s-61.167 -50.834 -102.5 -69.501s-93 -28 -155 -28c-16.667 0 -30.5 0.333008 -41.5 1s-21.167 1.83398 -30.5 3.50098s-19.166 3.66699 -29.499 6
s-22.833 5.5 -37.5 9.5v241h43c26.667 0 49.334 2 68.001 6s34.334 10 47.001 18s22.834 17.833 30.501 29.5s14.167 25.167 19.5 40.5l27 72l-376 1092h360z" />
    <glyph glyph-name="z" unicode="z" horiz-adv-x="1054" 
d="M492 260h493v-260h-919v188l480 634h-459v260h887v-182z" />
    <glyph glyph-name="braceleft" unicode="{" horiz-adv-x="665" 
d="M562 -360c-68.667 19.333 -126.001 44.666 -172.001 75.999s-83 67.166 -111 107.499s-47.833 84.333 -59.5 132s-17.5 97.834 -17.5 150.501v203c0 30 -3.16699 57 -9.5 81s-16 44.5 -29 61.5s-29.667 30.167 -50 39.5s-44.833 14 -73.5 14v227
c56.667 0 97.834 17.833 123.501 53.5s38.5 83.5 38.5 143.5v203c0 52.667 5.83301 102.834 17.5 150.501s31.5 91.667 59.5 132s65 76 111 107s103.333 56.167 172 75.5l63 -176c-26 -10 -47.333 -24.333 -64 -43s-30 -40.5 -40 -65.5s-17 -52.833 -21 -83.5s-6 -63 -6 -97
v-203c0 -66.667 -14.667 -127 -44 -181s-76.333 -97 -141 -129c64.667 -32 111.667 -75.167 141 -129.5s44 -114.5 44 -180.5v-203c0 -34 2 -66.333 6 -97s11 -58.5 21 -83.5s23.333 -46.833 40 -65.5s38 -33 64 -43z" />
    <glyph glyph-name="bar" unicode="|" horiz-adv-x="523" 
d="M356 -270h-184v1726h184v-1726z" />
    <glyph glyph-name="braceright" unicode="}" horiz-adv-x="665" 
d="M41 -183c26 10 47.332 24.333 63.999 43s30 40.5 40 65.5s17 52.833 21 83.5s6 63 6 97v203c0 66.667 14.667 127 44 181s76.666 97 141.999 129c-65.333 32 -112.666 75 -141.999 129s-44 114.333 -44 181v203c0 34 -2 66.333 -6 97s-11 58.5 -21 83.5
s-23.333 46.833 -40 65.5s-38 33 -64 43l63 176c68.667 -19.333 126 -44.5 172 -75.5s83 -66.667 111 -107s47.833 -84.333 59.5 -132s17.5 -97.834 17.5 -150.501v-203c0 -30 3.16699 -57.167 9.5 -81.5s16 -45 29 -62s29.667 -30.167 50 -39.5s44.833 -14 73.5 -14v-227
c-57.333 0 -98.666 -17.833 -123.999 -53.5s-38 -83.167 -38 -142.5v-203c0 -52.667 -5.83301 -102.834 -17.5 -150.501s-31.5 -91.667 -59.5 -132s-65 -76.166 -111 -107.499s-103.333 -56.666 -172 -75.999z" />
    <glyph glyph-name="asciitilde" unicode="~" horiz-adv-x="1295" 
d="M1197 799c0 -67.333 -8.16895 -127.668 -24.502 -181.001s-39.333 -98.666 -69 -135.999s-65 -65.833 -106 -85.5s-85.833 -29.5 -134.5 -29.5c-26 0 -50.333 2.5 -73 7.5s-44.667 12.833 -66 23.5s-42.666 24.167 -63.999 40.5s-43.333 35.833 -66 58.5
c-26 26 -50.333 45.667 -73 59s-46.667 20 -72 20c-17.333 0 -33.166 -4.5 -47.499 -13.5s-26.666 -21.167 -36.999 -36.5s-18.333 -33.333 -24 -54s-8.5 -43 -8.5 -67l-238 4c0 68 8.16699 128.5 24.5 181.5s39 97.667 68 134s63.833 64 104.5 83s85.667 28.5 135 28.5
c52 0 99.667 -10.5 143 -31.5s86.333 -53.5 129 -97.5c25.333 -26 49.5 -45.667 72.5 -59s46.167 -20 69.5 -20c17.333 0 33.166 4.5 47.499 13.5s26.5 21.167 36.5 36.5s17.833 33.5 23.5 54.5s8.5 43.5 8.5 67.5z" />
    <glyph glyph-name="uni0400" unicode="&#x400;" horiz-adv-x="1146" 
d="M1013 617h-552v-347h652v-270h-1003v1456h1005v-271h-654v-307h552v-261zM804 1532h-274l-282 314h356z" />
    <glyph glyph-name="uni0401" unicode="&#x401;" horiz-adv-x="1146" 
d="M1013 617h-552v-347h652v-270h-1003v1456h1005v-271h-654v-307h552v-261zM229 1675c0 18.667 4 36.167 12 52.5s18.833 30.5 32.5 42.5s29.667 21.333 48 28s37.833 10 58.5 10s40 -3.33301 58 -10s33.833 -16 47.5 -28s24.5 -26.167 32.5 -42.5s12 -33.833 12 -52.5
s-4 -36.167 -12 -52.5s-18.833 -30.5 -32.5 -42.5s-29.5 -21.333 -47.5 -28s-37.333 -10 -58 -10s-40.167 3.33301 -58.5 10s-34.333 16 -48 28s-24.5 26.167 -32.5 42.5s-12 33.833 -12 52.5zM748 1675c0 18.667 4 36.167 12 52.5s18.833 30.5 32.5 42.5
s29.667 21.333 48 28s37.833 10 58.5 10s40 -3.33301 58 -10s33.833 -16 47.5 -28s24.5 -26.167 32.5 -42.5s12 -33.833 12 -52.5s-4 -36.167 -12 -52.5s-18.833 -30.5 -32.5 -42.5s-29.5 -21.333 -47.5 -28s-37.333 -10 -58 -10s-40.167 3.33301 -58.5 10
s-34.333 16 -48 28s-24.5 26.167 -32.5 42.5s-12 33.833 -12 52.5z" />
    <glyph glyph-name="uni0402" unicode="&#x402;" horiz-adv-x="1527" 
d="M1161 1185l-451.001 0.00390625v-313c35.333 7.33301 71.666 13.166 108.999 17.499s75.333 6.5 114 6.5c79.333 0 152.666 -8.83301 219.999 -26.5s125.333 -44.834 174 -81.501s86.667 -83.334 114 -140.001s41 -124 41 -202c0 -33.333 -3.66699 -68 -11 -104
s-19.833 -71.333 -37.5 -106s-41 -67.5 -70 -98.5s-65.167 -58.167 -108.5 -81.5s-94.333 -41.833 -153 -55.5s-126.667 -20.5 -204 -20.5v253c58 0 102.833 7.16699 134.5 21.5s54.834 31.666 69.501 51.999s23.334 41.333 26.001 63s4 39.5 4 53.5c0 30 -5 57.5 -15 82.5
s-24.5 46.5 -43.5 64.5s-42.333 32 -70 42s-58.5 15 -92.5 15c-41.333 0 -77.666 -1.33301 -108.999 -4s-62 -6.66699 -92 -12v-611h-351v1185h-336v271h1138v-271z" />
    <glyph glyph-name="uni0403" unicode="&#x403;" horiz-adv-x="1142" 
d="M1092 1185h-633v-1185h-351v1456h984v-271zM653 1846h356l-278 -314h-275z" />
    <glyph glyph-name="uni0404" unicode="&#x404;" horiz-adv-x="1331" 
d="M1288 492c-4 -76 -20.8359 -145.501 -50.5029 -208.501s-70.5 -117 -122.5 -162s-114.167 -80 -186.5 -105s-153.166 -37.5 -242.499 -37.5c-97.333 0 -184.166 16.333 -260.499 49s-141 79.5 -194 140.5s-93.333 135.333 -121 223s-41.5 186.167 -41.5 295.5v78
c0 110 14.5 208.833 43.5 296.5s70.167 162.167 123.5 223.5s117.666 108.5 192.999 141.5s159.333 49.5 252 49.5c94.667 0 178.5 -13.167 251.5 -39.5s134.667 -62.833 185 -109.5s89.833 -102 118.5 -166s46.667 -133.667 54 -209h-350
c-1.33301 40.667 -6.83301 76.834 -16.5 108.501s-24.667 58.167 -45 79.5s-46.666 37.5 -78.999 48.5s-71.833 16.5 -118.5 16.5c-38.667 0 -73.167 -6.5 -103.5 -19.5s-56.333 -33.333 -78 -61s-39.167 -63.167 -52.5 -106.5s-22 -95 -26 -155h386v-271h-386
c4 -60 12 -111.667 24 -155s28.667 -79 50 -107s47.833 -48.667 79.5 -62s68.834 -20 111.501 -20c80 0 141.333 20 184 60s65 101.333 67 184h351z" />
    <glyph glyph-name="uni0405" unicode="&#x405;" horiz-adv-x="1282" 
d="M861 387c0 22.667 -3.16992 43.1768 -9.50293 61.5098s-18.833 35.666 -37.5 51.999s-44.834 32.5 -78.501 48.5s-77.834 33 -132.501 51c-64 21.333 -125.667 45.333 -185 72s-112 58.334 -158 95.001s-82.833 79.5 -110.5 128.5s-41.5 106.167 -41.5 171.5
c0 62.667 14 119.167 42 169.5s67 93.166 117 128.499s109.167 62.666 177.5 81.999s142.833 29 223.5 29c79.333 0 152.333 -10.667 219 -32s124 -51.666 172 -90.999s85.5 -86.833 112.5 -142.5s40.5 -117.834 40.5 -186.501h-350c0 27.333 -4.16699 52.5 -12.5 75.5
s-21 42.667 -38 59s-38 29.166 -63 38.499s-54.5 14 -88.5 14c-33.333 0 -62.666 -3.83301 -87.999 -11.5s-46.5 -18.334 -63.5 -32.001s-29.833 -29.334 -38.5 -47.001s-13 -36.5 -13 -56.5c0 -22 6.16699 -41.833 18.5 -59.5s30 -34.334 53 -50.001s51 -30.334 84 -44.001
s70.167 -27.167 111.5 -40.5c77.333 -24.667 146.333 -52 207 -82s111.834 -64.333 153.501 -103s73.334 -82.334 95.001 -131.001s32.5 -103.667 32.5 -165c0 -65.333 -12.833 -123.5 -38.5 -174.5s-62 -93.833 -109 -128.5s-103.667 -61 -170 -79
s-140.166 -27 -221.499 -27c-50 0 -99.667 4.16699 -149 12.5s-96.5 21.166 -141.5 38.499s-87 39.166 -126 65.499s-72.667 57.833 -101 94.5s-50.666 78.334 -66.999 125.001s-24.5 98.667 -24.5 156h352c0 -42.667 5.66699 -78.5 17 -107.5s28 -52.5 50 -70.5
s48.833 -30.833 80.5 -38.5s68.167 -11.5 109.5 -11.5c33.333 0 61.833 3.83301 85.5 11.5s43.167 18 58.5 31s26.5 28.167 33.5 45.5s10.5 35.666 10.5 54.999z" />
    <glyph glyph-name="uni0406" unicode="&#x406;" horiz-adv-x="618" 
d="M484 0h-350v1456h350v-1456z" />
    <glyph glyph-name="uni0407" unicode="&#x407;" horiz-adv-x="618" 
d="M484 0h-350v1456h350v-1456zM-105 1675c0 18.667 4 36.167 12 52.5s18.833 30.5 32.5 42.5s29.667 21.333 48 28s37.833 10 58.5 10s40 -3.33301 58 -10s33.833 -16 47.5 -28s24.5 -26.167 32.5 -42.5s12 -33.833 12 -52.5s-4 -36.167 -12 -52.5
s-18.833 -30.5 -32.5 -42.5s-29.5 -21.333 -47.5 -28s-37.333 -10 -58 -10s-40.167 3.33301 -58.5 10s-34.333 16 -48 28s-24.5 26.167 -32.5 42.5s-12 33.833 -12 52.5zM414 1675c0 18.667 4 36.167 12 52.5s18.833 30.5 32.5 42.5s29.667 21.333 48 28s37.833 10 58.5 10
s40 -3.33301 58 -10s33.833 -16 47.5 -28s24.5 -26.167 32.5 -42.5s12 -33.833 12 -52.5s-4 -36.167 -12 -52.5s-18.833 -30.5 -32.5 -42.5s-29.5 -21.333 -47.5 -28s-37.333 -10 -58 -10s-40.167 3.33301 -58.5 10s-34.333 16 -48 28s-24.5 26.167 -32.5 42.5
s-12 33.833 -12 52.5z" />
    <glyph glyph-name="uni0408" unicode="&#x408;" horiz-adv-x="1151" 
d="M690 1456l349.996 -0.00292969v-999c0 -73.333 -13 -139.333 -39 -198s-61.5 -108.667 -106.5 -150s-98 -73.166 -159 -95.499s-126.833 -33.5 -197.5 -33.5c-73.333 0 -140.666 9.16699 -201.999 27.5s-114.166 46.333 -158.499 84s-79 85.334 -104 143.001
s-37.5 126.167 -37.5 205.5h352c0 -37.333 3.33301 -68.166 10 -92.499s16.334 -43.666 29.001 -57.999s28.334 -24.5 47.001 -30.5s40 -9 64 -9c48.667 0 86.167 18.167 112.5 54.5s39.5 87.166 39.5 152.499v999z" />
    <glyph glyph-name="uni0409" unicode="&#x409;" horiz-adv-x="2148" 
d="M1335 1456l0.000976562 -471h181c88 0 167.833 -12.333 239.5 -37s132.834 -58.834 183.501 -102.501s89.834 -95.667 117.501 -156s41.5 -125.833 41.5 -196.5c0 -71.333 -13.833 -137.166 -41.5 -197.499s-66.834 -112.333 -117.501 -156
s-111.834 -77.834 -183.501 -102.501s-151.5 -37 -239.5 -37h-532v1185h-312v-373c0 -153.333 -13.833 -282 -41.5 -386s-67.334 -187.5 -119.001 -250.5s-114.5 -108 -188.5 -135s-157.667 -40.5 -251 -40.5h-36v270h39c52 0 94 8.83301 126 26.5
s56.833 47.334 74.5 89.001s29.5 97.167 35.5 166.5s9 156 9 260v644h1015zM1335 715v-444.999h181c37.333 0 70.333 6.16699 99 18.5s52.834 28.666 72.501 48.999s34.5 44.166 44.5 71.499s15 56 15 86c0 28.667 -5 56.334 -15 83.001s-24.833 50.167 -44.5 70.5
s-43.834 36.5 -72.501 48.5s-61.667 18 -99 18h-181z" />
    <glyph glyph-name="uni040A" unicode="&#x40a;" horiz-adv-x="2144" 
d="M459 847l522 -0.000976562v609h350v-466h181c88.667 0 168.667 -12.5 240 -37.5s132.333 -59.5 183 -103.5s89.667 -96.167 117 -156.5s41 -126.166 41 -197.499c0 -72 -13.667 -138.167 -41 -198.5s-66.333 -112.5 -117 -156.5s-111.667 -78.333 -183 -103
s-151.333 -37 -240 -37h-531v577h-522v-577h-351v1456h351v-609zM1331 719.999v-452h181c37.333 0 70.5 6.33301 99.5 19s53.333 29.5 73 50.5s34.5 45.333 44.5 73s15 56.5 15 86.5c0 28.667 -5 56.5 -15 83.5s-24.833 50.833 -44.5 71.5s-44 37.167 -73 49.5
s-62.167 18.5 -99.5 18.5h-181z" />
    <glyph glyph-name="uni040B" unicode="&#x40b;" horiz-adv-x="1531" 
d="M1118 1185l-435.999 0.000976562v-257c16.667 2 33 3.66699 49 5s31 2.5 45 3.5s26.5 1.66699 37.5 2s19.5 0.5 25.5 0.5c91.333 0 174.166 -9.83301 248.499 -29.5s138 -49.834 191 -90.501s94 -92.167 123 -154.5s43.5 -135.833 43.5 -220.5v-443h-350v443
c0 44 -5.33301 80.333 -16 109s-26.667 51.667 -48 69s-48 29.5 -80 36.5s-69.333 10.5 -112 10.5c-15.333 0 -37.5 -1 -66.5 -3s-59.167 -4.66699 -90.5 -8v-658h-351v1185h-315v271h1102v-271z" />
    <glyph glyph-name="uni040C" unicode="&#x40c;" horiz-adv-x="1310" 
d="M605 542l-144 -158v-384h-351v1456h351v-642l122 185l314 457h434l-492 -644l492 -812h-416zM635 1846h356l-278 -314h-275z" />
    <glyph glyph-name="uni040D" unicode="&#x40d;" horiz-adv-x="1419" 
d="M964 1456h351v-1456h-351v918l-523 -918h-351v1456h351v-919zM865 1532h-274l-282 314h356z" />
    <glyph glyph-name="uni040E" unicode="&#x40e;" horiz-adv-x="1295" 
d="M675 824v-1.00098l241 633h370l-490 -1155c-19.333 -42.667 -41 -83.5 -65 -122.5s-52.667 -73.167 -86 -102.5s-72.333 -52.833 -117 -70.5s-97 -26.5 -157 -26.5h-54c-20.667 0 -38.667 0.666992 -54 2l-6 272c4 -1.33301 9.33301 -2.16602 16 -2.49902l20 -1
c6.66699 -0.333008 13 -0.5 19 -0.5h15c30 0 55.167 2.66699 75.5 8s37.5 13.5 51.5 24.5s25.5 24.833 34.5 41.5s17.167 36.667 24.5 60l17 48l-526 1025h373zM1051 1848c0 -45.333 -8.66504 -86.833 -25.998 -124.5s-42 -70 -74 -97s-70.833 -48 -116.5 -63
s-96.834 -22.5 -153.501 -22.5s-107.834 7.5 -153.501 22.5s-84.5 36 -116.5 63s-56.667 59.333 -74 97s-26 79.167 -26 124.5h229c0 -16.667 2.5 -32.667 7.5 -48s13.167 -28.833 24.5 -40.5s25.833 -21 43.5 -28s39.5 -10.5 65.5 -10.5s47.833 3.5 65.5 10.5
s32 16.333 43 28s18.833 25.167 23.5 40.5s7 31.333 7 48h231z" />
    <glyph glyph-name="uni040F" unicode="&#x40f;" horiz-adv-x="1419" 
d="M890 270h68v1186h352v-1456h-420v-360h-352v360h-452v1456h349v-1186h103v1h352v-1z" />
    <glyph glyph-name="uni0410" unicode="&#x410;" horiz-adv-x="1395" 
d="M937 272h-481l-84 -272h-375l534 1456h330l538 -1456h-377zM540 543h313l-157 505z" />
    <glyph glyph-name="uni0411" unicode="&#x411;" horiz-adv-x="1279" 
d="M1094 1185l-631 -0.000976562v-230h180c88.667 0 168.834 -11.333 240.501 -34s132.834 -54.5 183.501 -95.5s89.834 -90.667 117.501 -149s41.5 -122.833 41.5 -193.5c0 -71.333 -13.833 -136.666 -41.5 -195.999s-66.834 -110.333 -117.501 -153
s-111.834 -75.667 -183.501 -99s-151.834 -35 -240.501 -35h-533v1456h984v-271zM463 684.999v-415h180c37.333 0 70.5 5.5 99.5 16.5s53.333 26.333 73 46s34.5 42.5 44.5 68.5s15 54 15 84c0 28.667 -5 55.167 -15 79.5s-24.833 45.5 -44.5 63.5s-44 32 -73 42
s-62.167 15 -99.5 15h-180z" />
    <glyph glyph-name="uni0412" unicode="&#x412;" horiz-adv-x="1321" 
d="M110 0l-0.000976562 1456h523c90 0 170.5 -8.16699 241.5 -24.5s131.167 -41.166 180.5 -74.499s87 -75.166 113 -125.499s39 -109.5 39 -177.5c0 -33.333 -3.66699 -65.5 -11 -96.5s-19.166 -60.167 -35.499 -87.5s-37.5 -51.833 -63.5 -73.5s-57.667 -39.5 -95 -53.5
c43.333 -11.333 80 -27.666 110 -48.999s54.333 -46 73 -74s32.167 -58.167 40.5 -90.5s12.5 -65.166 12.5 -98.499c0 -144 -46 -251.833 -138 -323.5s-228.333 -107.5 -409 -107.5h-581zM460.999 618.996v-349.002h230c35.333 0 65.5 4.33301 90.5 13s45.333 20.5 61 35.5
s27.167 32.5 34.5 52.5s11 41.667 11 65c0 28 -3.33301 53.333 -10 76s-17.334 41.834 -32.001 57.501s-33.667 27.834 -57 36.501s-51.666 13 -84.999 13h-243zM460.999 848.994l182.999 0.000976562c76.667 0.666992 131.334 14.667 164.001 42s49 67.666 49 120.999
c0 61.333 -17.667 105.5 -53 132.5s-92.333 40.5 -171 40.5h-172v-336z" />
    <glyph glyph-name="uni0413" unicode="&#x413;" horiz-adv-x="1142" 
d="M1092 1185h-633v-1185h-351v1456h984v-271z" />
    <glyph glyph-name="uni0414" unicode="&#x414;" horiz-adv-x="1520" 
d="M1472 -358l-315.001 0.000976562v358h-793v-357h-325l-25 627h103c20.667 14.667 41.834 34.167 63.501 58.5s42 58.666 61 102.999s35.5 100.833 49.5 169.5s23 154.667 27 258l45 597h991v-1186h155zM667.999 859.001c-2.66699 -74 -8.33008 -140.667 -16.9971 -200
s-19.334 -112.833 -32.001 -160.5s-27.334 -90.167 -44.001 -127.5s-34.334 -71 -53.001 -101h482v915h-311z" />
    <glyph glyph-name="uni0415" unicode="&#x415;" horiz-adv-x="1146" 
d="M1013 617h-552v-347h652v-270h-1003v1456h1005v-271h-654v-307h552v-261z" />
    <glyph glyph-name="uni0416" unicode="&#x416;" horiz-adv-x="2136" 
d="M1435 569h-178v-569h-349v569h-181l-280 -569h-436l439 795l-426 661h443l298 -571h143v571h349v-571h142l285 571h442l-415 -659l430 -797h-438z" />
    <glyph glyph-name="uni0417" unicode="&#x417;" horiz-adv-x="1289" 
d="M637 873c64.667 0 111.169 15.834 139.502 47.501s42.5 75.5 42.5 131.5c0 20.667 -4 40.167 -12 58.5s-20.167 34.5 -36.5 48.5s-36.833 25.167 -61.5 33.5s-54 12.5 -88 12.5c-26 0 -50.5 -3.16699 -73.5 -9.5s-43 -15.833 -60 -28.5s-30.333 -28 -40 -46
s-14.5 -39 -14.5 -63h-350c0 65.333 14.5 123.833 43.5 175.5s68 95.334 117 131.001s106 63 171 82s133.833 28.5 206.5 28.5c83.333 0 158.833 -8.83301 226.5 -26.5s125.334 -43.834 173.001 -78.501s84.5 -77.834 110.5 -129.501s39 -111.5 39 -179.5
c0 -66.667 -19.5 -127.5 -58.5 -182.5s-92.833 -98.5 -161.5 -130.5c78.667 -28 138.834 -70.5 180.501 -127.5s62.5 -127.833 62.5 -212.5c0 -68 -14.167 -128.5 -42.5 -181.5s-67.833 -97.667 -118.5 -134s-111 -64 -181 -83s-146.667 -28.5 -230 -28.5
c-45.333 0 -90.5 3.5 -135.5 10.5s-88.167 18 -129.5 33s-79.833 33.833 -115.5 56.5s-66.834 49.667 -93.501 81s-47.5 67 -62.5 107s-22.5 85 -22.5 135h352c0 -22 5.16699 -42.333 15.5 -61s24.666 -35 42.999 -49s40.166 -24.833 65.499 -32.5s53 -11.5 83 -11.5
c34.667 0 65.667 4.33301 93 13s50.5 20.5 69.5 35.5s33.333 32.5 43 52.5s14.5 41.667 14.5 65c0 72 -17.333 122.833 -52 152.5s-85.334 44.5 -152.001 44.5h-187v260h187z" />
    <glyph glyph-name="uni0418" unicode="&#x418;" horiz-adv-x="1419" 
d="M964 1456h351v-1456h-351v918l-523 -918h-351v1456h351v-919z" />
    <glyph glyph-name="uni0419" unicode="&#x419;" horiz-adv-x="1419" 
d="M964 1456h351v-1456h-351v918l-523 -918h-351v1456h351v-919zM1075 1848c0 -45.333 -8.66504 -86.833 -25.998 -124.5s-42 -70 -74 -97s-70.833 -48 -116.5 -63s-96.834 -22.5 -153.501 -22.5s-107.834 7.5 -153.501 22.5s-84.5 36 -116.5 63s-56.667 59.333 -74 97
s-26 79.167 -26 124.5h229c0 -16.667 2.5 -32.667 7.5 -48s13.167 -28.833 24.5 -40.5s25.833 -21 43.5 -28s39.5 -10.5 65.5 -10.5s47.833 3.5 65.5 10.5s32 16.333 43 28s18.833 25.167 23.5 40.5s7 31.333 7 48h231z" />
    <glyph glyph-name="uni041A" unicode="&#x41a;" horiz-adv-x="1325" 
d="M625 576h-166v-576h-351v1456h351v-563h135l280 563h425l-400 -672l450 -784h-415z" />
    <glyph glyph-name="uni041B" unicode="&#x41b;" horiz-adv-x="1444" 
d="M1335 1456l-0.000976562 -1456h-351v1185h-326l-18 -373c-8 -153.333 -24 -281.833 -48 -385.5s-57.333 -187.167 -100 -250.5s-94.5 -108.5 -155.5 -135.5s-132.5 -40.5 -214.5 -40.5h-86v270h39c31.333 4 57.833 10.5 79.5 19.5s39.834 22.167 54.501 39.5
s26.5 39.166 35.5 65.499s16.167 59 21.5 98s9.5 84.667 12.5 137s6.16699 113.166 9.5 182.499l32 644h1015z" />
    <glyph glyph-name="uni041C" unicode="&#x41c;" horiz-adv-x="1795" 
d="M571 1456l325 -1013l324 1013h462v-1456h-352v340l34 696l-352 -1036h-232l-353 1037l34 -697v-340h-351v1456h461z" />
    <glyph glyph-name="uni041D" unicode="&#x41d;" horiz-adv-x="1439" 
d="M1327 0h-349v608h-517v-608h-351v1456h351v-578h517v578h349v-1456z" />
    <glyph glyph-name="uni041E" unicode="&#x41e;" horiz-adv-x="1414" 
d="M1343 698c0 -111.333 -15.6689 -211.333 -47.002 -300s-75.166 -164 -131.499 -226s-123.333 -109.5 -201 -142.5s-162.834 -49.5 -255.501 -49.5c-94 0 -180.167 16.5 -258.5 49.5s-145.666 80.5 -201.999 142.5s-100.166 137.333 -131.499 226s-47 188.667 -47 300v59
c0 111.333 15.5 211.333 46.5 300s74.667 164 131 226s123.5 109.667 201.5 143s164 50 258 50c92.667 0 178 -16.667 256 -50s145.167 -81 201.5 -143s100.333 -137.333 132 -226s47.5 -188.667 47.5 -300v-59zM985.998 759c0 144.667 -24.166 254.502 -72.499 329.502
s-117.5 112.5 -207.5 112.5c-94 0 -164.167 -37.5 -210.5 -112.5s-69.5 -184.833 -69.5 -329.5v-61c0 -142.667 23.667 -252.334 71 -329.001s117.666 -115 210.999 -115c89.333 0 158 38.167 206 114.5s72 186.166 72 329.499v61z" />
    <glyph glyph-name="uni041F" unicode="&#x41f;" horiz-adv-x="1441" 
d="M1333 0h-351v1185h-523v-1185h-351v1456h1225v-1456z" />
    <glyph glyph-name="uni0420" unicode="&#x420;" horiz-adv-x="1333" 
d="M461 494v-494.001h-351v1456h581c87.333 0 166 -12.333 236 -37s129.333 -59 178 -103s86 -96.167 112 -156.5s39 -126.166 39 -197.499c0 -70.667 -13 -134.667 -39 -192s-63.333 -106.5 -112 -147.5s-108 -72.667 -178 -95s-148.667 -33.5 -236 -33.5h-230z
M461 764.999h230c36.667 0 68.167 4.83301 94.5 14.5s48 23.167 65 40.5s29.5 38 37.5 62s12 50 12 78c0 30 -4 58.5 -12 85.5s-20.5 50.833 -37.5 71.5s-38.667 37.167 -65 49.5s-57.833 18.5 -94.5 18.5h-230v-420z" />
    <glyph glyph-name="uni0421" unicode="&#x421;" horiz-adv-x="1344" 
d="M1288 493c-3.33301 -76 -19.6709 -145.501 -49.0039 -208.501s-70 -117 -122 -162s-114.333 -80 -187 -105s-154 -37.5 -244 -37.5c-97.333 0 -184.166 16.333 -260.499 49s-141 79.5 -194 140.5s-93.333 135.333 -121 223s-41.5 186.167 -41.5 295.5v79
c0 109.333 14.5 207.833 43.5 295.5s70.333 162.167 124 223.5s118.167 108.5 193.5 141.5s159.333 49.5 252 49.5c94.667 0 178.5 -13.167 251.5 -39.5s134.833 -62.833 185.5 -109.5s90.334 -102 119.001 -166s46.334 -133.667 53.001 -209h-350
c-1.33301 40.667 -6.83301 76.667 -16.5 108s-24.834 57.333 -45.501 78s-47 36.334 -79 47.001s-71.333 16 -118 16c-43.333 0 -81 -8 -113 -24s-58.667 -41.333 -80 -76s-37.166 -79.5 -47.499 -134.5s-15.5 -121.167 -15.5 -198.5v-81
c0 -77.333 4.66699 -143.333 14 -198s24.166 -99.5 44.499 -134.5s47 -60.5 80 -76.5s73.5 -24 121.5 -24c80.667 0 142.334 19 185.001 57s65.334 98.333 68.001 181h349z" />
    <glyph glyph-name="uni0422" unicode="&#x422;" horiz-adv-x="1291" 
d="M1253 1185h-437v-1185h-351v1185h-429v271h1217v-271z" />
    <glyph glyph-name="uni0423" unicode="&#x423;" horiz-adv-x="1295" 
d="M675 824v-1.00098l241 633h370l-490 -1155c-19.333 -42.667 -41 -83.5 -65 -122.5s-52.667 -73.167 -86 -102.5s-72.333 -52.833 -117 -70.5s-97 -26.5 -157 -26.5h-54c-20.667 0 -38.667 0.666992 -54 2l-6 272c4 -1.33301 9.33301 -2.16602 16 -2.49902l20 -1
c6.66699 -0.333008 13 -0.5 19 -0.5h15c30 0 55.167 2.66699 75.5 8s37.5 13.5 51.5 24.5s25.5 24.833 34.5 41.5s17.167 36.667 24.5 60l17 48l-526 1025h373z" />
    <glyph glyph-name="uni0424" unicode="&#x424;" horiz-adv-x="1716" 
d="M1030 1332c92.667 -1.33301 177.167 -16.5029 253.5 -45.5029s141.833 -70 196.5 -123s97 -117.167 127 -192.5s45 -159.333 45 -252c0 -90 -15 -171.5 -45 -244.5s-72.333 -135.333 -127 -187s-120.167 -91.667 -196.5 -120s-160.833 -42.833 -253.5 -43.5v-184h-337
v184c-93.333 0.666992 -178.333 14.834 -255 42.501s-142.5 67.334 -197.5 119.001s-97.667 113.834 -128 186.501s-45.5 154.334 -45.5 245.001c0 93.333 15.167 177.666 45.5 252.999s73 139.833 128 193.5s120.833 95 197.5 124s161.667 43.833 255 44.5v184h337v-184z
M398 716.997c0 -52.667 7.16699 -98.3291 21.5 -136.996s34.5 -70.834 60.5 -96.501s57.167 -44.834 93.5 -57.501s76.166 -19.334 119.499 -20.001v644c-43.333 -0.666992 -83.166 -7.83398 -119.499 -21.501s-67.5 -34.167 -93.5 -61.5s-46.167 -61.833 -60.5 -103.5
s-21.5 -90.5 -21.5 -146.5zM1321 719.002c0 56 -7 104.499 -21 145.499s-33.833 75.167 -59.5 102.5s-56.334 47.833 -92.001 61.5s-75.167 20.834 -118.5 21.501v-644c43.333 0.666992 82.833 7.66699 118.5 21s66.334 33 92.001 59s45.5 58.5 59.5 97.5
s21 84.167 21 135.5z" />
    <glyph glyph-name="uni0425" unicode="&#x425;" horiz-adv-x="1307" 
d="M653 972l238 484h401l-407 -722l418 -734h-405l-245 493l-245 -493h-404l417 734l-406 722h400z" />
    <glyph glyph-name="uni0426" unicode="&#x426;" horiz-adv-x="1580" 
d="M86 1456h349v-1186h523v1186h352v-1189h223l-20 -618h-331v351h-1096v1456z" />
    <glyph glyph-name="uni0427" unicode="&#x427;" horiz-adv-x="1431" 
d="M1323 1456v-1456h-350v538c-20.667 -3.33301 -42.834 -6.33301 -66.501 -9s-46.5 -4.83398 -68.5 -6.50098s-41.667 -3 -59 -4s-30 -1.5 -38 -1.5c-92 0 -175.333 9.83301 -250 29.5s-138.5 50 -191.5 91s-94 92.5 -123 154.5s-43.5 135.667 -43.5 221v443h351v-443
c0 -44 5.33301 -80.5 16 -109.5s26.667 -52.167 48 -69.5s48 -29.5 80 -36.5s69.667 -10.5 113 -10.5c10 0 24 0.5 42 1.5s37.833 2.33301 59.5 4s43.834 3.66699 66.501 6s44 5.16602 64 8.49902v649h350z" />
    <glyph glyph-name="uni0428" unicode="&#x428;" horiz-adv-x="1979" 
d="M454 1456v-1186h362v1186h351v-1186h358v1186h349v-1456h-1771v1456h351z" />
    <glyph glyph-name="uni0429" unicode="&#x429;" horiz-adv-x="2143" 
d="M454 1456v-1186h362v1186h351v-1186h358v1186h349v-1197h216l-20 -609h-317v350h-1650v1456h351z" />
    <glyph glyph-name="uni042A" unicode="&#x42a;" horiz-adv-x="1595" 
d="M28 1456l752 -0.000976562v-501h180c88.667 0 168.834 -11.333 240.501 -34s132.834 -54.5 183.501 -95.5s89.834 -90.667 117.501 -149s41.5 -122.833 41.5 -193.5c0 -71.333 -13.833 -136.666 -41.5 -195.999s-66.834 -110.333 -117.501 -153
s-111.834 -75.667 -183.501 -99s-151.834 -35 -240.501 -35h-532v1196h-400v260zM780 684.999v-415h180c37.333 0 70.5 5.5 99.5 16.5s53.333 26.333 73 46s34.5 42.5 44.5 68.5s15 54 15 84c0 28.667 -5 55.167 -15 79.5s-24.833 45.5 -44.5 63.5s-44 32 -73 42
s-62.167 15 -99.5 15h-180z" />
    <glyph glyph-name="uni042B" unicode="&#x42b;" horiz-adv-x="1785" 
d="M461 955l180 -0.000976562c88.667 0 168.834 -11.333 240.501 -34s132.834 -54.5 183.501 -95.5s89.834 -90.667 117.501 -149s41.5 -122.833 41.5 -193.5c0 -71.333 -13.833 -136.666 -41.5 -195.999s-66.834 -110.333 -117.501 -153s-111.834 -75.667 -183.501 -99
s-151.834 -35 -240.501 -35h-532v1456h352v-501zM1680 -0.000976562h-350v1456h350v-1456zM461 684.999v-415h180c37.333 0 70.5 5.5 99.5 16.5s53.333 26.333 73 46s34.5 42.5 44.5 68.5s15 54 15 84c0 28.667 -5 55.167 -15 79.5s-24.833 45.5 -44.5 63.5s-44 32 -73 42
s-62.167 15 -99.5 15h-180z" />
    <glyph glyph-name="uni042C" unicode="&#x42c;" horiz-adv-x="1276" 
d="M463 955l180 -0.000976562c88.667 0 168.834 -11.333 240.501 -34s132.834 -54.5 183.501 -95.5s89.834 -90.667 117.501 -149s41.5 -122.833 41.5 -193.5c0 -71.333 -13.833 -136.666 -41.5 -195.999s-66.834 -110.333 -117.501 -153s-111.834 -75.667 -183.501 -99
s-151.834 -35 -240.501 -35h-532v1456h352v-501zM463 684.999v-415h180c37.333 0 70.5 5.5 99.5 16.5s53.333 26.333 73 46s34.5 42.5 44.5 68.5s15 54 15 84c0 28.667 -5 55.167 -15 79.5s-24.833 45.5 -44.5 63.5s-44 32 -73 42s-62.167 15 -99.5 15h-180z" />
    <glyph glyph-name="uni042D" unicode="&#x42d;" horiz-adv-x="1302" 
d="M367 492c2.66699 -82.667 25.1631 -143.999 67.4961 -183.999s103.833 -60 184.5 -60c42.667 0 79.667 6.66699 111 20s57.833 34 79.5 62s38.334 63.667 50.001 107s19.5 95.333 23.5 156h-402v271h402c-9.33301 120 -35.666 206.833 -78.999 260.5
s-103.333 80.5 -180 80.5c-46.667 0 -86.167 -5.5 -118.5 -16.5s-58.833 -27.167 -79.5 -48.5s-35.834 -47.833 -45.501 -79.5s-15.167 -67.834 -16.5 -108.501h-349c6.66699 75.333 24.334 145 53.001 209s68.334 119.333 119.001 166s112.334 83.167 185.001 109.5
s156.667 39.5 252 39.5c92.667 0 176.667 -16.5 252 -49.5s139.666 -80.167 192.999 -141.5s94.5 -135.833 123.5 -223.5s43.5 -186.5 43.5 -296.5v-78c0 -109.333 -13.833 -207.833 -41.5 -295.5s-68 -162 -121 -223s-117.667 -107.833 -194 -140.5
s-163.166 -49 -260.499 -49c-89.333 0 -170.333 12.5 -243 37.5s-135 60 -187 105s-92.667 99 -122 162s-46 132.5 -50 208.5h350z" />
    <glyph glyph-name="uni042E" unicode="&#x42e;" horiz-adv-x="1991" 
d="M1889 698c0 -111.333 -15.6621 -211.333 -46.9951 -300s-75.166 -164 -131.499 -226s-123.333 -109.5 -201 -142.5s-162.834 -49.5 -255.501 -49.5c-84 0 -161.833 13.167 -233.5 39.5s-134.834 64.5 -189.501 114.5s-99.834 111 -135.501 183s-59.5 153.333 -71.5 244
h-151v-561h-350v1456h350v-634h144c6 101.333 25.667 192.5 59 273.5s77.666 149.667 132.999 206s120.666 99.5 195.999 129.5s157.666 45 246.999 45c92.667 0 178 -16.667 256 -50s145.167 -81 201.5 -143s100.333 -137.333 132 -226s47.5 -188.667 47.5 -300v-59z
M1532 759c0 144.667 -24.166 254.502 -72.499 329.502s-117.5 112.5 -207.5 112.5c-94 0 -164.167 -37.5 -210.5 -112.5s-69.5 -184.833 -69.5 -329.5v-61c0 -142.667 23.667 -252.334 71 -329.001s117.666 -115 210.999 -115c89.333 0 158 38.167 206 114.5
s72 186.166 72 329.499v61z" />
    <glyph glyph-name="uni042F" unicode="&#x42f;" horiz-adv-x="1172" 
d="M737 0l0.000976562 510.999h-202l-246 -511h-381l299 630c-64.667 42 -113.334 93.667 -146.001 155s-49 134 -49 218c0 74.667 12.667 140.334 38 197.001s61.666 104 108.999 142s104.833 66.5 172.5 85.5s143.834 28.5 228.501 28.5h529v-1456h-352zM362.001 971.999
c0 -40 4.16797 -73.501 12.501 -100.501s20.666 -48.667 36.999 -65s36.833 -28 61.5 -35s53.667 -10.5 87 -10.5h177v424h-177c-70 0 -120.5 -18.167 -151.5 -54.5s-46.5 -89.166 -46.5 -158.499z" />
    <glyph glyph-name="uni0430" unicode="&#x430;" horiz-adv-x="1087" 
d="M704 0c-7.33301 13.333 -13.499 28.168 -18.499 44.501s-9.5 33.833 -13.5 52.5c-26 -32.667 -59.667 -60.334 -101 -83.001s-94.333 -34 -159 -34c-50 0 -97.167 8 -141.5 24s-83.166 38.167 -116.499 66.5s-59.833 62.5 -79.5 102.5s-29.5 84 -29.5 132
c0 56 10.167 106 30.5 150s51.333 81.167 93 111.5s94.334 53.666 158.001 69.999s139.167 24.5 226.5 24.5h104v57c0 46 -10 82.333 -30 109s-53 40 -99 40c-38.667 0 -68.334 -9.66699 -89.001 -29s-31 -49 -31 -89h-337c0 50 11.167 96.667 33.5 140
s54.166 80.666 95.499 111.999s91.166 56 149.499 74s123.5 27 195.5 27c64.667 0 124.5 -8 179.5 -24s102.5 -40.167 142.5 -72.5s71.333 -72.666 94 -120.999s34 -104.5 34 -168.5v-443c0 -35.333 1 -66 3 -92s5 -48.833 9 -68.5s8.83301 -37.167 14.5 -52.5
s12.167 -29.666 19.5 -42.999v-17h-337zM493.001 220.002c42 0 76.833 9.00098 104.5 27.001s47.5 38.333 59.5 61v173h-106c-31.333 0 -57.833 -4.33301 -79.5 -13s-39 -20.334 -52 -35.001s-22.333 -31.5 -28 -50.5s-8.5 -38.833 -8.5 -59.5
c0 -30.667 10.333 -55.5 31 -74.5s47 -28.5 79 -28.5z" />
    <glyph glyph-name="uni0431" unicode="&#x431;" horiz-adv-x="1183" 
d="M663 1022c74.667 0 140.667 -12.8389 198 -38.5059s105.5 -61.334 144.5 -107.001s68.5 -99.667 88.5 -162s30 -130.166 30 -203.499v-21c0 -73.333 -11.333 -141.333 -34 -204s-56 -116.667 -100 -162s-98.5 -80.833 -163.5 -106.5s-139.833 -38.5 -224.5 -38.5
c-85.333 0 -160.5 14.333 -225.5 43s-119.833 68.334 -164.5 119.001s-78.334 110.834 -101.001 180.501s-34 145.834 -34 228.501v21v4v14c0.666992 134 12.5 250.5 35.5 349.5s55.5 182.667 97.5 251s93 122.666 153 162.999s127.333 68.833 202 85.5
c36 8 65.667 15.667 89 23s41.833 15.5 55.5 24.5s23.167 19.333 28.5 31s8 26.167 8 43.5h271c0 -48 -4.66699 -91.167 -14 -129.5s-28.166 -72.666 -56.499 -102.999s-68.5 -56.666 -120.5 -78.999s-120.333 -41.166 -205 -56.499c-38.667 -7.33301 -73 -18.5 -103 -33.5
s-56 -34.5 -78 -58.5s-40.333 -52.5 -55 -85.5s-26 -71.5 -34 -115.5c46.667 42.667 95.5 73.834 146.5 93.501s106.167 29.5 165.5 29.5zM600 761.994c-35.333 0 -64.833 -6.66699 -88.5 -20s-42.667 -31.5 -57 -54.5s-24.5 -49.667 -30.5 -80s-9 -62.5 -9 -96.5v-21
c0 -35.333 3 -68.333 9 -99s16.167 -57.167 30.5 -79.5s33.5 -40 57.5 -53s54 -19.5 90 -19.5c35.333 0 64.833 6.5 88.5 19.5s42.667 30.667 57 53s24.5 48.833 30.5 79.5s9 63.667 9 99v21c0 34 -3 66.167 -9 96.5s-16.167 57 -30.5 80s-33.5 41.167 -57.5 54.5
s-54 20 -90 20z" />
    <glyph glyph-name="uni0432" unicode="&#x432;" horiz-adv-x="1150" 
d="M117 0l0.000976562 1082h464c70.667 0 134.5 -6.16699 191.5 -18.5s105.333 -31 145 -56s70.167 -56.5 91.5 -94.5s32 -82.667 32 -134c0 -50 -17.333 -94.833 -52 -134.5s-85.334 -70.167 -152.001 -91.5c46.667 -8 87 -19.833 121 -35.5s62 -34.167 84 -55.5
s38.167 -45 48.5 -71s15.5 -53.333 15.5 -82c0 -102.667 -39 -179.834 -117 -231.501s-190.333 -77.5 -337 -77.5h-535zM455.001 441.001l-0.000976562 -182.999h197c42 0 72 7.33301 90 22s27 37 27 67c0 14 -1.66699 26.667 -5 38s-9.33301 21.166 -18 29.499
s-20.667 14.833 -36 19.5s-34.666 7 -57.999 7h-197zM455 649.002l139 -0.000976562c40.667 0 69.167 6.83301 85.5 20.5s24.5 33.834 24.5 60.501c0 34.667 -10 59 -30 73s-51 21 -93 21h-126v-175z" />
    <glyph glyph-name="uni0433" unicode="&#x433;" horiz-adv-x="857" 
d="M852 822h-426v-822h-338v1082h764v-260z" />
    <glyph glyph-name="uni0434" unicode="&#x434;" horiz-adv-x="1317" 
d="M124 262c40 40 71.333 77.834 94 113.501s39.667 72 51 109s18.333 76.167 21 117.5s3.66699 87.666 3 138.999l-1 341h843v-822h162v-588h-338v328h-586v-328h-346l-1 590h98zM630 741.001c-4 -105.333 -16.333 -197.167 -37 -275.5s-48 -146.5 -82 -204.5h288v561h-169
v-81z" />
    <glyph glyph-name="uni0435" unicode="&#x435;" horiz-adv-x="1115" 
d="M618 -20c-88 0 -166.669 14.002 -236.002 42.002s-127.666 66 -174.999 114s-83.5 103.667 -108.5 167s-37.5 130.666 -37.5 201.999v38c0 78.667 10.833 152.167 32.5 220.5s54.334 127.5 98.001 177.5s98 89.333 163 118s140.833 43 227.5 43
c76.667 0 145.5 -12.333 206.5 -37s112.667 -60 155 -106s74.666 -101.667 96.999 -167s33.5 -138.666 33.5 -219.999v-137h-670c12 -60.667 38.333 -108.334 79 -143.001s93.334 -52 158.001 -52c46 0 91.167 8.66699 135.5 26s82.5 46 114.5 86l154 -182
c-17.333 -24 -39.5 -47.333 -66.5 -70s-58.5 -42.834 -94.5 -60.501s-76.333 -32 -121 -43s-93 -16.5 -145 -16.5zM579.998 842.002c-28.667 0 -53.3311 -5 -73.998 -15s-37.834 -23.667 -51.501 -41s-24.5 -38 -32.5 -62s-14 -50 -18 -78h340v26
c1.33301 54 -12.334 95.833 -41.001 125.5s-69.667 44.5 -123 44.5z" />
    <glyph glyph-name="uni0436" unicode="&#x436;" horiz-adv-x="1847" 
d="M1225 378h-128v-378h-337v378h-125l-185 -378h-400l322 579l-335 503h421l205 -389h97v389h337v-389h100l206 389h421l-337 -505l10 5l324 -582h-412z" />
    <glyph glyph-name="uni0437" unicode="&#x437;" horiz-adv-x="1059" 
d="M535 652c42 0 72.4971 9.49414 91.4971 28.4941s28.5 43.833 28.5 74.5c0 12.667 -1.5 25.334 -4.5 38.001s-8.5 24 -16.5 34s-19.333 18.167 -34 24.5s-33.667 9.5 -57 9.5c-39.333 0 -70.666 -7.5 -93.999 -22.5s-35 -38.5 -35 -70.5h-337
c0 52.667 11.667 99.5 35 140.5s55 75.833 95 104.5s87 50.5 141 65.5s111.667 22.5 173 22.5c71.333 0 136 -6.83301 194 -20.5s107.5 -33.667 148.5 -60s72.667 -59.166 95 -98.499s33.5 -84.666 33.5 -135.999c0 -48 -14.5 -92.167 -43.5 -132.5
s-69.833 -72.5 -122.5 -96.5c60.667 -21.333 106.667 -53 138 -95s47 -94 47 -156c0 -51.333 -12.167 -97.166 -36.5 -137.499s-58.166 -74.5 -101.499 -102.5s-95 -49.333 -155 -64s-125.667 -22 -197 -22c-57.333 0 -113.5 6.66699 -168.5 20s-104.167 33.833 -147.5 61.5
s-78.333 62.834 -105 105.501s-40 93.667 -40 153h337c0 -27.333 11.333 -50.833 34 -70.5s60.334 -29.5 113.001 -29.5c25.333 0 46.333 3.33301 63 10s30 15.5 40 26.5s17.167 23.5 21.5 37.5s6.5 28 6.5 42c0 42.667 -11.833 73.334 -35.5 92.001s-58.5 28 -104.5 28
h-140v196h140z" />
    <glyph glyph-name="uni0438" unicode="&#x438;" horiz-adv-x="1148" 
d="M724 1082h338v-1082h-338v630l-297 -630h-339v1082h339v-628z" />
    <glyph glyph-name="uni0439" unicode="&#x439;" horiz-adv-x="1148" 
d="M724 1082h338v-1082h-338v630l-297 -630h-339v1082h339v-628zM953 1538c0 -45.333 -8.66504 -86.833 -25.998 -124.5s-42 -70 -74 -97s-70.833 -48 -116.5 -63s-96.834 -22.5 -153.501 -22.5s-107.834 7.5 -153.501 22.5s-84.5 36 -116.5 63s-56.667 59.333 -74 97
s-26 79.167 -26 124.5h229c0 -16.667 2.5 -32.667 7.5 -48s13.167 -28.833 24.5 -40.5s25.833 -21 43.5 -28s39.5 -10.5 65.5 -10.5s47.833 3.5 65.5 10.5s32 16.333 43 28s18.833 25.167 23.5 40.5s7 31.333 7 48h231z" />
    <glyph glyph-name="uni043A" unicode="&#x43a;" horiz-adv-x="1174" 
d="M556 378h-101v-378h-338v1082h338v-389h97l172 389h432l-316 -500h1l347 -582h-457z" />
    <glyph glyph-name="uni043B" unicode="&#x43b;" horiz-adv-x="1150" 
d="M1061 1082v-1082h-337v822h-200l-8 -201c-4.66699 -103.333 -15 -193.666 -31 -270.999s-41.5 -142 -76.5 -194s-81.167 -91 -138.5 -117s-129.333 -39 -216 -39h-41l-8 261h27c34.667 0 61.167 6.16699 79.5 18.5s32 32.666 41 60.999s14.667 65.333 17 111l8.5 169.5
l20 461h863z" />
    <glyph glyph-name="uni043C" unicode="&#x43c;" horiz-adv-x="1572" 
d="M772 372l245 710h424v-1082h-338v600l-218 -600h-224l-206 568v-568h-338v1082h414z" />
    <glyph glyph-name="uni043D" unicode="&#x43d;" horiz-adv-x="1148" 
d="M1058 0h-338v401h-295v-401h-337v1082h337v-422h295v422h338v-1082z" />
    <glyph glyph-name="uni043E" unicode="&#x43e;" horiz-adv-x="1150" 
d="M52 551c0 78.667 11.333 151.667 34 219s56 125.666 100 174.999s98.5 87.833 163.5 115.5s139.5 41.5 223.5 41.5c85.333 0 160.5 -13.833 225.5 -41.5s119.5 -66.167 163.5 -115.5s77.333 -107.666 100 -174.999s34 -140.333 34 -219v-21
c0 -79.333 -11.167 -152.5 -33.5 -219.5s-55.5 -125 -99.5 -174s-98.5 -87.333 -163.5 -115s-139.833 -41.5 -224.5 -41.5s-159.5 13.833 -224.5 41.5s-119.667 66 -164 115s-77.833 107 -100.5 174s-34 140.167 -34 219.5v21zM389 530c0 -40.667 2.83301 -78.667 8.5 -114
s15.667 -66 30 -92s33.5 -46.5 57.5 -61.5s54 -22.5 90 -22.5c35.333 0 64.833 7.5 88.5 22.5s42.5 35.5 56.5 61.5s24 56.667 30 92s9 73.333 9 114v21c0 39.333 -2.83301 76.666 -8.5 111.999s-15.667 66.166 -30 92.499s-33.5 47.333 -57.5 63s-54 23.5 -90 23.5
c-35.333 0 -64.833 -7.83301 -88.5 -23.5s-42.5 -36.667 -56.5 -63s-24 -57.166 -30 -92.499s-9 -72.666 -9 -111.999v-21z" />
    <glyph glyph-name="uni043F" unicode="&#x43f;" horiz-adv-x="1148" 
d="M1062 0h-339v822h-298v-822h-337v1082h974v-1082z" />
    <glyph glyph-name="uni0440" unicode="&#x440;" horiz-adv-x="1153" 
d="M1099 533c0 -78.667 -9 -151.667 -27 -219s-44.833 -125.833 -80.5 -175.5s-79.667 -88.5 -132 -116.5s-112.5 -42 -180.5 -42c-53.333 0 -100 9.66699 -140 29s-75 46 -105 80v-505h-337v1498h315l10 -100c30.667 38 66.667 67.5 108 88.5s90.333 31.5 147 31.5
c68.667 0 129.334 -13.167 182.001 -39.5s96.667 -63.5 132 -111.5s62.166 -105.667 80.499 -173s27.5 -142 27.5 -224v-21zM762 554c0 42 -2.99902 80.6699 -8.99902 116.003s-15.5 65.666 -28.5 90.999s-30.333 45.166 -52 59.499s-47.834 21.5 -78.501 21.5
c-41.333 0 -75 -7.16699 -101 -21.5s-45.667 -35.833 -59 -64.5v-426c14 -28.667 34 -50.834 60 -66.501s60 -23.5 102 -23.5c32 0 58.5 7.66699 79.5 23s38 36.166 51 62.499s22.167 57.333 27.5 93s8 73.834 8 114.501v21z" />
    <glyph glyph-name="uni0441" unicode="&#x441;" horiz-adv-x="1064" 
d="M552 240c47.333 0 84.001 12.833 110.001 38.5s38.667 61.5 38 107.5h316c0 -61.333 -11.5 -116.833 -34.5 -166.5s-54.833 -92.334 -95.5 -128.001s-89 -63.167 -145 -82.5s-116.333 -29 -181 -29c-84.667 0 -158.667 14 -222 42s-116.166 66.5 -158.499 115.5
s-74.166 107 -95.499 174s-32 139.5 -32 217.5v23c0 78 10.667 150.667 32 218s53 125.5 95 174.5s94.5 87.5 157.5 115.5s136.5 42 220.5 42c68 0 130.167 -9.66699 186.5 -29s104.666 -47.5 144.999 -84.5s71.666 -82.5 93.999 -136.5s33.5 -115.333 33.5 -184h-316
c0 24 -2.83301 46.667 -8.5 68s-14.834 39.833 -27.501 55.5s-28.5 28 -47.5 37s-41.5 13.5 -67.5 13.5c-34.667 0 -62.5 -7.83301 -83.5 -23.5s-37.167 -36.667 -48.5 -63s-18.833 -57.166 -22.5 -92.499s-5.5 -72.333 -5.5 -111v-23c0 -40 1.83301 -77.5 5.5 -112.5
s11.167 -65.667 22.5 -92s27.833 -47 49.5 -62s50.167 -22.5 85.5 -22.5z" />
    <glyph glyph-name="uni0442" unicode="&#x442;" horiz-adv-x="1073" 
d="M1042 824h-341v-824h-339v824h-336v258h1016v-258z" />
    <glyph glyph-name="uni0443" unicode="&#x443;" horiz-adv-x="1061" 
d="M527 472l179.995 610h361l-434 -1243c-9.33301 -27.333 -21.666 -57 -36.999 -89s-36.5 -61.833 -63.5 -89.5s-61.167 -50.834 -102.5 -69.501s-93 -28 -155 -28c-16.667 0 -30.5 0.333008 -41.5 1s-21.167 1.83398 -30.5 3.50098s-19.166 3.66699 -29.499 6
s-22.833 5.5 -37.5 9.5v241h43c26.667 0 49.334 2 68.001 6s34.334 10 47.001 18s22.834 17.833 30.501 29.5s14.167 25.167 19.5 40.5l27 72l-376 1092h360z" />
    <glyph glyph-name="uni0444" unicode="&#x444;" horiz-adv-x="1502" 
d="M53 539c0 82 8.66699 157.499 26 226.499s43 128.5 77 178.5s76.167 88.833 126.5 116.5s108.166 41.5 173.499 41.5c23.333 0 45.5 -2.33301 66.5 -7s41.167 -11 60.5 -19v460h337v-459c18.667 8 38.334 14.167 59.001 18.5s42.667 6.5 66 6.5
c65.333 0 123.166 -13.833 173.499 -41.5s92.5 -66.5 126.5 -116.5s59.833 -109.5 77.5 -178.5s26.5 -144.5 26.5 -226.5v-21c0 -78.667 -8.66699 -151 -26 -217s-43 -122.667 -77 -170s-76 -84.333 -126 -111s-107.667 -40 -173 -40c-46.667 0 -89 7.66699 -127 23v-419
h-337v420c-19.333 -7.33301 -39.666 -13.166 -60.999 -17.499s-44 -6.5 -68 -6.5c-65.333 0 -122.833 13.333 -172.5 40s-91.5 63.667 -125.5 111s-59.667 104 -77 170s-26 138.333 -26 217v21zM390 517.999c0 -40.667 2.50098 -77.998 7.50098 -111.998
s13.167 -63.167 24.5 -87.5s26.666 -43.333 45.999 -57s43 -20.5 71 -20.5h22c7.33301 0 14.666 0.666992 21.999 2v596c-13.333 2 -27.333 3 -42 3c-27.333 0 -50.666 -7.83301 -69.999 -23.5s-35 -37.334 -47 -65.001s-20.667 -59.834 -26 -96.501s-8 -76 -8 -118v-21z
M1111 539.001c0 42 -2.66895 81.3301 -8.00195 117.997s-13.833 68.834 -25.5 96.501s-27 49.334 -46 65.001s-42.167 23.5 -69.5 23.5c-15.333 0 -29.333 -1 -42 -3v-597c7.33301 -1.33301 14.5 -2 21.5 -2h22.5c28 0 51.333 6.83301 70 20.5s33.834 32.834 45.501 57.501
s19.834 54 24.501 88s7 71.333 7 112v21z" />
    <glyph glyph-name="uni0445" unicode="&#x445;" horiz-adv-x="1054" 
d="M533 784l157 298h350l-285 -527l299 -555h-352l-170 320l-167 -320h-354l300 555l-284 527h354z" />
    <glyph glyph-name="uni0446" unicode="&#x446;" horiz-adv-x="1261" 
d="M88 1082h337v-822h298v822h339v-824h178l-20 -579h-318v321h-814v1082z" />
    <glyph glyph-name="uni0447" unicode="&#x447;" horiz-adv-x="1142" 
d="M1056 0l-338.999 -0.000976562v325c-19.333 -3.33301 -37.5 -5.83301 -54.5 -7.5s-32.167 -2.5 -45.5 -2.5c-84 0 -159.333 8 -226 24s-123 40.833 -169 74.5s-81.167 76.834 -105.5 129.501s-36.5 116 -36.5 190v349h337v-349c0 -32.667 3.5 -59.334 10.5 -80.001
s18.333 -36.667 34 -48s36.167 -19.166 61.5 -23.499s56.666 -6.5 93.999 -6.5c32.667 0 66 3 100 9v498h339v-1082z" />
    <glyph glyph-name="uni0448" unicode="&#x448;" horiz-adv-x="1711" 
d="M425 1082v-822h254v822h338v-822h253v822h338v-1082h-1520v1082h337z" />
    <glyph glyph-name="uni0449" unicode="&#x449;" horiz-adv-x="1919" 
d="M427 1082v-822h254v822h338v-822h253v822h338v-824h247l-20 -579h-318v321h-1429v1082h337z" />
    <glyph glyph-name="uni044A" unicode="&#x44a;" horiz-adv-x="1385" 
d="M36 1082l643 -0.00195312v-297h171c78 0 148 -9.5 210 -28.5s114.5 -45.833 157.5 -80.5s75.833 -76.5 98.5 -125.5s34 -103.167 34 -162.5c0 -57.333 -11.333 -109.666 -34 -156.999s-55.5 -88.166 -98.5 -122.499s-95.5 -61 -157.5 -80s-132 -28.5 -210 -28.5h-510v821
h-304v261zM679 525.998v-268h171c28.667 0 53.334 3.5 74.001 10.5s37.667 16.5 51 28.5s23.166 26 29.499 42s9.5 33 9.5 51c0 40 -13 72.667 -39 98s-67.667 38 -125 38h-171z" />
    <glyph glyph-name="uni044B" unicode="&#x44b;" horiz-adv-x="1746" 
d="M456 785l171 -0.00195312c78 0 148 -9.5 210 -28.5s114.5 -45.833 157.5 -80.5s75.833 -76.5 98.5 -125.5s34 -103.167 34 -162.5c0 -57.333 -11.333 -109.666 -34 -156.999s-55.5 -88.166 -98.5 -122.499s-95.5 -61 -157.5 -80s-132 -28.5 -210 -28.5h-510v1082h339
v-297zM1626 -0.00195312h-339v1082h339v-1082zM456 525.998v-268h171c28.667 0 53.334 3.5 74.001 10.5s37.667 16.5 51 28.5s23.166 26 29.499 42s9.5 33 9.5 51c0 40 -13 72.667 -39 98s-67.667 38 -125 38h-171z" />
    <glyph glyph-name="uni044C" unicode="&#x44c;" horiz-adv-x="1157" 
d="M456 785l171 -0.00195312c78 0 148 -9.5 210 -28.5s114.5 -45.833 157.5 -80.5s75.833 -76.5 98.5 -125.5s34 -103.167 34 -162.5c0 -57.333 -11.333 -109.666 -34 -156.999s-55.5 -88.166 -98.5 -122.499s-95.5 -61 -157.5 -80s-132 -28.5 -210 -28.5h-510v1082h339
v-297zM456 525.998v-268h171c28.667 0 53.334 3.5 74.001 10.5s37.667 16.5 51 28.5s23.166 26 29.499 42s9.5 33 9.5 51c0 40 -13 72.667 -39 98s-67.667 38 -125 38h-171z" />
    <glyph glyph-name="uni044D" unicode="&#x44d;" horiz-adv-x="1044" 
d="M497 842c-48 0 -82.6631 -12.6689 -103.996 -38.002s-32 -61 -32 -107h-316c0 60.667 11.333 115.834 34 165.501s54 92.334 94 128.001s87.667 63.167 143 82.5s115.666 29 180.999 29c84.667 0 159.167 -14 223.5 -42s118 -66.5 161 -115.5s75.333 -107.167 97 -174.5
s32.5 -140 32.5 -218v-23c0 -78 -10.833 -150.5 -32.5 -217.5s-54 -125 -97 -174s-96.333 -87.5 -160 -115.5s-137.834 -42 -222.501 -42c-68 0 -129.833 9.66699 -185.5 29s-103.5 47.5 -143.5 84.5s-70.833 82.333 -92.5 136s-32.5 115.167 -32.5 184.5h316
c0 -24.667 2.66699 -47.5 8 -68.5s13.5 -39.333 24.5 -55s25.167 -28 42.5 -37s38.333 -13.5 63 -13.5c29.333 0 54.166 5.33301 74.499 16s37.166 25.5 50.499 44.5s23.5 41.333 30.5 67s11.833 53.5 14.5 83.5h-238v183h238c-2.66699 30 -7.5 57.667 -14.5 83
s-17.333 47.333 -31 66s-30.667 33.167 -51 43.5s-45.5 15.5 -75.5 15.5z" />
    <glyph glyph-name="uni044E" unicode="&#x44e;" horiz-adv-x="1657" 
d="M462 682l105 -0.00195312c11.333 62 30.666 118.667 57.999 170s62.5 95.5 105.5 132.5s93.5 65.833 151.5 86.5s123 31 195 31c85.333 0 160.5 -13.833 225.5 -41.5s119.5 -66.167 163.5 -115.5s77.333 -107.666 100 -174.999s34 -140.333 34 -219v-21
c0 -79.333 -11.167 -152.5 -33.5 -219.5s-55.5 -125 -99.5 -174s-98.5 -87.333 -163.5 -115s-139.833 -41.5 -224.5 -41.5c-74.667 0 -141.667 10.833 -201 32.5s-110.666 51.834 -153.999 90.501s-78.5 85 -105.5 139s-45.167 113.667 -54.5 179h-102v-421h-339v1082h339
v-400zM893 529.998c0 -40.667 2.83301 -78.667 8.5 -114s15.667 -66 30 -92s33.5 -46.5 57.5 -61.5s54 -22.5 90 -22.5c35.333 0 64.833 7.5 88.5 22.5s42.5 35.5 56.5 61.5s24 56.667 30 92s9 73.333 9 114v21c0 39.333 -2.83301 76.666 -8.5 111.999
s-15.667 66.166 -30 92.499s-33.5 47.333 -57.5 63s-54 23.5 -90 23.5c-35.333 0 -64.833 -7.83301 -88.5 -23.5s-42.5 -36.667 -56.5 -63s-24 -57.166 -30 -92.499s-9 -72.666 -9 -111.999v-21z" />
    <glyph glyph-name="uni044F" unicode="&#x44f;" horiz-adv-x="1156" 
d="M1036 1082v-1082h-336v358h-130l-191 -358h-336l222 415c-64.667 30.667 -114.5 71.334 -149.5 122.001s-52.5 108 -52.5 172c0 54 11.333 103.833 34 149.5s55.167 85 97.5 118s93.5 58.833 153.5 77.5s127.333 28 202 28h486zM400 696.999
c0 -14.667 3.16602 -29.167 9.49902 -43.5s15.833 -27.333 28.5 -39s28.5 -21.167 47.5 -28.5s41.167 -11 66.5 -11h148v249h-150c-25.333 0 -47.333 -3.83301 -66 -11.5s-34.167 -17.5 -46.5 -29.5s-21.666 -25.667 -27.999 -41s-9.5 -30.333 -9.5 -45z" />
    <glyph glyph-name="uni0450" unicode="&#x450;" horiz-adv-x="1115" 
d="M618 -20c-88 0 -166.669 14.002 -236.002 42.002s-127.666 66 -174.999 114s-83.5 103.667 -108.5 167s-37.5 130.666 -37.5 201.999v38c0 78.667 10.833 152.167 32.5 220.5s54.334 127.5 98.001 177.5s98 89.333 163 118s140.833 43 227.5 43
c76.667 0 145.5 -12.333 206.5 -37s112.667 -60 155 -106s74.666 -101.667 96.999 -167s33.5 -138.666 33.5 -219.999v-137h-670c12 -60.667 38.333 -108.334 79 -143.001s93.334 -52 158.001 -52c46 0 91.167 8.66699 135.5 26s82.5 46 114.5 86l154 -182
c-17.333 -24 -39.5 -47.333 -66.5 -70s-58.5 -42.834 -94.5 -60.501s-76.333 -32 -121 -43s-93 -16.5 -145 -16.5zM579.998 842.002c-28.667 0 -53.3311 -5 -73.998 -15s-37.834 -23.667 -51.501 -41s-24.5 -38 -32.5 -62s-14 -50 -18 -78h340v26
c1.33301 54 -12.334 95.833 -41.001 125.5s-69.667 44.5 -123 44.5zM694.001 1223h-274l-282 314h356z" />
    <glyph glyph-name="uni0451" unicode="&#x451;" horiz-adv-x="1115" 
d="M618 -20c-88 0 -166.669 14.002 -236.002 42.002s-127.666 66 -174.999 114s-83.5 103.667 -108.5 167s-37.5 130.666 -37.5 201.999v38c0 78.667 10.833 152.167 32.5 220.5s54.334 127.5 98.001 177.5s98 89.333 163 118s140.833 43 227.5 43
c76.667 0 145.5 -12.333 206.5 -37s112.667 -60 155 -106s74.666 -101.667 96.999 -167s33.5 -138.666 33.5 -219.999v-137h-670c12 -60.667 38.333 -108.334 79 -143.001s93.334 -52 158.001 -52c46 0 91.167 8.66699 135.5 26s82.5 46 114.5 86l154 -182
c-17.333 -24 -39.5 -47.333 -66.5 -70s-58.5 -42.834 -94.5 -60.501s-76.333 -32 -121 -43s-93 -16.5 -145 -16.5zM579.998 842.002c-28.667 0 -53.3311 -5 -73.998 -15s-37.834 -23.667 -51.501 -41s-24.5 -38 -32.5 -62s-14 -50 -18 -78h340v26
c1.33301 54 -12.334 95.833 -41.001 125.5s-69.667 44.5 -123 44.5zM119.001 1366c0 18.667 4 36.167 12 52.5s18.833 30.5 32.5 42.5s29.667 21.333 48 28s37.833 10 58.5 10s40 -3.33301 58 -10s33.833 -16 47.5 -28s24.5 -26.167 32.5 -42.5s12 -33.833 12 -52.5
s-4 -36.167 -12 -52.5s-18.833 -30.5 -32.5 -42.5s-29.5 -21.333 -47.5 -28s-37.333 -10 -58 -10s-40.167 3.33301 -58.5 10s-34.333 16 -48 28s-24.5 26.167 -32.5 42.5s-12 33.833 -12 52.5zM638.001 1366c0 18.667 4 36.167 12 52.5s18.833 30.5 32.5 42.5
s29.667 21.333 48 28s37.833 10 58.5 10s40 -3.33301 58 -10s33.833 -16 47.5 -28s24.5 -26.167 32.5 -42.5s12 -33.833 12 -52.5s-4 -36.167 -12 -52.5s-18.833 -30.5 -32.5 -42.5s-29.5 -21.333 -47.5 -28s-37.333 -10 -58 -10s-40.167 3.33301 -58.5 10
s-34.333 16 -48 28s-24.5 26.167 -32.5 42.5s-12 33.833 -12 52.5z" />
    <glyph glyph-name="uni0452" unicode="&#x452;" horiz-adv-x="1156" 
d="M662 1184l-237.998 0.00195312v-218c34 42.667 74.167 76 120.5 100s98.166 36 155.499 36c54 0 103.167 -7.66699 147.5 -23s82.5 -40 114.5 -74s56.833 -78.333 74.5 -133s26.5 -121.334 26.5 -200.001v-196h1v-491c0 -68 -9.33301 -128.333 -28 -181
s-45.667 -96.834 -81 -132.501s-78.333 -62.667 -129 -81s-108 -27.5 -172 -27.5c-28 0 -54.5 1.16699 -79.5 3.5s-51.833 6.83301 -80.5 13.5l14 255l24 -5.5c7.33301 -1.66699 14.666 -3 21.999 -4s15.333 -1.66699 24 -2s18.667 -0.5 30 -0.5c38 0 67 13.5 87 40.5
s30 67.5 30 121.5v689c0 32.667 -3.5 59.834 -10.5 81.501s-17.167 39 -30.5 52s-29.5 22 -48.5 27s-40.5 7.5 -64.5 7.5c-37.333 0 -67.833 -5.83301 -91.5 -17.5s-42.167 -27.834 -55.5 -48.501v-776h-337v1184h-155v191h155v161h337v-161h238v-191z" />
    <glyph glyph-name="uni0453" unicode="&#x453;" horiz-adv-x="857" 
d="M852 822h-426v-822h-338v1082h764v-260zM466 1536h356l-278 -314h-275z" />
    <glyph glyph-name="uni0454" unicode="&#x454;" horiz-adv-x="1045" 
d="M544 240c47.333 0 84.002 12.833 110.002 38.5s38.667 61.5 38 107.5h316c0 -61.333 -11.5 -116.833 -34.5 -166.5s-54.833 -92.334 -95.5 -128.001s-89 -63.167 -145 -82.5s-116.333 -29 -181 -29c-84.667 0 -158.667 14 -222 42s-116.166 66.5 -158.499 115.5
s-74.166 107 -95.499 174s-32 139.5 -32 217.5v23c0 78 10.667 150.667 32 218s53 125.5 95 174.5s94.5 87.5 157.5 115.5s136.5 42 220.5 42c68 0 130.167 -9.66699 186.5 -29s104.666 -47.5 144.999 -84.5s71.666 -82.5 93.999 -136.5s33.5 -115.333 33.5 -184h-316
c0 24 -2.83301 46.667 -8.5 68s-14.834 39.833 -27.501 55.5s-28.5 28 -47.5 37s-41.5 13.5 -67.5 13.5c-30 0 -54.833 -5.83301 -74.5 -17.5s-35.5 -27.667 -47.5 -48s-20.667 -44.166 -26 -71.499s-9 -57 -11 -89h263v-183h-260c2.66699 -28 7.16699 -53.833 13.5 -77.5
s15.666 -44 27.999 -61s28 -30.333 47 -40s42.5 -14.5 70.5 -14.5z" />
    <glyph glyph-name="uni0455" unicode="&#x455;" horiz-adv-x="1049" 
d="M661 304c0 14 -3.16797 26.333 -9.50098 37s-17.5 20.834 -33.5 30.501s-37.667 18.834 -65 27.501s-62 17.667 -104 27c-52.667 11.333 -102.167 26.166 -148.5 44.499s-86.666 41 -120.999 68s-61.333 58.833 -81 95.5s-29.5 78.667 -29.5 126
c0 46 9.83301 89.667 29.5 131s48.5 77.666 86.5 108.999s84.667 56.166 140 74.499s118.333 27.5 189 27.5c72.667 0 138.334 -8.66699 197.001 -26s108.5 -41.5 149.5 -72.5s72.5 -68 94.5 -111s33 -90.5 33 -142.5h-338c0 41.333 -10.333 73.333 -31 96s-56 34 -106 34
c-17.333 0 -33.5 -2.5 -48.5 -7.5s-28.167 -12 -39.5 -21s-20.333 -19.833 -27 -32.5s-10 -26.667 -10 -42c0 -29.333 14.167 -53.333 42.5 -72s74.166 -34 137.499 -46c54.667 -10 107.167 -22.833 157.5 -38.5s94.833 -36.667 133.5 -63s69.5 -59.166 92.5 -98.499
s34.5 -87.666 34.5 -144.999c0 -48 -11 -92.333 -33 -133s-53.5 -75.834 -94.5 -105.501s-90.5 -53 -148.5 -70s-123.333 -25.5 -196 -25.5c-78 0 -146.833 11 -206.5 33s-109.667 50.5 -150 85.5s-70.833 74.333 -91.5 118s-31 87.167 -31 130.5h315
c1.33301 -50 18 -86.5 50 -109.5s73 -34.5 123 -34.5c46 0 80.5 9.33301 103.5 28s34.5 43 34.5 73z" />
    <glyph glyph-name="uni0456" unicode="&#x456;" horiz-adv-x="563" 
d="M450 0h-338v1082h338v-1082zM92 1361c0 24 4.5 46 13.5 66s21.833 37.333 38.5 52s36.334 26 59.001 34s48 12 76 12s53.333 -4 76 -12s42.334 -19.333 59.001 -34s29.5 -32 38.5 -52s13.5 -42 13.5 -66s-4.5 -46 -13.5 -66s-21.833 -37.333 -38.5 -52
s-36.334 -26 -59.001 -34s-48 -12 -76 -12s-53.333 4 -76 12s-42.334 19.333 -59.001 34s-29.5 32 -38.5 52s-13.5 42 -13.5 66z" />
    <glyph glyph-name="uni0457" unicode="&#x457;" horiz-adv-x="584" 
d="M462 0h-339v1082h339v-1082zM-120 1345c0 18.667 4 36.167 12 52.5s18.833 30.5 32.5 42.5s29.667 21.333 48 28s37.833 10 58.5 10s40 -3.33301 58 -10s33.833 -16 47.5 -28s24.5 -26.167 32.5 -42.5s12 -33.833 12 -52.5s-4 -36.167 -12 -52.5
s-18.833 -30.5 -32.5 -42.5s-29.5 -21.333 -47.5 -28s-37.333 -10 -58 -10s-40.167 3.33301 -58.5 10s-34.333 16 -48 28s-24.5 26.167 -32.5 42.5s-12 33.833 -12 52.5zM399 1345c0 18.667 4 36.167 12 52.5s18.833 30.5 32.5 42.5s29.667 21.333 48 28s37.833 10 58.5 10
s40 -3.33301 58 -10s33.833 -16 47.5 -28s24.5 -26.167 32.5 -42.5s12 -33.833 12 -52.5s-4 -36.167 -12 -52.5s-18.833 -30.5 -32.5 -42.5s-29.5 -21.333 -47.5 -28s-37.333 -10 -58 -10s-40.167 3.33301 -58.5 10s-34.333 16 -48 28s-24.5 26.167 -32.5 42.5
s-12 33.833 -12 52.5z" />
    <glyph glyph-name="uni0458" unicode="&#x458;" horiz-adv-x="553" 
d="M457 1082l0.00195312 -1117c0 -65.333 -9.5 -123 -28.5 -173s-46.5 -92 -82.5 -126s-79.5 -59.667 -130.5 -77s-108.5 -26 -172.5 -26c-28.667 0 -55 1.16699 -79 3.5s-50.667 6.83301 -80 13.5v255c17.333 -2.66699 33.166 -4.83398 47.499 -6.50098
s30.166 -2.5 47.499 -2.5c45.333 0 80 11.333 104 34s36 57.667 36 105v1117h338zM94.002 1361c0 24 4.5 46 13.5 66s21.833 37.333 38.5 52s36.5 26 59.5 34s48.167 12 75.5 12c28 0 53.333 -4 76 -12s42.334 -19.333 59.001 -34s29.5 -32 38.5 -52s13.5 -42 13.5 -66
s-4.5 -46 -13.5 -66s-21.833 -37.333 -38.5 -52s-36.334 -26 -59.001 -34s-48 -12 -76 -12c-27.333 0 -52.5 4 -75.5 12s-42.833 19.333 -59.5 34s-29.5 32 -38.5 52s-13.5 42 -13.5 66z" />
    <glyph glyph-name="uni0459" unicode="&#x459;" horiz-adv-x="1772" 
d="M1068 1082v-316.999h171c78 0 147.833 -9.33301 209.5 -28s114 -44.834 157 -78.501s75.833 -73.834 98.5 -120.501s34 -98.334 34 -155.001c0 -57.333 -11.333 -109.5 -34 -156.5s-55.5 -87.167 -98.5 -120.5s-95.333 -59.333 -157 -78s-131.5 -28 -209.5 -28h-510v822
h-191v-201c0 -103.333 -9 -193.666 -27 -270.999s-46.333 -142 -85 -194s-88.667 -91 -150 -117s-135.333 -39 -222 -39h-41l-8 261h27c54 0 95.333 29.333 124 88s43 149.334 43 272.001v461h869zM1068 506.001v-248h171c57.333 0 98.833 12.167 124.5 36.5
s38.5 54.5 38.5 90.5c0 34.667 -12.833 63.5 -38.5 86.5s-67.167 34.5 -124.5 34.5h-171z" />
    <glyph glyph-name="uni045A" unicode="&#x45a;" horiz-adv-x="1764" 
d="M425 660l295 0.00292969v422h338v-317h172c78 0 147.833 -9.33301 209.5 -28s114 -44.834 157 -78.501s75.833 -73.834 98.5 -120.501s34 -98.334 34 -155.001c0 -57.333 -11.333 -109.5 -34 -156.5s-55.5 -87.167 -98.5 -120.5s-95.333 -59.333 -157 -78
s-131.5 -28 -209.5 -28h-510v401h-295v-401h-337v1082h337v-422zM1058 506.003v-248h172c57.333 0 98.833 12.167 124.5 36.5s38.5 54.5 38.5 90.5c0 34.667 -12.833 63.5 -38.5 86.5s-67.167 34.5 -124.5 34.5h-172z" />
    <glyph glyph-name="uni045B" unicode="&#x45b;" horiz-adv-x="1152" 
d="M671 1199l-246.999 0.000976562v-233c34 42.667 74.167 76 120.5 100s98.166 36 155.499 36c54 0 103.167 -7.66699 147.5 -23s82.5 -40 114.5 -74s56.833 -78.333 74.5 -133s26.5 -121.334 26.5 -200.001v-672h-338v674c0 32.667 -3.5 59.834 -10.5 81.501
s-17.167 39 -30.5 52s-29.5 22 -48.5 27s-40.5 7.5 -64.5 7.5c-37.333 0 -67.833 -5.83301 -91.5 -17.5s-42.167 -27.834 -55.5 -48.501v-776h-337v1199h-146v191h146v146h337v-146h247v-191z" />
    <glyph glyph-name="uni045C" unicode="&#x45c;" horiz-adv-x="1174" 
d="M556 378h-101v-378h-338v1082h338v-389h97l172 389h432l-316 -500h1l347 -582h-457zM643 1536h356l-278 -314h-275z" />
    <glyph glyph-name="uni045D" unicode="&#x45d;" horiz-adv-x="1148" 
d="M724 1082h338v-1082h-338v630l-297 -630h-339v1082h339v-628zM743 1222h-274l-282 314h356z" />
    <glyph glyph-name="uni045E" unicode="&#x45e;" horiz-adv-x="1061" 
d="M527 472l179.995 610h361l-434 -1243c-9.33301 -27.333 -21.666 -57 -36.999 -89s-36.5 -61.833 -63.5 -89.5s-61.167 -50.834 -102.5 -69.501s-93 -28 -155 -28c-16.667 0 -30.5 0.333008 -41.5 1s-21.167 1.83398 -30.5 3.50098s-19.166 3.66699 -29.499 6
s-22.833 5.5 -37.5 9.5v241h43c26.667 0 49.334 2 68.001 6s34.334 10 47.001 18s22.834 17.833 30.501 29.5s14.167 25.167 19.5 40.5l27 72l-376 1092h360zM898.995 1538c0 -45.333 -8.66504 -86.833 -25.998 -124.5s-42 -70 -74 -97s-70.833 -48 -116.5 -63
s-96.834 -22.5 -153.501 -22.5s-107.834 7.5 -153.501 22.5s-84.5 36 -116.5 63s-56.667 59.333 -74 97s-26 79.167 -26 124.5h229c0 -16.667 2.5 -32.667 7.5 -48s13.167 -28.833 24.5 -40.5s25.833 -21 43.5 -28s39.5 -10.5 65.5 -10.5s47.833 3.5 65.5 10.5
s32 16.333 43 28s18.833 25.167 23.5 40.5s7 31.333 7 48h231z" />
    <glyph glyph-name="uni045F" unicode="&#x45f;" horiz-adv-x="1148" 
d="M425 1082v-822h298v822h339v-1082h-319v-360h-338v360h-317v1082h337z" />
    <glyph glyph-name="uni0460" unicode="&#x460;" horiz-adv-x="2016" 
d="M1895 1456l0.000976562 -965c0 -83.333 -13.333 -156.833 -40 -220.5s-63.834 -117 -111.501 -160s-104.167 -75.667 -169.5 -98s-136.666 -33.5 -213.999 -33.5c-74.667 0 -142.834 13 -204.501 39s-113.834 64.667 -156.501 116c-42 -51.333 -93.333 -90 -154 -116
s-127.667 -39 -201 -39c-78 0 -150.167 11.167 -216.5 33.5s-123.666 55 -171.999 98s-86.166 96.333 -113.499 160s-41 137.167 -41 220.5v965h351v-965c0 -42.667 4.5 -79.167 13.5 -109.5s21.667 -55.333 38 -75s36.333 -34.167 60 -43.5s50.5 -14 80.5 -14
c58 0 102.5 19 133.5 57s46.5 99.667 46.5 185v965h348v-965c0 -42.667 4.33301 -79.167 13 -109.5s21.167 -55.333 37.5 -75s36.166 -34.167 59.499 -43.5s49.333 -14 78 -14c59.333 0 104.833 19 136.5 57s47.5 99.667 47.5 185v965h351z" />
    <glyph glyph-name="uni0461" unicode="&#x461;" horiz-adv-x="1748" 
d="M1686 1082v-600c0 -82 -11.667 -154.167 -35 -216.5s-55.833 -114.833 -97.5 -157.5s-91.667 -74.834 -150 -96.501s-122.5 -32.5 -192.5 -32.5c-68.667 0 -129.834 11.833 -183.501 35.5s-99.5 59.167 -137.5 106.5c-38 -47.333 -84.5 -82.833 -139.5 -106.5
s-116.167 -35.5 -183.5 -35.5c-70 0 -134.333 10.833 -193 32.5s-109.167 53.834 -151.5 96.501s-75.333 95.167 -99 157.5s-35.5 134.5 -35.5 216.5v600h338v-600c0 -85.333 11.833 -147.166 35.5 -185.499s58.834 -57.5 105.501 -57.5
c53.333 0 92.666 19.167 117.999 57.5s38 100.166 38 185.499v600h338v-600c0 -85.333 11.833 -147.166 35.5 -185.499s61.834 -57.5 114.501 -57.5c47.333 0 81.833 19.167 103.5 57.5s32.5 100.166 32.5 185.499v600h339z" />
    <glyph glyph-name="uni0462" unicode="&#x462;" horiz-adv-x="1276" 
d="M694 1085l-231 -0.000976562v-130h180c88.667 0 168.834 -11.333 240.501 -34s132.834 -54.5 183.501 -95.5s89.834 -90.667 117.501 -149s41.5 -122.833 41.5 -193.5c0 -71.333 -13.833 -136.666 -41.5 -195.999s-66.834 -110.333 -117.501 -153
s-111.834 -75.667 -183.501 -99s-151.834 -35 -240.501 -35h-532v1085h-147v191h147v180h352v-180h231v-191zM463 684.999v-415h180c37.333 0 70.5 5.5 99.5 16.5s53.333 26.333 73 46s34.5 42.5 44.5 68.5s15 54 15 84c0 28.667 -5 55.167 -15 79.5
s-24.833 45.5 -44.5 63.5s-44 32 -73 42s-62.167 15 -99.5 15h-180z" />
    <glyph glyph-name="uni0463" unicode="&#x463;" horiz-adv-x="1157" 
d="M678 1083l-222 -0.00195312v-278h171c78 0 148 -9.83301 210 -29.5s114.5 -47.167 157.5 -82.5s75.833 -77.666 98.5 -126.999s34 -103.666 34 -162.999c0 -60 -11.333 -114.667 -34 -164s-55.5 -91.833 -98.5 -127.5s-95.5 -63.167 -157.5 -82.5s-132 -29 -210 -29h-509
v1083h-139v191h139v288h338v-288h222v-191zM456 545.998v-287.998h171c28.667 0 53.334 3.83301 74.001 11.5s37.667 18 51 31s23.166 28.5 29.499 46.5s9.5 37.333 9.5 58c0 20 -3.16699 38.667 -9.5 56s-16.166 32.166 -29.499 44.499s-30.333 22.166 -51 29.499
s-45.334 11 -74.001 11h-171z" />
    <glyph glyph-name="uni0464" unicode="&#x464;" horiz-adv-x="1824" 
d="M447 869l167.995 -0.00292969c8.66699 94.667 29.334 179.5 62.001 254.5s75.334 138.833 128.001 191.5s114.334 93 185.001 121s148.667 42 234 42c94.667 0 178.5 -13.167 251.5 -39.5s134.833 -62.833 185.5 -109.5s90.334 -102 119.001 -166
s46.334 -133.667 53.001 -209h-350c-1.33301 40.667 -6.83301 76.667 -16.5 108s-24.834 57.333 -45.501 78s-47 36.334 -79 47.001s-71.333 16 -118 16c-38 0 -71.833 -6.33301 -101.5 -19s-55 -32.5 -76 -59.5s-37.833 -61.5 -50.5 -103.5s-21 -92.667 -25 -152h367v-261
h-369c2.66699 -62.667 9.66699 -116.167 21 -160.5s27.333 -80.666 48 -108.999s46.667 -49.166 78 -62.499s68.666 -20 111.999 -20c80.667 0 142.334 19 185.001 57s65.334 98.333 68.001 181h349c-3.33301 -76 -19.666 -145.5 -48.999 -208.5s-70 -117 -122 -162
s-114.333 -80 -187 -105s-154 -37.5 -244 -37.5c-91.333 0 -173.333 14.333 -246 43s-135.167 70 -187.5 124s-93.833 119.833 -124.5 197.5s-49.334 165.167 -56.001 262.5h-167v-608h-350v1456h350v-587z" />
    <glyph glyph-name="uni0465" unicode="&#x465;" horiz-adv-x="1554" 
d="M437 640l110.003 0.00292969c7.33301 66.667 23.333 128.334 48 185.001s58 105.5 100 146.5s92.333 73 151 96s126 34.5 202 34.5c68 0 130.167 -9.66699 186.5 -29s104.666 -47.5 144.999 -84.5s71.666 -82.5 93.999 -136.5s33.5 -115.333 33.5 -184h-316
c0 24 -2.83301 46.667 -8.5 68s-14.834 39.833 -27.501 55.5s-28.5 28 -47.5 37s-41.5 13.5 -67.5 13.5c-28 0 -51.333 -5.16699 -70 -15.5s-34 -24.5 -46 -42.5s-21.167 -39.333 -27.5 -64s-10.833 -51.334 -13.5 -80.001h270v-191h-271c2 -30 6 -57.833 12 -83.5
s15.167 -47.834 27.5 -66.501s28.333 -33.167 48 -43.5s44.167 -15.5 73.5 -15.5c47.333 0 84 12.833 110 38.5s38.667 61.5 38 107.5h316c0 -61.333 -11.5 -116.833 -34.5 -166.5s-54.833 -92.334 -95.5 -128.001s-89 -63.167 -145 -82.5s-116.333 -29 -181 -29
c-77.333 0 -145.833 11.667 -205.5 35s-110.5 55.666 -152.5 96.999s-75.167 90.833 -99.5 148.5s-39.833 120.5 -46.5 188.5h-110v-449h-339v1082h339v-442z" />
    <glyph glyph-name="uni0466" unicode="&#x466;" horiz-adv-x="1417" 
d="M895 414h-63v-414h-275v414h-52l-133 -414h-371l507 1456h188l3 -4l4 4h188l509 -1456h-370zM576 636h247l-124 383z" />
    <glyph glyph-name="uni0467" unicode="&#x467;" horiz-adv-x="1171" 
d="M728 262h-65v-262h-187v262h-48l-80 -262h-344l392 1082h365l391 -1082h-343zM489 460h178l-54 175l-35 152l-35 -152z" />
    <glyph glyph-name="uni0468" unicode="&#x468;" horiz-adv-x="1976" 
d="M470 634h305l287 822h188l3 -4l4 4h188l509 -1456h-370l-135 414h-63v-414h-275v414h-52l-133 -414h-371l144 414h-229v-414h-350v1456h350v-822zM1130 636h247l-124 383z" />
    <glyph glyph-name="uni0469" unicode="&#x469;" horiz-adv-x="1682" 
d="M433 459h248l226 623h365l391 -1082h-343l-81 262h-65v-262h-187v262h-48l-80 -262h-344l95 263h-177v-263h-339v1082h339v-623zM1000 460h178l-54 175l-35 152l-35 -152z" />
    <glyph glyph-name="uni046A" unicode="&#x46a;" horiz-adv-x="1797" 
d="M1216 793c78 -4.66699 147.332 -16.6699 207.999 -36.0029s111.834 -47.666 153.501 -84.999s73.5 -84.5 95.5 -141.5s33 -125.5 33 -205.5v-325h-349v325c0 38 -4.5 69.5 -13.5 94.5s-22.5 45 -40.5 60s-40.5 25.667 -67.5 32s-58.5 9.5 -94.5 9.5h-49v-521h-350v521
h-86c-36 0 -67.5 -3.16699 -94.5 -9.5s-49.5 -17 -67.5 -32s-31.5 -35 -40.5 -60s-13.5 -56.5 -13.5 -94.5v-325h-349v325c0 83.333 12 154.333 36 213s58.833 106.834 104.5 144.501s101.5 65.334 167.5 83.001s141.333 27.5 226 29.5l-368 661h1328zM920.999 866.997
l152 314h-304z" />
    <glyph glyph-name="uni046B" unicode="&#x46b;" horiz-adv-x="1493" 
d="M1038 609c57.333 -8 108.502 -21.832 153.502 -41.499s83.167 -46.5 114.5 -80.5s55.166 -75.5 71.499 -124.5s24.5 -106.5 24.5 -172.5v-190h-337v190c0 34 -3 62.5 -9 85.5s-15 41.667 -27 56s-27 24.666 -45 30.999s-39.333 9.83301 -64 10.5v-373h-337v373
c-26.667 0 -49.667 -3 -69 -9s-35.5 -16 -48.5 -30s-22.667 -32.667 -29 -56s-9.5 -52.666 -9.5 -87.999v-190h-337v190c0 67.333 8.5 125.833 25.5 175.5s41.667 91.5 74 125.5s72.166 60.667 119.499 80s101 32.666 161 39.999l-273 471h1115zM754.002 643.001l105 237
h-210z" />
    <glyph glyph-name="uni046C" unicode="&#x46c;" horiz-adv-x="2409" 
d="M704 0v325c0 41.333 3 79.166 9 113.499s14.667 66.5 26 96.5h-255v-535h-350v1456h350v-657h751l-365 657h1328l-369 -663c78 -4.66699 147.333 -16.667 208 -36s111.834 -47.666 153.5 -84.999c41.667 -37.333 73.5 -84.5 95.5 -141.5s33 -125.5 33 -205.5v-325h-349
v325c0 38 -4.5 69.5 -13.5 94.5s-22.5 45 -40.5 60s-40.5 25.667 -67.5 32s-58.5 9.5 -94.5 9.5h-49v-521h-350v521h-86c-36 0 -67.5 -3.16699 -94.5 -9.5s-49.5 -17 -67.5 -32s-31.5 -35 -40.5 -60s-13.5 -56.5 -13.5 -94.5v-325h-349zM1534 867l152 314h-304z" />
    <glyph glyph-name="uni046D" unicode="&#x46d;" horiz-adv-x="2080" 
d="M676 0l0.000976562 189.999c0 74.667 10.667 139.334 32 194.001h-246v-384h-339v1082h339v-465h590l-269 465h1115l-274 -473c57.333 -8 108.5 -21.833 153.5 -41.5s83.167 -46.5 114.5 -80.5s55.166 -75.5 71.499 -124.5s24.5 -106.5 24.5 -172.5v-190h-337v190
c0 34 -3 62.5 -9 85.5s-15 41.667 -27 56s-27 24.666 -45 30.999s-39.333 9.83301 -64 10.5v-373h-337v373c-26.667 0 -49.667 -3 -69 -9s-35.5 -16 -48.5 -30s-22.667 -32.667 -29 -56s-9.5 -52.666 -9.5 -87.999v-190h-337zM1340 642.999l105 237h-210z" />
    <glyph glyph-name="uni046E" unicode="&#x46e;" horiz-adv-x="1048" 
d="M377 880c33.333 0 61.665 4.16309 84.998 12.4961s42.333 19.833 57 34.5s25.334 32 32.001 52s10 41.333 10 64c0 46 -16.167 81.333 -48.5 106s-84.166 37 -155.499 37h-239v270h239c82.667 0 157.5 -6.83301 224.5 -20.5s124 -35.667 171 -66
s83.167 -69.166 108.5 -116.499s38 -104.333 38 -171c0 -86 -19.667 -156.5 -59 -211.5s-94 -96.833 -164 -125.5c90.667 -28.667 160 -71.167 208 -127.5s72 -126.166 72 -209.499c0 -68 -12.333 -128.667 -37 -182s-59.667 -98.333 -105 -135
s-100.166 -64.5 -164.499 -83.5s-135.833 -28.5 -214.5 -28.5h-62c-35.333 0 -60.333 -8.33301 -75 -25s-22 -38 -22 -64c0 -20.667 4.66699 -38.834 14 -54.501s21 -29.334 35 -41.001s28.833 -21.5 44.5 -29.5s29.834 -14.667 42.501 -20l-82 -193
c-64.667 10.667 -119.5 27.834 -164.5 51.501s-81.833 52.334 -110.5 86.001s-49.5 71.834 -62.5 114.501s-19.833 88.667 -20.5 138c0 52 8.5 97.167 25.5 135.5s41.333 70.333 73 96s70 44.834 115 57.501s95.167 19 150.5 19h75c65.333 0 116.166 14.333 152.499 43
s54.5 65.667 54.5 111c0 66.667 -21.333 117.5 -64 152.5s-105.334 52.5 -188.001 52.5h-143v271h154zM465.999 1794l147 134h287v-11l-326 -283h-217l-328 285v9h290z" />
    <glyph glyph-name="uni046F" unicode="&#x46f;" horiz-adv-x="1057" 
d="M401 630c51.333 0 87.835 11.6709 109.502 35.0039s32.5 52.333 32.5 87c0 32 -14.833 56.833 -44.5 74.5s-76.834 26.5 -141.501 26.5h-239v229h239c80 0 152.333 -5.33301 217 -16s119.667 -27.834 165 -51.501s80.333 -54 105 -91s37 -81.5 37 -133.5
c0 -61.333 -15.167 -112.5 -45.5 -153.5s-72.5 -73.167 -126.5 -96.5c74 -22 130.5 -52.833 169.5 -92.5s58.5 -87.5 58.5 -143.5c0 -51.333 -11.333 -97.166 -34 -137.499s-54.834 -74.333 -96.501 -102s-92 -48.834 -151 -63.501s-125.167 -22 -198.5 -22h-49
c-44 0 -75 -8.33301 -93 -25s-27 -38 -27 -64c0 -20.667 3.83301 -38.834 11.5 -54.501s17.334 -29.334 29.001 -41.001s24 -21.5 37 -29.5s24.833 -14.667 35.5 -20l-82 -172c-46.667 13.333 -89 31.666 -127 54.999s-70.833 50.833 -98.5 82.5s-49 67 -64 106
s-22.833 80.833 -23.5 125.5c0 44.667 7.5 83.667 22.5 117s36.333 61 64 83s61.167 38.5 100.5 49.5s83.333 16.5 132 16.5h64c66.667 0 118.5 10.5 155.5 31.5s55.5 47.833 55.5 80.5c0 40 -17.833 70.5 -53.5 91.5s-87.834 31.5 -156.501 31.5h-167v187h178z
M475.002 1391l147 134h287v-11l-326 -283h-217l-328 285v9h290z" />
    <glyph glyph-name="uni0470" unicode="&#x470;" horiz-adv-x="1527" 
d="M952 675c34.667 6.66699 64.001 18.667 88.001 36s43.5 40 58.5 68s26 61.833 33 101.5s10.5 85.167 10.5 136.5v439h352v-439c0 -91.333 -12.5 -173 -37.5 -245s-61 -134 -108 -186s-104 -93.5 -171 -124.5s-142.167 -50.833 -225.5 -59.5v-402h-350v400
c-87.333 6.66699 -166 25 -236 55s-129.5 71.167 -178.5 123.5s-86.667 115.166 -113 188.499s-39.5 156.666 -39.5 249.999v439h351v-439c0 -101.333 18.167 -179.666 54.5 -234.999s90.166 -90.666 161.499 -105.999v780h350v-781z" />
    <glyph glyph-name="uni0471" unicode="&#x471;" horiz-adv-x="1569" 
d="M945 1082l0.00195312 -822.999c42.667 12 78.5 28.667 107.5 50s52.5 46.666 70.5 75.999s30.833 62.666 38.5 99.999s11.5 78 11.5 122c-1.33301 82 -11.333 162.5 -30 241.5s-42 156.833 -70 233.5h301c18 -28 35.333 -59.167 52 -93.5s31.167 -71.333 43.5 -111
s22.166 -82 29.499 -127s11 -92.833 11 -143.5c0 -73.333 -9.66699 -144.333 -29 -213s-51 -130.667 -95 -186s-102 -102.333 -174 -141s-161 -64.667 -267 -78v-467h-337v469c-84 10.667 -160 30.5 -228 59.5s-126 67.833 -174 116.5s-84.833 107.834 -110.5 177.501
s-38.5 150.5 -38.5 242.5v495h338v-498c0 -48.667 5.16699 -91.167 15.5 -127.5s24.833 -67.5 43.5 -93.5s41.167 -47.333 67.5 -64s55.166 -29.667 86.499 -39v822h337z" />
    <glyph glyph-name="uni0472" unicode="&#x472;" horiz-adv-x="1416" 
d="M1359 698c0 -111.333 -15.6689 -211.333 -47.002 -300s-75.166 -164 -131.499 -226s-123.333 -109.5 -201 -142.5s-162.834 -49.5 -255.501 -49.5c-94 0 -180.167 16.5 -258.5 49.5s-145.666 80.5 -201.999 142.5s-100.166 137.333 -131.499 226s-47 188.667 -47 300v59
c0 111.333 15.5 211.333 46.5 300s74.667 164 131 226s123.5 109.667 201.5 143s164 50 258 50c92.667 0 178 -16.667 256 -50s145.167 -81 201.5 -143s100.333 -137.333 132 -226s47.5 -188.667 47.5 -300v-59zM723.998 254c83.333 0 148.667 33.167 196 99.5
s74 162.166 80 287.499h-557c6 -125.333 32.5 -221.166 79.5 -287.499s114.167 -99.5 201.5 -99.5zM721.999 1201c-86 0 -152 -31.167 -198 -93.5s-72.667 -154.166 -80 -275.499h555c-8 121.333 -35.667 213.166 -83 275.499s-112 93.5 -194 93.5z" />
    <glyph glyph-name="uni0473" unicode="&#x473;" horiz-adv-x="1152" 
d="M50 551c0 78.667 11.333 151.667 34 219s56 125.666 100 174.999s98.5 87.833 163.5 115.5s139.5 41.5 223.5 41.5c85.333 0 160.5 -13.833 225.5 -41.5s119.5 -66.167 163.5 -115.5s77.333 -107.666 100 -174.999s34 -140.333 34 -219v-21
c0 -79.333 -11.167 -152.5 -33.5 -219.5s-55.5 -125 -99.5 -174s-98.5 -87.333 -163.5 -115s-139.833 -41.5 -224.5 -41.5s-159.5 13.833 -224.5 41.5s-119.667 66 -164 115s-77.833 107 -100.5 174s-34 140.167 -34 219.5v21zM571 842
c-29.333 0 -54.6709 -5.33301 -76.0039 -16s-39.166 -25.5 -53.499 -44.5s-25.5 -41.5 -33.5 -67.5s-13.667 -54 -17 -84h362c-3.33301 30 -9.16602 58 -17.499 84s-19.666 48.5 -33.999 67.5s-32.166 33.833 -53.499 44.5s-47 16 -77 16zM572.995 240
c28.667 0 53.335 4.83301 74.002 14.5s38.167 23.334 52.5 41.001s25.666 38.667 33.999 63s14.5 51.166 18.5 80.499h-360c4 -29.333 10.167 -56.166 18.5 -80.499s19.666 -45.333 33.999 -63s32 -31.334 53 -41.001s46.167 -14.5 75.5 -14.5z" />
    <glyph glyph-name="uni0474" unicode="&#x474;" horiz-adv-x="1327" 
d="M659 395l10 -55.999l10 51l185 711c18 57.333 39.167 109 63.5 155s53 85.167 86 117.5s71 57.166 114 74.499s92.5 26 148.5 26l35 -1l-4 -278h-37c-13.333 0 -26 -3 -38 -9s-22.833 -14 -32.5 -24s-18 -21.5 -25 -34.5s-11.833 -26.167 -14.5 -39.5l-300 -1088h-381
l-473 1456h368z" />
    <glyph glyph-name="uni0475" unicode="&#x475;" horiz-adv-x="1053" 
d="M480 446l19.9971 -112.997l19 113l63 291c16.667 57.333 36.5 108.666 59.5 153.999s50.333 83.666 82 114.999s67.834 55.333 108.501 72s87.334 25 140.001 25c19.333 0 37.5 -1.16699 54.5 -3.5s32.167 -6.5 45.5 -12.5l-25 -256
c-1.33301 0 -4.16602 0.166992 -8.49902 0.5s-9.33301 0.666016 -15 0.999023l-17.5 1c-6 0.333008 -11 0.5 -15 0.5c-14 0 -27.333 -3 -40 -9s-24 -14 -34 -24s-18.5 -21.667 -25.5 -35s-12.167 -27.333 -15.5 -42l-201 -724h-343l-332 1082h356z" />
    <glyph glyph-name="uni0476" unicode="&#x476;" horiz-adv-x="1327" 
d="M659 395l10 -55.999l10 51l185 711c18 57.333 39.167 109 63.5 155s53 85.167 86 117.5s71 57.166 114 74.499s92.5 26 148.5 26l35 -1l-4 -278h-37c-13.333 0 -26 -3 -38 -9s-22.833 -14 -32.5 -24s-18 -21.5 -25 -34.5s-11.833 -26.167 -14.5 -39.5l-300 -1088h-381
l-473 1456h368zM622 1562h-271l-284 266h310zM1002 1562h-274l-245 266h312z" />
    <glyph glyph-name="uni0477" unicode="&#x477;" horiz-adv-x="1053" 
d="M480 446l19.9971 -112.997l19 113l63 291c16.667 57.333 36.5 108.666 59.5 153.999s50.333 83.666 82 114.999s67.834 55.333 108.501 72s87.334 25 140.001 25c19.333 0 37.5 -1.16699 54.5 -3.5s32.167 -6.5 45.5 -12.5l-25 -256
c-1.33301 0 -4.16602 0.166992 -8.49902 0.5s-9.33301 0.666016 -15 0.999023l-17.5 1c-6 0.333008 -11 0.5 -15 0.5c-14 0 -27.333 -3 -40 -9s-24 -14 -34 -24s-18.5 -21.667 -25.5 -35s-12.167 -27.333 -15.5 -42l-201 -724h-343l-332 1082h356zM525.997 1252h-271
l-284 266h310zM905.997 1252h-274l-245 266h312z" />
    <glyph glyph-name="uni0478" unicode="&#x478;" horiz-adv-x="2475" 
d="M1343 698c0 -111.333 -15.6689 -211.333 -47.002 -300s-75.166 -164 -131.499 -226s-123.333 -109.5 -201 -142.5s-162.834 -49.5 -255.501 -49.5c-94 0 -180.167 16.5 -258.5 49.5s-145.666 80.5 -201.999 142.5s-100.166 137.333 -131.499 226s-47 188.667 -47 300v59
c0 111.333 15.5 211.333 46.5 300s74.667 164 131 226s123.5 109.667 201.5 143s164 50 258 50c92.667 0 178 -16.667 256 -50s145.167 -81 201.5 -143s100.333 -137.333 132 -226s47.5 -188.667 47.5 -300v-59zM985.998 759c0 144.667 -24.166 254.502 -72.499 329.502
s-117.5 112.5 -207.5 112.5c-94 0 -164.167 -37.5 -210.5 -112.5s-69.5 -184.833 -69.5 -329.5v-61c0 -142.667 23.667 -252.334 71 -329.001s117.666 -115 210.999 -115c89.333 0 158 38.167 206 114.5s72 186.166 72 329.499v61zM1941 472.002l179.995 610h361l-434 -1243
c-9.33301 -27.333 -21.666 -57 -36.999 -89s-36.5 -61.833 -63.5 -89.5s-61.167 -50.834 -102.5 -69.501s-93 -28 -155 -28c-16.667 0 -30.5 0.333008 -41.5 1s-21.167 1.83398 -30.5 3.50098s-19.166 3.66699 -29.499 6s-22.833 5.5 -37.5 9.5v241h43
c26.667 0 49.334 2 68.001 6s34.334 10 47.001 18s22.834 17.833 30.501 29.5s14.167 25.167 19.5 40.5l27 72l-376 1092h360z" />
    <glyph glyph-name="uni0479" unicode="&#x479;" horiz-adv-x="2211" 
d="M52 551c0 78.667 11.333 151.667 34 219s56 125.666 100 174.999s98.5 87.833 163.5 115.5s139.5 41.5 223.5 41.5c85.333 0 160.5 -13.833 225.5 -41.5s119.5 -66.167 163.5 -115.5s77.333 -107.666 100 -174.999s34 -140.333 34 -219v-21
c0 -79.333 -11.167 -152.5 -33.5 -219.5s-55.5 -125 -99.5 -174s-98.5 -87.333 -163.5 -115s-139.833 -41.5 -224.5 -41.5s-159.5 13.833 -224.5 41.5s-119.667 66 -164 115s-77.833 107 -100.5 174s-34 140.167 -34 219.5v21zM389 530c0 -40.667 2.83301 -78.667 8.5 -114
s15.667 -66 30 -92s33.5 -46.5 57.5 -61.5s54 -22.5 90 -22.5c35.333 0 64.833 7.5 88.5 22.5s42.5 35.5 56.5 61.5s24 56.667 30 92s9 73.333 9 114v21c0 39.333 -2.83301 76.666 -8.5 111.999s-15.667 66.166 -30 92.499s-33.5 47.333 -57.5 63s-54 23.5 -90 23.5
c-35.333 0 -64.833 -7.83301 -88.5 -23.5s-42.5 -36.667 -56.5 -63s-24 -57.166 -30 -92.499s-9 -72.666 -9 -111.999v-21zM1677 472l179.995 610h361l-434 -1243c-9.33301 -27.333 -21.666 -57 -36.999 -89s-36.5 -61.833 -63.5 -89.5s-61.167 -50.834 -102.5 -69.501
s-93 -28 -155 -28c-16.667 0 -30.5 0.333008 -41.5 1s-21.167 1.83398 -30.5 3.50098s-19.166 3.66699 -29.499 6s-22.833 5.5 -37.5 9.5v241h43c26.667 0 49.334 2 68.001 6s34.334 10 47.001 18s22.834 17.833 30.501 29.5s14.167 25.167 19.5 40.5l27 72l-376 1092h360z
" />
    <glyph glyph-name="uni047A" unicode="&#x47a;" horiz-adv-x="1416" 
d="M804 1084h-194v487h194v-487zM807 -133h-193v497h193v-497zM1359 698c0 -111.333 -15.6689 -211.333 -47.002 -300s-75.166 -164 -131.499 -226s-123.333 -109.5 -201 -142.5s-162.834 -49.5 -255.501 -49.5c-94 0 -180.167 16.5 -258.5 49.5
s-145.666 80.5 -201.999 142.5s-100.166 137.333 -131.499 226s-47 188.667 -47 300v59c0 111.333 15.5 211.333 46.5 300s74.667 164 131 226s123.5 109.667 201.5 143s164 50 258 50c92.667 0 178 -16.667 256 -50s145.167 -81 201.5 -143s100.333 -137.333 132 -226
s47.5 -188.667 47.5 -300v-59zM1002 759c0 144.667 -24.166 254.502 -72.499 329.502s-117.5 112.5 -207.5 112.5c-94 0 -164.167 -37.5 -210.5 -112.5s-69.5 -184.833 -69.5 -329.5v-61c0 -142.667 23.667 -252.334 71 -329.001s117.666 -115 210.999 -115
c89.333 0 158 38.167 206 114.5s72 186.166 72 329.499v61z" />
    <glyph glyph-name="uni047B" unicode="&#x47b;" horiz-adv-x="1152" 
d="M654 726h-148v477h148v-477zM646 -126h-148v497h148v-497zM52 551c0 78.667 11.333 151.667 34 219s56 125.666 100 174.999s98.5 87.833 163.5 115.5s139.5 41.5 223.5 41.5c85.333 0 160.5 -13.833 225.5 -41.5s119.5 -66.167 163.5 -115.5
s77.333 -107.666 100 -174.999s34 -140.333 34 -219v-21c0 -79.333 -11.167 -152.5 -33.5 -219.5s-55.5 -125 -99.5 -174s-98.5 -87.333 -163.5 -115s-139.833 -41.5 -224.5 -41.5s-159.5 13.833 -224.5 41.5s-119.667 66 -164 115s-77.833 107 -100.5 174
s-34 140.167 -34 219.5v21zM389 530c0 -40.667 2.83301 -78.667 8.5 -114s15.667 -66 30 -92s33.5 -46.5 57.5 -61.5s54 -22.5 90 -22.5c35.333 0 64.833 7.5 88.5 22.5s42.5 35.5 56.5 61.5s24 56.667 30 92s9 73.333 9 114v21c0 39.333 -2.83301 76.666 -8.5 111.999
s-15.667 66.166 -30 92.499s-33.5 47.333 -57.5 63s-54 23.5 -90 23.5c-35.333 0 -64.833 -7.83301 -88.5 -23.5s-42.5 -36.667 -56.5 -63s-24 -57.166 -30 -92.499s-9 -72.666 -9 -111.999v-21z" />
    <glyph glyph-name="uni047C" unicode="&#x47c;" horiz-adv-x="2018" 
d="M1329 1456c78 0 150.333 -11 217 -33s124.167 -54.5 172.5 -97.5s86.166 -96.167 113.499 -159.5s41 -136.333 41 -219v-460c0 -82.667 -13.667 -155.5 -41 -218.5s-65.166 -116 -113.499 -159s-105.833 -75.5 -172.5 -97.5s-139 -33 -217 -33
c-70 0 -134.167 11.833 -192.5 35.5s-108.5 58.834 -150.5 105.501c-42 -46.667 -92 -81.834 -150 -105.501s-122 -35.5 -192 -35.5c-78 0 -150.167 11 -216.5 33s-123.666 54.5 -171.999 97.5s-86.166 96 -113.499 159s-41 135.833 -41 218.5v460
c0 82.667 13.667 155.667 41 219s65.166 116.5 113.499 159.5s105.666 75.5 171.999 97.5s138.5 33 216.5 33v-271c-59.333 0 -106.166 -18.833 -140.499 -56.5s-51.5 -98.167 -51.5 -181.5v-460c0 -83.333 17.167 -143.833 51.5 -181.5s81.166 -56.5 140.499 -56.5
c58 0 102.5 19 133.5 57s46.5 99.667 46.5 185v324h326v-324c0 -85.333 15.333 -147 46 -185s75 -57 133 -57c29.333 0 56 4.5 80 13.5s44.333 23.167 61 42.5s29.5 44 38.5 74s13.5 66 13.5 108v460c0 42 -4.5 78 -13.5 108s-21.833 54.667 -38.5 74s-37 33.5 -61 42.5
s-50.667 13.5 -80 13.5v271zM1445 1691l0.00195312 -133.998h-7c-56 0 -108 6.16699 -156 18.5s-92.333 26 -133 41l-111.5 41.5c-33.667 12.667 -64.5 19 -92.5 19c-30 0 -54.5 -8 -73.5 -24s-28.5 -42 -28.5 -78v-18h-130v37c0 74.667 20.167 129.5 60.5 164.5
s96.5 52.5 168.5 52.5c25.333 0 50.5 -3 75.5 -9s50.167 -13.333 75.5 -22s51.166 -18.334 77.499 -29.001s53.666 -20.334 81.999 -29.001s57.833 -16 88.5 -22s63 -9 97 -9h7zM854.002 1321c22 28 38.833 53.833 50.5 77.5s17.5 48.167 17.5 73.5v95h169v-102
c0 -19.333 -5 -39 -15 -59s-22.5 -39 -37.5 -57s-31.667 -34.5 -50 -49.5s-35.833 -26.833 -52.5 -35.5z" />
    <glyph glyph-name="uni047D" unicode="&#x47d;" horiz-adv-x="1707" 
d="M1084 1102c74 0 142.329 -10.5 204.996 -31.5s116.834 -51.833 162.501 -92.5s81.334 -91 107.001 -151s38.5 -129.333 38.5 -208v-157c0 -78.667 -11.833 -148 -35.5 -208s-56.334 -110.333 -98.001 -151s-91 -71.5 -148 -92.5s-119.167 -31.5 -186.5 -31.5
c-57.333 0 -110 12 -158 36s-89 60 -123 108c-34 -48 -74.833 -84 -122.5 -108s-100.167 -36 -157.5 -36c-67.333 0 -129.666 10.5 -186.999 31.5s-106.833 51.833 -148.5 92.5s-74.167 91 -97.5 151s-35 129.333 -35 208v157c0 78.667 12.833 148 38.5 208
s61.334 110.333 107.001 151s99.834 71.5 162.501 92.5s131 31.5 205 31.5v-260c-53.333 0 -95.833 -17.667 -127.5 -53s-47.5 -92 -47.5 -170v-157c0 -78 11.833 -134.667 35.5 -170s55.167 -53 94.5 -53s69.666 19.167 90.999 57.5s32 100.166 32 185.499v134h315v-134
c0 -85.333 10.667 -147.166 32 -185.499s51.666 -57.5 90.999 -57.5s70.833 17.667 94.5 53s35.5 92 35.5 170v157c0 38.667 -4.16699 72.167 -12.5 100.5s-20.166 51.5 -35.499 69.5s-33.666 31.333 -54.999 40s-45.333 13 -72 13v260zM1304 1360l0.00195312 -133.998h-11
c-56 0 -108 6.16699 -156 18.5s-92.167 26 -132.5 41l-110.5 41.5c-33.333 12.667 -64 19 -92 19c-30 0 -54.5 -8 -73.5 -24s-28.5 -42 -28.5 -78v-18h-131v37c0 74.667 20.333 129.5 61 164.5s97 52.5 169 52.5c25.333 0 50.333 -3 75 -9s49.667 -13.333 75 -22
s51.166 -18.334 77.499 -29.001s53.666 -20.334 81.999 -29.001s57.833 -16 88.5 -22s63 -9 97 -9h10zM720.998 1001c22 28 38.833 53.833 50.5 77.5s17.5 48.167 17.5 73.5v95h169v-102c0 -19.333 -5 -39 -15 -59s-22.5 -39 -37.5 -57s-31.667 -34.5 -50 -49.5
s-35.833 -26.833 -52.5 -35.5z" />
    <glyph glyph-name="uni047E" unicode="&#x47e;" horiz-adv-x="2016" 
d="M541 1687v142h916l2 -142h-378v-127h-181v127h-359zM1895 1456l0.000976562 -965c0 -83.333 -13.333 -156.833 -40 -220.5s-63.834 -117 -111.501 -160s-104.167 -75.667 -169.5 -98s-136.666 -33.5 -213.999 -33.5c-74.667 0 -142.834 13 -204.501 39
s-113.834 64.667 -156.501 116c-42 -51.333 -93.333 -90 -154 -116s-127.667 -39 -201 -39c-78 0 -150.167 11.167 -216.5 33.5s-123.666 55 -171.999 98s-86.166 96.333 -113.499 160s-41 137.167 -41 220.5v965h351v-965c0 -42.667 4.5 -79.167 13.5 -109.5
s21.667 -55.333 38 -75s36.333 -34.167 60 -43.5s50.5 -14 80.5 -14c58 0 102.5 19 133.5 57s46.5 99.667 46.5 185v965h348v-965c0 -42.667 4.33301 -79.167 13 -109.5s21.167 -55.333 37.5 -75s36.166 -34.167 59.499 -43.5s49.333 -14 78 -14
c59.333 0 104.833 19 136.5 57s47.5 99.667 47.5 185v965h351z" />
    <glyph glyph-name="uni047F" unicode="&#x47f;" horiz-adv-x="1748" 
d="M475 1315v142h824l7 -142h-338v-127h-180v127h-313zM1686 1082v-600c0 -82 -11.667 -154.167 -35 -216.5s-55.833 -114.833 -97.5 -157.5s-91.667 -74.834 -150 -96.501s-122.5 -32.5 -192.5 -32.5c-68.667 0 -129.834 11.833 -183.501 35.5s-99.5 59.167 -137.5 106.5
c-38 -47.333 -84.5 -82.833 -139.5 -106.5s-116.167 -35.5 -183.5 -35.5c-70 0 -134.333 10.833 -193 32.5s-109.167 53.834 -151.5 96.501s-75.333 95.167 -99 157.5s-35.5 134.5 -35.5 216.5v600h338v-600c0 -85.333 11.833 -147.166 35.5 -185.499
s58.834 -57.5 105.501 -57.5c53.333 0 92.666 19.167 117.999 57.5s38 100.166 38 185.499v600h338v-600c0 -85.333 11.833 -147.166 35.5 -185.499s61.834 -57.5 114.501 -57.5c47.333 0 81.833 19.167 103.5 57.5s32.5 100.166 32.5 185.499v600h339z" />
    <glyph glyph-name="uni0480" unicode="&#x480;" horiz-adv-x="1236" 
d="M873 -353h-349.999v342c-70 12 -132.667 34.5 -188 67.5s-102.333 74.667 -141 125s-68.167 108.666 -88.5 174.999s-30.5 138.5 -30.5 216.5v309c0 88 13 168.5 39 241.5s63.5 135.667 112.5 188s108.167 93 177.5 122s147.666 43.5 234.999 43.5
s164.833 -10.5 232.5 -31.5s124.667 -52.833 171 -95.5s81.5 -96.167 105.5 -160.5s36 -139.5 36 -225.5h-350c0 44.667 -3.16699 82.334 -9.5 113.001s-17 55.5 -32 74.5s-35 32.833 -60 41.5s-56.167 13 -93.5 13s-69.5 -7.83301 -96.5 -23.5s-49.167 -37.5 -66.5 -65.5
s-30.166 -61.833 -38.499 -101.5s-12.5 -83.5 -12.5 -131.5v-311c0 -48 4.16699 -91.833 12.5 -131.5s21.166 -73.667 38.499 -102s39.5 -50.5 66.5 -66.5s59.167 -24 96.5 -24h234v-602z" />
    <glyph glyph-name="uni0481" unicode="&#x481;" horiz-adv-x="1092" 
d="M823 -358l-337.003 -0.00195312v346c-67.333 11.333 -126.333 32.833 -177 64.5s-93 71.167 -127 118.5s-59.5 101.5 -76.5 162.5s-25.5 126.167 -25.5 195.5v23c0 78 10.833 150.667 32.5 218s53.834 125.5 96.501 174.5s96 87.5 160 115.5s138.333 42 223 42
c68 0 129.833 -9.66699 185.5 -29s103.334 -47.5 143.001 -84.5s70.334 -82.5 92.001 -136.5s32.5 -115.333 32.5 -184h-316c0 24 -2.5 46.667 -7.5 68s-13 39.833 -24 55.5s-25.167 28 -42.5 37s-38.333 13.5 -63 13.5c-35.333 0 -64.333 -7.83301 -87 -23.5
s-40.5 -36.667 -53.5 -63s-22 -57.166 -27 -92.499s-7.5 -72.333 -7.5 -111v-23c0 -39.333 2.33301 -76.166 7 -110.499s13 -64.5 25 -90.5s28.833 -47 50.5 -63s49.5 -24.667 83.5 -26h240v-597z" />
    <glyph glyph-name="uni0482" unicode="&#x482;" horiz-adv-x="1270" 
d="M599 449l289 -172l-72 -128l-291 170l-181 -319h-175l225 398l-289 171l71 128l293 -171l202 360l-290 171l73 130l291 -171l185 326h172l-228 -405l293 -171l-76 -127l-288 170z" />
    <glyph glyph-name="uni0483" unicode="&#x483;" horiz-adv-x="0" 
d="M-718 1312v-126l-177 1l1 238h546l-1 108l177 -1v-220h-546z" />
    <glyph glyph-name="uni0484" unicode="&#x484;" horiz-adv-x="0" 
d="M-888 1437c53.333 0 102.667 6.16699 148 18.5s88.5 26 129.5 41s80.833 28.833 119.5 41.5s77.667 19 117 19c74.667 0 133 -17.5 175 -52.5s63 -89.833 63 -164.5v-37h-136v18c0 36 -9.83301 62 -29.5 78s-45.167 24 -76.5 24c-28.667 0 -60.167 -6.33301 -94.5 -19
l-114.5 -41.5c-42 -15 -87.667 -28.667 -137 -41s-103.333 -18.5 -162 -18.5h-12v134h10z" />
    <glyph glyph-name="uni0485" unicode="&#x485;" horiz-adv-x="0" 
d="M-591 1500v152h190l-1 -170l58 -105l-81 -68z" />
    <glyph glyph-name="uni0486" unicode="&#x486;" horiz-adv-x="0" 
d="M-517 1309l-82 68l59 105l-1 170h189v-152z" />
    <glyph glyph-name="uni0488" unicode="&#x488;" horiz-adv-x="0" 
d="M-727 1267c0 27.333 4.83496 52.5 14.502 75.5s23.5 42.833 41.5 59.5s40 29.667 66 39s55.333 14 88 14s62 -4.66699 88 -14s48.167 -22.333 66.5 -39s32.333 -36.5 42 -59.5s14.5 -48.167 14.5 -75.5h-112c0 13.333 -1.83301 26 -5.5 38s-9.33398 22.667 -17.001 32
s-17.834 16.833 -30.501 22.5s-28 8.5 -46 8.5s-33.167 -2.83301 -45.5 -8.5s-22.333 -13.167 -30 -22.5s-13.167 -20 -16.5 -32s-5 -24.667 -5 -38h-113zM-135.998 990c0 27.333 4.83105 52.5 14.498 75.5s23.667 42.833 42 59.5s40.333 29.667 66 39s54.5 14 86.5 14
c32.667 0 62.167 -4.66699 88.5 -14s48.666 -22.333 66.999 -39s32.333 -36.5 42 -59.5s14.5 -48.167 14.5 -75.5h-113c0 13.333 -1.66699 26 -5 38s-9 22.667 -17 32s-18.333 16.833 -31 22.5s-28 8.5 -46 8.5c-17.333 0 -32.166 -2.83301 -44.499 -8.5
s-22.166 -13.167 -29.499 -22.5s-12.666 -20 -15.999 -32s-5 -24.667 -5 -38h-114zM50 487c0 27.333 4.83301 52.5 14.5 75.5s23.667 42.833 42 59.5s40.5 29.667 66.5 39s55 14 87 14c32.667 0 62 -4.66699 88 -14s48.167 -22.333 66.5 -39s32.333 -36.5 42 -59.5
s14.5 -48.167 14.5 -75.5h-112c0 13.333 -1.66699 26 -5 38s-9 22.667 -17 32s-18.333 16.833 -31 22.5s-28 8.5 -46 8.5c-17.333 0 -32.166 -2.83301 -44.499 -8.5s-22.333 -13.167 -30 -22.5s-13.334 -20 -17.001 -32s-5.5 -24.667 -5.5 -38h-113zM-146 -32
c0 27.333 4.83398 52.5 14.501 75.5s23.667 42.833 42 59.5s40.333 29.667 66 39s54.5 14 86.5 14c32.667 0 62 -4.66699 88 -14s48.167 -22.333 66.5 -39s32.333 -36.5 42 -59.5s14.5 -48.167 14.5 -75.5h-112c0 13.333 -1.66699 26 -5 38s-9 22.667 -17 32
s-18.333 16.833 -31 22.5s-28 8.5 -46 8.5c-17.333 0 -32 -2.83301 -44 -8.5s-21.833 -13.167 -29.5 -22.5s-13.334 -20 -17.001 -32s-5.5 -24.667 -5.5 -38h-113zM-721.999 -316c0 27.333 4.83496 52.5 14.502 75.5s23.5 42.833 41.5 59.5s40 29.667 66 39s55.333 14 88 14
s62 -4.66699 88 -14s48.167 -22.333 66.5 -39s32.333 -36.5 42 -59.5s14.5 -48.167 14.5 -75.5h-112c0 13.333 -1.83301 26 -5.5 38s-9.33398 22.667 -17.001 32s-17.834 16.833 -30.501 22.5s-28 8.5 -46 8.5c-17.333 0 -32.166 -2.83301 -44.499 -8.5
s-22.333 -13.167 -30 -22.5s-13.334 -20 -17.001 -32s-5.5 -24.667 -5.5 -38h-113zM-1300 990c0 27.333 4.83496 52.5 14.502 75.5s23.667 42.833 42 59.5s40.5 29.667 66.5 39s55.333 14 88 14s62 -4.66699 88 -14s48.167 -22.333 66.5 -39s32.333 -36.5 42 -59.5
s14.5 -48.167 14.5 -75.5h-112c0 13.333 -1.83301 26 -5.5 38s-9.33398 22.667 -17.001 32s-17.834 16.833 -30.501 22.5s-28 8.5 -46 8.5s-33.167 -2.83301 -45.5 -8.5s-22.333 -13.167 -30 -22.5s-13.167 -20 -16.5 -32s-5 -24.667 -5 -38h-114zM-1476 487
c0 27.333 4.83301 52.5 14.5 75.5s23.667 42.833 42 59.5s40.5 29.667 66.5 39s55 14 87 14c32.667 0 62 -4.66699 88 -14s48.167 -22.333 66.5 -39s32.333 -36.5 42 -59.5s14.5 -48.167 14.5 -75.5h-112c0 13.333 -1.66699 26 -5 38s-9 22.667 -17 32
s-18.333 16.833 -31 22.5s-28 8.5 -46 8.5c-17.333 0 -32.166 -2.83301 -44.499 -8.5s-22.333 -13.167 -30 -22.5s-13.334 -20 -17.001 -32s-5.5 -24.667 -5.5 -38h-113zM-1310 -32c0 27.333 4.83301 52.5 14.5 75.5s23.667 42.833 42 59.5s40.5 29.667 66.5 39s55 14 87 14
c32.667 0 62.167 -4.66699 88.5 -14s48.666 -22.333 66.999 -39s32.333 -36.5 42 -59.5s14.5 -48.167 14.5 -75.5h-113c0 13.333 -1.66699 26 -5 38s-9 22.667 -17 32s-18.333 16.833 -31 22.5s-28 8.5 -46 8.5c-17.333 0 -32.166 -2.83301 -44.499 -8.5
s-22.333 -13.167 -30 -22.5s-13.167 -20 -16.5 -32s-5 -24.667 -5 -38h-114z" />
    <glyph glyph-name="uni0489" unicode="&#x489;" horiz-adv-x="-900" 
d="M-361 -60l11 -14l-122 -339h-96l70 353h137zM-556 1126l-12 14l122 338h96l-70 -352h-136zM121 631l13 12l333 -124v-98l-346 71v139zM-1042 433l-13 -12l-333 124v98l346 -71v-139zM-118 1002l2 16l320 153l68 -68l-293 -200zM-802 21l-2 -17l-320 -153l-69 69l294 200z
M-942 860l-17 2l-148 326l65 69l198 -299zM19 161l17 -2l149 -325l-66 -71l-196 299z" />
    <glyph glyph-name="uni048A" unicode="&#x48a;" horiz-adv-x="1419" 
d="M964 1456h351v-1456h-351v918l-523 -918h-351v1456h351v-919zM1075 1848c0 -45.333 -8.66504 -86.833 -25.998 -124.5s-42 -70 -74 -97s-70.833 -48 -116.5 -63s-96.834 -22.5 -153.501 -22.5s-107.834 7.5 -153.501 22.5s-84.5 36 -116.5 63s-56.667 59.333 -74 97
s-26 79.167 -26 124.5h229c0 -16.667 2.5 -32.667 7.5 -48s13.167 -28.833 24.5 -40.5s25.833 -21 43.5 -28s39.5 -10.5 65.5 -10.5s47.833 3.5 65.5 10.5s32 16.333 43 28s18.833 25.167 23.5 40.5s7 31.333 7 48h231zM1553 6c0 -40.667 -5.33203 -81.332 -15.999 -121.999
s-25.334 -79.834 -44.001 -117.501s-40.5 -73 -65.5 -106s-51.833 -61.833 -80.5 -86.5l-170 80c10.667 22.667 22.167 45.5 34.5 68.5s23.833 47.5 34.5 73.5s19.667 54.5 27 85.5s11 66.167 11 105.5v233h270z" />
    <glyph glyph-name="uni048B" unicode="&#x48b;" horiz-adv-x="1148" 
d="M724 1082h338v-1082h-338v630l-297 -630h-339v1082h339v-628zM953 1538c0 -45.333 -8.66504 -86.833 -25.998 -124.5s-42 -70 -74 -97s-70.833 -48 -116.5 -63s-96.834 -22.5 -153.501 -22.5s-107.834 7.5 -153.501 22.5s-84.5 36 -116.5 63s-56.667 59.333 -74 97
s-26 79.167 -26 124.5h229c0 -16.667 2.5 -32.667 7.5 -48s13.167 -28.833 24.5 -40.5s25.833 -21 43.5 -28s39.5 -10.5 65.5 -10.5s47.833 3.5 65.5 10.5s32 16.333 43 28s18.833 25.167 23.5 40.5s7 31.333 7 48h231zM1302 6c0 -40.667 -5.33203 -81.332 -15.999 -121.999
s-25.334 -79.834 -44.001 -117.501s-40.5 -73 -65.5 -106s-51.833 -61.833 -80.5 -86.5l-170 80c10.667 22.667 22.167 45.5 34.5 68.5s23.833 47.5 34.5 73.5s19.667 54.5 27 85.5s11 66.167 11 105.5v233h270z" />
    <glyph glyph-name="uni048C" unicode="&#x48c;" horiz-adv-x="1276" 
d="M694 1085l-231 -0.000976562v-130h180c88.667 0 168.834 -11.333 240.501 -34s132.834 -54.5 183.501 -95.5s89.834 -90.667 117.501 -149s41.5 -122.833 41.5 -193.5c0 -71.333 -13.833 -136.666 -41.5 -195.999s-66.834 -110.333 -117.501 -153
s-111.834 -75.667 -183.501 -99s-151.834 -35 -240.501 -35h-532v1085h-147v191h147v180h352v-180h231v-191zM463 684.999v-415h180c37.333 0 70.5 5.5 99.5 16.5s53.333 26.333 73 46s34.5 42.5 44.5 68.5s15 54 15 84c0 28.667 -5 55.167 -15 79.5
s-24.833 45.5 -44.5 63.5s-44 32 -73 42s-62.167 15 -99.5 15h-180z" />
    <glyph glyph-name="uni048D" unicode="&#x48d;" horiz-adv-x="1157" 
d="M678 1265l-222 -0.00195312v-460h171c78 0 148 -9.83301 210 -29.5s114.5 -47.167 157.5 -82.5s75.833 -77.666 98.5 -126.999s34 -103.666 34 -162.999c0 -60 -11.333 -114.667 -34 -164s-55.5 -91.833 -98.5 -127.5s-95.5 -63.167 -157.5 -82.5s-132 -29 -210 -29h-509
v1265h-139v191h139v146h338v-146h222v-191zM456 545.998v-287.998h171c28.667 0 53.334 3.83301 74.001 11.5s37.667 18 51 31s23.166 28.5 29.499 46.5s9.5 37.333 9.5 58c0 20 -3.16699 38.667 -9.5 56s-16.166 32.166 -29.499 44.499s-30.333 22.166 -51 29.499
s-45.334 11 -74.001 11h-171z" />
    <glyph glyph-name="uni048E" unicode="&#x48e;" horiz-adv-x="1277" 
d="M1209 488l-94 -84l-469 519l93 85zM461 494v-494.001h-351v1456h581c87.333 0 166 -12.333 236 -37s129.333 -59 178 -103s86 -96.167 112 -156.5s39 -126.166 39 -197.499c0 -70.667 -13 -134.667 -39 -192s-63.333 -106.5 -112 -147.5s-108 -72.667 -178 -95
s-148.667 -33.5 -236 -33.5h-230zM461 764.999h230c36.667 0 68.167 4.83301 94.5 14.5s48 23.167 65 40.5s29.5 38 37.5 62s12 50 12 78c0 30 -4 58.5 -12 85.5s-20.5 50.833 -37.5 71.5s-38.667 37.167 -65 49.5s-57.833 18.5 -94.5 18.5h-230v-420z" />
    <glyph glyph-name="uni048F" unicode="&#x48f;" horiz-adv-x="1150" 
d="M1066 -3l-98 -82l-408 494l97 82zM1099 533c0 -78.667 -9 -151.667 -27 -219s-44.833 -125.833 -80.5 -175.5s-79.667 -88.5 -132 -116.5s-112.5 -42 -180.5 -42c-53.333 0 -100 9.66699 -140 29s-75 46 -105 80v-505h-337v1498h315l10 -100
c30.667 38 66.667 67.5 108 88.5s90.333 31.5 147 31.5c68.667 0 129.334 -13.167 182.001 -39.5s96.667 -63.5 132 -111.5s62.166 -105.667 80.499 -173s27.5 -142 27.5 -224v-21zM762 554c0 42 -2.99902 80.6699 -8.99902 116.003s-15.5 65.666 -28.5 90.999
s-30.333 45.166 -52 59.499s-47.834 21.5 -78.501 21.5c-41.333 0 -75 -7.16699 -101 -21.5s-45.667 -35.833 -59 -64.5v-426c14 -28.667 34 -50.834 60 -66.501s60 -23.5 102 -23.5c32 0 58.5 7.66699 79.5 23s38 36.166 51 62.499s22.167 57.333 27.5 93
s8 73.834 8 114.501v21z" />
    <glyph glyph-name="uni0490" unicode="&#x490;" horiz-adv-x="1144" 
d="M1112 1197h-18v-12h-633v-1185h-351v1456h665v388h337v-647z" />
    <glyph glyph-name="uni0491" unicode="&#x491;" horiz-adv-x="961" 
d="M913 822h-486v-822h-338v1082h486v317h338v-577z" />
    <glyph glyph-name="uni0492" unicode="&#x492;" horiz-adv-x="1142" 
d="M693 656h-234v-656h-351v656h-145v191h145v609h984v-271h-633v-338h234v-191z" />
    <glyph glyph-name="uni0493" unicode="&#x493;" horiz-adv-x="857" 
d="M644 446h-218v-446h-338v446h-174v191h174v445h764v-260h-426v-185h218v-191z" />
    <glyph glyph-name="uni0494" unicode="&#x494;" horiz-adv-x="1095" 
d="M1092 1185l-633 -0.00195312v-347h165c88 0 168.833 -11.667 242.5 -35s137.334 -59.166 191.001 -107.499s95.5 -109.666 125.5 -183.999s45 -162.5 45 -264.5c0 -44 -3.83301 -89.5 -11.5 -136.5s-20.334 -92.833 -38.001 -137.5s-41 -87.167 -70 -127.5
s-65 -75.666 -108 -105.999s-93.5 -54.333 -151.5 -72s-124.667 -26.5 -200 -26.5v245c38.667 0 71.5 6 98.5 18s49.5 27.833 67.5 47.5s32 41.667 42 66s17.5 49.166 22.5 74.499s8.16699 49.833 9.5 73.5s2 44.167 2 61.5c0 60.667 -6.16699 113 -18.5 157
s-30 80.333 -53 109s-51 50 -84 64s-70.167 21 -111.5 21h-165v-578h-351v1456h984v-271z" />
    <glyph glyph-name="uni0495" unicode="&#x495;" horiz-adv-x="1111" 
d="M853 822l-426.003 0.000976562v-150h21c86.667 0 166.334 -9.66699 239.001 -29s135.334 -49.166 188.001 -89.499s93.5 -91.333 122.5 -153s43.5 -134.834 43.5 -219.501c1.33301 -41.333 -5 -84 -19 -128s-36.167 -86.833 -66.5 -128.5
s-68.666 -80.834 -114.999 -117.501s-100.833 -67.667 -163.5 -93l-157 207c26 16 50 32.5 72 49.5s41.167 35.667 57.5 56s29.333 43.166 39 68.499s14.5 54 14.5 86c0.666992 78.667 -21.5 136.834 -66.5 174.501s-107.833 56.5 -188.5 56.5h-21v-412h-338v1082h764v-260z
" />
    <glyph glyph-name="uni0496" unicode="&#x496;" horiz-adv-x="2136" 
d="M1435 569h-178v-569h-349v569h-181l-280 -569h-436l439 795l-426 661h443l298 -571h143v571h349v-571h142l285 571h442l-415 -659l430 -797h-438zM2297 -356h-337v579h337v-579z" />
    <glyph glyph-name="uni0497" unicode="&#x497;" horiz-adv-x="1847" 
d="M1225 378h-128v-378h-337v378h-125l-185 -378h-400l322 579l-335 503h421l205 -389h97v389h337v-389h100l206 389h421l-337 -505l10 5l324 -582h-412zM1965 -356h-337v579h337v-579z" />
    <glyph glyph-name="uni0498" unicode="&#x498;" horiz-adv-x="1289" 
d="M637 873c64.667 0 111.169 15.834 139.502 47.501s42.5 75.5 42.5 131.5c0 20.667 -4 40.167 -12 58.5s-20.167 34.5 -36.5 48.5s-36.833 25.167 -61.5 33.5s-54 12.5 -88 12.5c-26 0 -50.5 -3.16699 -73.5 -9.5s-43 -15.833 -60 -28.5s-30.333 -28 -40 -46
s-14.5 -39 -14.5 -63h-350c0 65.333 14.5 123.833 43.5 175.5s68 95.334 117 131.001s106 63 171 82s133.833 28.5 206.5 28.5c83.333 0 158.833 -8.83301 226.5 -26.5s125.334 -43.834 173.001 -78.501s84.5 -77.834 110.5 -129.501s39 -111.5 39 -179.5
c0 -66.667 -19.5 -127.5 -58.5 -182.5s-92.833 -98.5 -161.5 -130.5c78.667 -28 138.834 -70.5 180.501 -127.5s62.5 -127.833 62.5 -212.5c0 -68 -14.167 -128.5 -42.5 -181.5s-67.833 -97.667 -118.5 -134s-111 -64 -181 -83s-146.667 -28.5 -230 -28.5
c-45.333 0 -90.5 3.5 -135.5 10.5s-88.167 18 -129.5 33s-79.833 33.833 -115.5 56.5s-66.834 49.667 -93.501 81s-47.5 67 -62.5 107s-22.5 85 -22.5 135h352c0 -22 5.16699 -42.333 15.5 -61s24.666 -35 42.999 -49s40.166 -24.833 65.499 -32.5s53 -11.5 83 -11.5
c34.667 0 65.667 4.33301 93 13s50.5 20.5 69.5 35.5s33.333 32.5 43 52.5s14.5 41.667 14.5 65c0 72 -17.333 122.833 -52 152.5s-85.334 44.5 -152.001 44.5h-187v260h187zM805.002 -497.999h-337v579h337v-579z" />
    <glyph glyph-name="uni0499" unicode="&#x499;" horiz-adv-x="1059" 
d="M535 652c42 0 72.4971 9.49414 91.4971 28.4941s28.5 43.833 28.5 74.5c0 12.667 -1.5 25.334 -4.5 38.001s-8.5 24 -16.5 34s-19.333 18.167 -34 24.5s-33.667 9.5 -57 9.5c-39.333 0 -70.666 -7.5 -93.999 -22.5s-35 -38.5 -35 -70.5h-337
c0 52.667 11.667 99.5 35 140.5s55 75.833 95 104.5s87 50.5 141 65.5s111.667 22.5 173 22.5c71.333 0 136 -6.83301 194 -20.5s107.5 -33.667 148.5 -60s72.667 -59.166 95 -98.499s33.5 -84.666 33.5 -135.999c0 -48 -14.5 -92.167 -43.5 -132.5
s-69.833 -72.5 -122.5 -96.5c60.667 -21.333 106.667 -53 138 -95s47 -94 47 -156c0 -51.333 -12.167 -97.166 -36.5 -137.499s-58.166 -74.5 -101.499 -102.5s-95 -49.333 -155 -64s-125.667 -22 -197 -22c-57.333 0 -113.5 6.66699 -168.5 20s-104.167 33.833 -147.5 61.5
s-78.333 62.834 -105 105.501s-40 93.667 -40 153h337c0 -27.333 11.333 -50.833 34 -70.5s60.334 -29.5 113.001 -29.5c25.333 0 46.333 3.33301 63 10s30 15.5 40 26.5s17.167 23.5 21.5 37.5s6.5 28 6.5 42c0 42.667 -11.833 73.334 -35.5 92.001s-58.5 28 -104.5 28
h-140v196h140zM707.997 -497.006h-337v579h337v-579z" />
    <glyph glyph-name="uni049A" unicode="&#x49a;" horiz-adv-x="1325" 
d="M625 576h-166v-576h-351v1456h351v-563h135l280 563h425l-400 -672l450 -784h-415zM1509 -356h-337v579h337v-579z" />
    <glyph glyph-name="uni049B" unicode="&#x49b;" horiz-adv-x="1174" 
d="M556 378h-101v-378h-338v1082h338v-389h97l172 389h432l-316 -500h1l347 -582h-457zM1327 -356h-337v579h337v-579z" />
    <glyph glyph-name="uni049C" unicode="&#x49c;" horiz-adv-x="1387" 
d="M1395 1456l-375 -652l5 3l409 -807h-450l-236 570h-39v-224h-172v224h-74v-570h-352v1456h352v-570h74v259h172v-259h18l225 570h443z" />
    <glyph glyph-name="uni049D" unicode="&#x49d;" horiz-adv-x="1273" 
d="M1262 1082l-270 -504l278 -578h-434l-117 378h-45v-163h-147v163h-72v-378h-337v1082h337v-389h72v183h147v-183h51l105 389h432z" />
    <glyph glyph-name="uni049E" unicode="&#x49e;" horiz-adv-x="1345" 
d="M645 576h-166v-576h-351v1106h-182v191h182v159h351v-159h197v-191h-197v-213h135l280 563h425l-400 -672l450 -784h-415z" />
    <glyph glyph-name="uni049F" unicode="&#x49f;" horiz-adv-x="1140" 
d="M549 403l-95 -95v-308h-337v1207h-190v191h190v139h337v-139h203v-191h-203v-486l34 45l254 316h404l-379 -445l404 -637h-386z" />
    <glyph glyph-name="uni04A0" unicode="&#x4a0;" horiz-adv-x="1697" 
d="M1014 576h-166v-576h-351v1195h-475v261h826v-563h135l280 563h425l-400 -672l450 -784h-415z" />
    <glyph glyph-name="uni04A1" unicode="&#x4a1;" horiz-adv-x="1487" 
d="M879 378h-101v-378h-338v821h-385v261h723v-389h97l172 389h432l-316 -500h1l347 -582h-457z" />
    <glyph glyph-name="uni04A2" unicode="&#x4a2;" horiz-adv-x="1439" 
d="M1327 0h-349v608h-517v-608h-351v1456h351v-578h517v578h349v-1456zM1571 -356h-337v579h337v-579z" />
    <glyph glyph-name="uni04A3" unicode="&#x4a3;" horiz-adv-x="1148" 
d="M1058 0h-338v401h-295v-401h-337v1082h337v-422h295v422h338v-1082zM1304 -356h-337v579h337v-579z" />
    <glyph glyph-name="uni04A4" unicode="&#x4a4;" horiz-adv-x="2036" 
d="M461 878h517v578h975v-260h-623l-3 2v-1198h-349v608h-517v-608h-351v1456h351v-578z" />
    <glyph glyph-name="uni04A5" unicode="&#x4a5;" horiz-adv-x="1442" 
d="M427 660h295v422h667v-260h-329v-822h-338v401h-295v-401h-337v1082h337v-422z" />
    <glyph glyph-name="uni04A6" unicode="&#x4a6;" horiz-adv-x="2162" 
d="M1333 835l167.999 -0.00195312c88 0 168.833 -11.667 242.5 -35s137.334 -59.166 191.001 -107.499s95.5 -109.666 125.5 -183.999s45 -162.5 45 -264.5c0 -44 -3.83301 -89.5 -11.5 -136.5s-20.334 -92.833 -38 -137.5c-17.667 -44.667 -41 -87.167 -70 -127.5
s-65 -75.666 -108 -105.999s-93.5 -54.333 -151.5 -72s-124.667 -26.5 -200 -26.5v245c38.667 0 71.5 6 98.5 18s49.5 27.833 67.5 47.5s32 41.667 42 66s17.5 49.166 22.5 74.499s8.16699 49.833 9.5 73.5s2 44.167 2 61.5c0 60.667 -6.16699 113 -18.5 157
s-30 80.333 -53 109s-51 50 -84 64s-70.167 21 -111.5 21h-168v-575h-351v1185h-523v-1185h-351v1456h1225v-621z" />
    <glyph glyph-name="uni04A7" unicode="&#x4a7;" horiz-adv-x="1766" 
d="M1064 682l49.9971 0.00195312c90 0 172.5 -9.66699 247.5 -29s139.667 -49.166 194 -89.499s96.5 -91.333 126.5 -153s45 -134.834 45 -219.501c1.33301 -41.333 -5 -84 -19 -128s-36.167 -86.833 -66.5 -128.5s-68.666 -80.834 -114.999 -117.501
s-100.833 -67.667 -163.5 -93l-157 207c26 16 50 32.5 72 49.5s41.167 35.667 57.5 56s29.333 43.166 39 68.499s14.5 54 14.5 86c0.666992 39.333 -5.16602 73.5 -17.499 102.5s-30.333 53 -54 72s-52.667 33.167 -87 42.5s-73.166 14 -116.499 14h-50v-422h-339v822h-298
v-822h-337v1082h974v-400z" />
    <glyph glyph-name="uni04A8" unicode="&#x4a8;" horiz-adv-x="1713" 
d="M1608 -8c-77.333 0 -150.669 5.66992 -220.002 17.0029s-134.666 27.666 -195.999 48.999c-53.333 -25.333 -110.333 -44.833 -171 -58.5s-125.334 -20.5 -194.001 -20.5c-111.333 0 -212.5 17.333 -303.5 52s-169 82.334 -234 143.001s-115.167 132 -150.5 214
s-53 170.667 -53 266v229c0 84 13.333 162.167 40 234.5s64.334 135.166 113.001 188.499s107 95.166 175 125.499s143.667 45.5 227 45.5v-282c-28 0 -53.167 -7.83301 -75.5 -23.5s-41.166 -37.5 -56.499 -65.5s-27 -60.833 -35 -98.5s-12 -78.5 -12 -122.5v-231
c0 -57.333 8.16699 -110 24.5 -158s40.166 -89.5 71.499 -124.5s69.5 -62.333 114.5 -82s96.5 -29.5 154.5 -29.5h19.5c6.33301 0 12.5 0.333008 18.5 1c-62 64 -109.333 136.667 -142 218s-49 170 -49 266v184c0 77.333 10.5 149.5 31.5 216.5s50.5 125 88.5 174
s83.833 87.5 137.5 115.5s113.5 42 179.5 42c72.667 0 139 -15.167 199 -45.5s111.333 -72.666 154 -126.999s75.667 -119.333 99 -195s35 -158.5 35 -248.5v-140c0 -88.667 -13.167 -171.834 -39.5 -249.501s-64.166 -147.834 -113.499 -210.501
c25.333 -4.66699 51.5 -8.16699 78.5 -10.5s55.167 -3.5 84.5 -3.5v-255zM999.997 743.003c0 -66 12 -127.834 36 -185.501s59.667 -108.834 107 -153.501c33.333 41.333 58.833 88.833 76.5 142.5s26.5 111.834 26.5 174.501v187c0 60.667 -3 109.667 -9 147
s-14.667 66.5 -26 87.5s-25.333 35.167 -42 42.5s-36 11 -58 11c-18 0 -34 -3.83301 -48 -11.5s-25.667 -21.5 -35 -41.5s-16.333 -47.167 -21 -81.5s-7 -78.166 -7 -131.499v-187z" />
    <glyph glyph-name="uni04A9" unicode="&#x4a9;" horiz-adv-x="1367" 
d="M1309 -32c-72.667 0 -139 4.33398 -199 13.001s-115 21.334 -165 38.001c-40 -12.667 -82 -22.5 -126 -29.5s-90.333 -10.5 -139 -10.5c-90.667 0 -173.334 13.667 -248.001 41s-138.5 64.833 -191.5 112.5s-94.167 104.167 -123.5 169.5s-44 136 -44 212v113
c0 68 11.167 130.833 33.5 188.5s54 107.834 95 150.501s90.167 76 147.5 100s121 36 191 36v-268c-32.667 -7.33301 -58.5 -28.5 -77.5 -63.5s-28.5 -82.167 -28.5 -141.5v-115c0 -34.667 4.66699 -67 14 -97s22.833 -56.333 40.5 -79s39.167 -41.334 64.5 -56.001
s54 -24.334 86 -29.001c-22 38.667 -38.333 80 -49 124s-16 90 -16 138v174c0 58 8.5 112 25.5 162s41 93.5 72 130.5s68.333 66.167 112 87.5s91.834 32 144.501 32c56 0 107.167 -12 153.5 -36s86 -56.833 119 -98.5s58.5 -90.834 76.5 -147.501s27 -118 27 -184v-164
c0 -64 -12.167 -123.5 -36.5 -178.5s-59.5 -103.833 -105.5 -146.5c44.667 -8 93.667 -12 147 -12v-166zM797 497.001c0 -74.667 23 -140.336 69 -197.003c32 21.333 56.833 48.5 74.5 81.5s26.5 69.833 26.5 110.5v166c0 24.667 -2 47.667 -6 69
s-9.83301 39.833 -17.5 55.5s-16.667 28 -27 37s-21.833 13.5 -34.5 13.5s-24.167 -4.16699 -34.5 -12.5s-19.333 -19.666 -27 -33.999s-13.5 -31.166 -17.5 -50.499s-6 -39.666 -6 -60.999v-178z" />
    <glyph glyph-name="uni04AA" unicode="&#x4aa;" horiz-adv-x="1344" 
d="M1288 493c-3.33301 -76 -19.6709 -145.501 -49.0039 -208.501s-70 -117 -122 -162s-114.333 -80 -187 -105s-154 -37.5 -244 -37.5c-97.333 0 -184.166 16.333 -260.499 49s-141 79.5 -194 140.5s-93.333 135.333 -121 223s-41.5 186.167 -41.5 295.5v79
c0 109.333 14.5 207.833 43.5 295.5s70.333 162.167 124 223.5s118.167 108.5 193.5 141.5s159.333 49.5 252 49.5c94.667 0 178.5 -13.167 251.5 -39.5s134.833 -62.833 185.5 -109.5s90.334 -102 119.001 -166s46.334 -133.667 53.001 -209h-350
c-1.33301 40.667 -6.83301 76.667 -16.5 108s-24.834 57.333 -45.501 78s-47 36.334 -79 47.001s-71.333 16 -118 16c-43.333 0 -81 -8 -113 -24s-58.667 -41.333 -80 -76s-37.166 -79.5 -47.499 -134.5s-15.5 -121.167 -15.5 -198.5v-81
c0 -77.333 4.66699 -143.333 14 -198s24.166 -99.5 44.499 -134.5s47 -60.5 80 -76.5s73.5 -24 121.5 -24c80.667 0 142.334 19 185.001 57s65.334 98.333 68.001 181h349zM854.995 -488.001h-337v579h337v-579z" />
    <glyph glyph-name="uni04AB" unicode="&#x4ab;" horiz-adv-x="1064" 
d="M552 240c47.333 0 84.001 12.833 110.001 38.5s38.667 61.5 38 107.5h316c0 -61.333 -11.5 -116.833 -34.5 -166.5s-54.833 -92.334 -95.5 -128.001s-89 -63.167 -145 -82.5s-116.333 -29 -181 -29c-84.667 0 -158.667 14 -222 42s-116.166 66.5 -158.499 115.5
s-74.166 107 -95.499 174s-32 139.5 -32 217.5v23c0 78 10.667 150.667 32 218s53 125.5 95 174.5s94.5 87.5 157.5 115.5s136.5 42 220.5 42c68 0 130.167 -9.66699 186.5 -29s104.666 -47.5 144.999 -84.5s71.666 -82.5 93.999 -136.5s33.5 -115.333 33.5 -184h-316
c0 24 -2.83301 46.667 -8.5 68s-14.834 39.833 -27.501 55.5s-28.5 28 -47.5 37s-41.5 13.5 -67.5 13.5c-34.667 0 -62.5 -7.83301 -83.5 -23.5s-37.167 -36.667 -48.5 -63s-18.833 -57.166 -22.5 -92.499s-5.5 -72.333 -5.5 -111v-23c0 -40 1.83301 -77.5 5.5 -112.5
s11.167 -65.667 22.5 -92s27.833 -47 49.5 -62s50.167 -22.5 85.5 -22.5zM735.001 -488h-337v579h337v-579z" />
    <glyph glyph-name="uni04AC" unicode="&#x4ac;" horiz-adv-x="1291" 
d="M1253 1185h-437v-1185h-351v1185h-429v271h1217v-271zM1016 -356h-337v579h337v-579z" />
    <glyph glyph-name="uni04AD" unicode="&#x4ad;" horiz-adv-x="1073" 
d="M1042 824h-341v-824h-339v824h-336v258h1016v-258zM947 -356h-337v579h337v-579z" />
    <glyph glyph-name="uni04AE" unicode="&#x4ae;" horiz-adv-x="1286" 
d="M643 824l268 632h379l-469 -933v-523h-356v523l-468 933h377z" />
    <glyph glyph-name="uni04AF" unicode="&#x4af;" horiz-adv-x="1053" 
d="M528 371l164 711h355l-352 -1082h-4v-417h-337v417h-2l-352 1082h356z" />
    <glyph glyph-name="uni04B0" unicode="&#x4b0;" horiz-adv-x="1286" 
d="M1019 513h-198v-513h-356v513h-176v191h85l-377 752h377l269 -632l268 632h379l-378 -752h107v-191z" />
    <glyph glyph-name="uni04B1" unicode="&#x4b1;" horiz-adv-x="1053" 
d="M897 20h-196l-6 -20h-4v-417h-337v417h-2l-7 20h-178v191h116l-283 871h356l172 -711l164 711h355l-284 -871h134v-191z" />
    <glyph glyph-name="uni04B2" unicode="&#x4b2;" horiz-adv-x="1307" 
d="M653 972l238 484h401l-407 -722l418 -734h-405l-245 493l-245 -493h-404l417 734l-406 722h400zM1385 -356h-337v579h337v-579z" />
    <glyph glyph-name="uni04B3" unicode="&#x4b3;" horiz-adv-x="1054" 
d="M533 784l157 298h350l-285 -527l299 -555h-352l-170 320l-167 -320h-354l300 555l-284 527h354zM1115 -356h-337v579h337v-579z" />
    <glyph glyph-name="uni04B4" unicode="&#x4b4;" horiz-adv-x="1824" 
d="M335 1195h-312v261h965v-261h-304v-925h523v1186h352v-1189h223l-20 -618h-331v351h-1096v1195z" />
    <glyph glyph-name="uni04B5" unicode="&#x4b5;" horiz-adv-x="1422" 
d="M247 821h-195v261h707v-261h-175v-561h298v822h339v-824h178l-20 -579h-318v321h-814v821z" />
    <glyph glyph-name="uni04B6" unicode="&#x4b6;" horiz-adv-x="1431" 
d="M1323 1456v-1456h-350v538c-20.667 -3.33301 -42.834 -6.33301 -66.501 -9s-46.5 -4.83398 -68.5 -6.50098s-41.667 -3 -59 -4s-30 -1.5 -38 -1.5c-92 0 -175.333 9.83301 -250 29.5s-138.5 50 -191.5 91s-94 92.5 -123 154.5s-43.5 135.667 -43.5 221v443h351v-443
c0 -44 5.33301 -80.5 16 -109.5s26.667 -52.167 48 -69.5s48 -29.5 80 -36.5s69.667 -10.5 113 -10.5c10 0 24 0.5 42 1.5s37.833 2.33301 59.5 4s43.834 3.66699 66.501 6s44 5.16602 64 8.49902v649h350zM1562 -355.998h-337v579h337v-579z" />
    <glyph glyph-name="uni04B7" unicode="&#x4b7;" horiz-adv-x="1142" 
d="M1056 0l-338.999 -0.000976562v325c-19.333 -3.33301 -37.5 -5.83301 -54.5 -7.5s-32.167 -2.5 -45.5 -2.5c-84 0 -159.333 8 -226 24s-123 40.833 -169 74.5s-81.167 76.834 -105.5 129.501s-36.5 116 -36.5 190v349h337v-349c0 -32.667 3.5 -59.334 10.5 -80.001
s18.333 -36.667 34 -48s36.167 -19.166 61.5 -23.499s56.666 -6.5 93.999 -6.5c32.667 0 66 3 100 9v498h339v-1082zM1302 -356.001h-337v579h337v-579z" />
    <glyph glyph-name="uni04B8" unicode="&#x4b8;" horiz-adv-x="1391" 
d="M764 290h-170v785h170v-785zM1280 1456v-1456h-350v538c-20.667 -3.33301 -42.834 -6.33301 -66.501 -9s-46.5 -4.83398 -68.5 -6.50098s-41.667 -3 -59 -4s-30 -1.5 -38 -1.5c-92 0 -175.333 9.83301 -250 29.5s-138.5 50 -191.5 91s-94 92.5 -123 154.5
s-43.5 135.667 -43.5 221v443h351v-443c0 -44 5.33301 -80.5 16 -109.5s26.667 -52.167 48 -69.5s48 -29.5 80 -36.5s69.667 -10.5 113 -10.5c10 0 24 0.5 42 1.5s37.833 2.33301 59.5 4s43.834 3.66699 66.501 6s44 5.16602 64 8.49902v649h350z" />
    <glyph glyph-name="uni04B9" unicode="&#x4b9;" horiz-adv-x="1156" 
d="M665 160h-170v681h170v-681zM1068 0l-338.999 -0.000976562v325c-19.333 -3.33301 -37.5 -5.83301 -54.5 -7.5s-32.167 -2.5 -45.5 -2.5c-84 0 -159.333 8 -226 24s-123 40.833 -169 74.5s-81.167 76.834 -105.5 129.501s-36.5 116 -36.5 190v349h337v-349
c0 -32.667 3.5 -59.334 10.5 -80.001s18.333 -36.667 34 -48s36.167 -19.166 61.5 -23.499s56.666 -6.5 93.999 -6.5c32.667 0 66 3 100 9v498h339v-1082z" />
    <glyph glyph-name="uni04BA" unicode="&#x4ba;" horiz-adv-x="1450" 
d="M138 0l-0.00292969 1456h350v-538c20.667 3.33301 42.834 6.33301 66.501 9s46.334 4.83398 68.001 6.50098s41.334 3 59.001 4s30.5 1.5 38.5 1.5c92 0 175.333 -9.83301 250 -29.5s138.5 -50 191.5 -91s94 -92.667 123 -155s43.5 -135.833 43.5 -220.5v-443h-351v443
c0 44 -5.33301 80.5 -16 109.5s-26.667 52.167 -48 69.5s-48.166 29.5 -80.499 36.5s-69.833 10.5 -112.5 10.5c-10.667 0 -25 -0.5 -43 -1.5s-37.833 -2.33301 -59.5 -4s-43.834 -3.66699 -66.501 -6s-43.667 -5.16602 -63 -8.49902v-649h-350z" />
    <glyph glyph-name="uni04BB" unicode="&#x4bb;" horiz-adv-x="1156" 
d="M424 966c34 42.667 74.168 76.001 120.501 100.001s98.166 36 155.499 36c54 0 103.167 -7.66699 147.5 -23s82.5 -40 114.5 -74s56.833 -78.333 74.5 -133s26.5 -121.334 26.5 -200.001v-672h-338v674c0 32.667 -3.5 59.834 -10.5 81.501s-17.167 39 -30.5 52
s-29.5 22 -48.5 27s-40.5 7.5 -64.5 7.5c-37.333 0 -67.833 -5.83301 -91.5 -17.5s-42.167 -27.834 -55.5 -48.501v-776h-337v1536h337v-570z" />
    <glyph glyph-name="uni04BC" unicode="&#x4bc;" horiz-adv-x="1527" 
d="M930 -23c-116 0 -216.998 15.5 -302.998 46.5s-157.667 74.5 -215 130.5s-100.166 122.5 -128.499 199.5s-42.5 161.5 -42.5 253.5v28c-102 18.667 -180.833 66.834 -236.5 144.501s-83.5 178.5 -83.5 302.5h219c0 -102 33.667 -169.333 101 -202
c1.33301 87.333 18.166 167.5 50.499 240.5s76.333 135.833 132 188.5s121.167 93.667 196.5 123s157 43.666 245 42.999c94 0 177.167 -16.333 249.5 -49s132.833 -79 181.5 -139s85.5 -132.667 110.5 -218s37.5 -180.666 37.5 -285.999v-178h-853c0 -46 5.5 -89 16.5 -129
s29.667 -75 56 -105s61.166 -53.667 104.499 -71s97.333 -26 162 -26c86.667 0 162.667 6.5 228 19.5s117 25.5 155 37.5l49 -282c-10.667 -5.33301 -28.334 -12 -53.001 -20s-55.5 -15.833 -92.5 -23.5s-79.5 -14.334 -127.5 -20.001s-101 -8.5 -159 -8.5zM865.002 1177
c-45.333 0 -84.833 -7.66699 -118.5 -23s-61.834 -36.333 -84.501 -63s-40 -58 -52 -94s-18.333 -74.333 -19 -115h503v31c0 36.667 -4.16699 71 -12.5 103s-21.666 60 -39.999 84s-42 42.833 -71 56.5s-64.167 20.5 -105.5 20.5z" />
    <glyph glyph-name="uni04BD" unicode="&#x4bd;" horiz-adv-x="1230" 
d="M788 -20c-82 0 -155.834 12.1689 -221.501 36.502s-122.167 57.666 -169.5 99.999s-84.833 91.833 -112.5 148.5s-44.5 117.334 -50.5 182.001c-101.333 18.667 -179.666 64.167 -234.999 136.5s-83 165.833 -83 280.5h194c0 -52 10.833 -95.667 32.5 -131
s53.834 -60.666 96.501 -75.999c9.33301 64.667 27.166 124.167 53.499 178.5s60.833 101.166 103.5 140.499s93.667 70.166 153 92.499s127 33.5 203 33.5c76.667 0 145.5 -12.333 206.5 -37s112.667 -60 155 -106s74.666 -101.667 96.999 -167
s33.5 -138.666 33.5 -219.999v-137h-670c12 -60.667 38.333 -108.334 79 -143.001s93.334 -52 158.001 -52c46 0 91.167 8.66699 135.5 26s82.5 46 114.5 86l154 -182c-17.333 -24 -39.5 -47.333 -66.5 -70s-58.5 -42.834 -94.5 -60.501s-76.333 -32 -121 -43
s-93 -16.5 -145 -16.5zM749.999 842.002c-28.667 0 -53.3311 -5 -73.998 -15s-37.834 -23.667 -51.501 -41s-24.5 -38 -32.5 -62s-14 -50 -18 -78h340v26c1.33301 54 -12.334 95.833 -41.001 125.5s-69.667 44.5 -123 44.5z" />
    <glyph glyph-name="uni04BE" unicode="&#x4be;" horiz-adv-x="1527" 
d="M930 -23c-116 0 -216.998 15.5 -302.998 46.5s-157.667 74.5 -215 130.5s-100.166 122.5 -128.499 199.5s-42.5 161.5 -42.5 253.5v28c-102 18.667 -180.833 66.834 -236.5 144.501s-83.5 178.5 -83.5 302.5h219c0 -102 33.667 -169.333 101 -202
c1.33301 87.333 18.166 167.5 50.499 240.5s76.333 135.833 132 188.5s121.167 93.667 196.5 123s157 43.666 245 42.999c94 0 177.167 -16.333 249.5 -49s132.833 -79 181.5 -139s85.5 -132.667 110.5 -218s37.5 -180.666 37.5 -285.999v-178h-853c0 -46 5.5 -89 16.5 -129
s29.667 -75 56 -105s61.166 -53.667 104.499 -71s97.333 -26 162 -26c86.667 0 162.667 6.5 228 19.5s117 25.5 155 37.5l49 -282c-10.667 -5.33301 -28.334 -12 -53.001 -20s-55.5 -15.833 -92.5 -23.5s-79.5 -14.334 -127.5 -20.001s-101 -8.5 -159 -8.5zM865.002 1177
c-45.333 0 -84.833 -7.66699 -118.5 -23s-61.834 -36.333 -84.501 -63s-40 -58 -52 -94s-18.333 -74.333 -19 -115h503v31c0 36.667 -4.16699 71 -12.5 103s-21.666 60 -39.999 84s-42 42.833 -71 56.5s-64.167 20.5 -105.5 20.5zM1092 -488h-337v579h337v-579z" />
    <glyph glyph-name="uni04BF" unicode="&#x4bf;" horiz-adv-x="1230" 
d="M788 -20c-82 0 -155.834 12.1689 -221.501 36.502s-122.167 57.666 -169.5 99.999s-84.833 91.833 -112.5 148.5s-44.5 117.334 -50.5 182.001c-101.333 18.667 -179.666 64.167 -234.999 136.5s-83 165.833 -83 280.5h194c0 -52 10.833 -95.667 32.5 -131
s53.834 -60.666 96.501 -75.999c9.33301 64.667 27.166 124.167 53.499 178.5s60.833 101.166 103.5 140.499s93.667 70.166 153 92.499s127 33.5 203 33.5c76.667 0 145.5 -12.333 206.5 -37s112.667 -60 155 -106s74.666 -101.667 96.999 -167
s33.5 -138.666 33.5 -219.999v-137h-670c12 -60.667 38.333 -108.334 79 -143.001s93.334 -52 158.001 -52c46 0 91.167 8.66699 135.5 26s82.5 46 114.5 86l154 -182c-17.333 -24 -39.5 -47.333 -66.5 -70s-58.5 -42.834 -94.5 -60.501s-76.333 -32 -121 -43
s-93 -16.5 -145 -16.5zM749.999 842.002c-28.667 0 -53.3311 -5 -73.998 -15s-37.834 -23.667 -51.501 -41s-24.5 -38 -32.5 -62s-14 -50 -18 -78h340v26c1.33301 54 -12.334 95.833 -41.001 125.5s-69.667 44.5 -123 44.5zM891.002 -474.998h-337v579h337v-579z" />
    <glyph glyph-name="uni04C0" unicode="&#x4c0;" horiz-adv-x="618" 
d="M484 0h-350v1456h350v-1456z" />
    <glyph glyph-name="uni04C1" unicode="&#x4c1;" horiz-adv-x="2136" 
d="M1435 569h-178v-569h-349v569h-181l-280 -569h-436l439 795l-426 661h443l298 -571h143v571h349v-571h142l285 571h442l-415 -659l430 -797h-438zM1441 1848c0 -45.333 -8.66504 -86.833 -25.998 -124.5s-42 -70 -74 -97s-70.833 -48 -116.5 -63
s-96.834 -22.5 -153.501 -22.5s-107.834 7.5 -153.501 22.5s-84.5 36 -116.5 63s-56.667 59.333 -74 97s-26 79.167 -26 124.5h229c0 -16.667 2.5 -32.667 7.5 -48s13.167 -28.833 24.5 -40.5s25.833 -21 43.5 -28s39.5 -10.5 65.5 -10.5s47.833 3.5 65.5 10.5
s32 16.333 43 28s18.833 25.167 23.5 40.5s7 31.333 7 48h231z" />
    <glyph glyph-name="uni04C2" unicode="&#x4c2;" horiz-adv-x="1847" 
d="M1225 378h-128v-378h-337v378h-125l-185 -378h-400l322 579l-335 503h421l205 -389h97v389h337v-389h100l206 389h421l-337 -505l10 5l324 -582h-412zM1306 1538c0 -45.333 -8.66504 -86.833 -25.998 -124.5s-42 -70 -74 -97s-70.833 -48 -116.5 -63
s-96.834 -22.5 -153.501 -22.5s-107.834 7.5 -153.501 22.5s-84.5 36 -116.5 63s-56.667 59.333 -74 97s-26 79.167 -26 124.5h229c0 -16.667 2.5 -32.667 7.5 -48s13.167 -28.833 24.5 -40.5s25.833 -21 43.5 -28s39.5 -10.5 65.5 -10.5s47.833 3.5 65.5 10.5
s32 16.333 43 28s18.833 25.167 23.5 40.5s7 31.333 7 48h231z" />
    <glyph glyph-name="uni04C3" unicode="&#x4c3;" horiz-adv-x="1348" 
d="M867 823c68 -11.333 130.167 -31.501 186.5 -60.501s104.833 -67.333 145.5 -115s72.167 -105.167 94.5 -172.5s33.5 -145 33.5 -233c0 -42 -3.83301 -86.333 -11.5 -133s-20.334 -92.5 -38.001 -137.5s-41.167 -88.167 -70.5 -129.5s-65.833 -77.5 -109.5 -108.5
s-95.167 -55.833 -154.5 -74.5s-127.666 -28 -204.999 -28l1 255c38.667 0 71.5 6.16699 98.5 18.5s49.167 28.333 66.5 48s30.833 41.834 40.5 66.501s16.834 49.5 21.501 74.5s7.5 48.5 8.5 70.5s1.5 40.667 1.5 56c0.666992 60 -4.83301 111.833 -16.5 155.5
s-28.667 79.5 -51 107.5s-49.333 48.833 -81 62.5s-66.834 20.5 -105.501 20.5h-259v-566h-352v1456h352v-572h87l277 572h443z" />
    <glyph glyph-name="uni04C4" unicode="&#x4c4;" horiz-adv-x="1195" 
d="M842 591c47.333 -17.333 90.002 -39.335 128.002 -66.002s70.167 -58.334 96.5 -95.001s46.666 -78.5 60.999 -125.5s21.5 -99.167 21.5 -156.5c1.33301 -41.333 -5.16699 -84.166 -19.5 -128.499s-36.5 -87.333 -66.5 -129s-68.167 -80.667 -114.5 -117
s-100.833 -67.166 -163.5 -92.499l-158 207c26 15.333 50.167 31.5 72.5 48.5s41.666 35.833 57.999 56.5s29.333 43.667 39 69s14.5 54 14.5 86c0.666992 36.667 -4.33301 68.667 -15 96s-26.167 50.5 -46.5 69.5s-45.333 33.833 -75 44.5s-63.5 17.334 -101.5 20.001h-118
v-378h-337v1082h337v-389h90l179 389h432z" />
    <glyph glyph-name="uni04C5" unicode="&#x4c5;" horiz-adv-x="1444" 
d="M1335 1456l-0.000976562 -1456h-351v1185h-326l-18 -373c-8 -153.333 -24 -281.833 -48 -385.5s-57.333 -187.167 -100 -250.5s-94.5 -108.5 -155.5 -135.5s-132.5 -40.5 -214.5 -40.5h-86v270h39c31.333 4 57.833 10.5 79.5 19.5s39.834 22.167 54.501 39.5
s26.5 39.166 35.5 65.499s16.167 59 21.5 98s9.5 84.667 12.5 137s6.16699 113.166 9.5 182.499l32 644h1015zM1570 6.00195c0 -40.667 -5.33203 -81.332 -15.999 -121.999s-25.334 -79.834 -44.001 -117.501s-40.5 -73 -65.5 -106s-51.833 -61.833 -80.5 -86.5l-170 80
c10.667 22.667 22.167 45.5 34.5 68.5s23.833 47.5 34.5 73.5s19.667 54.5 27 85.5s11 66.167 11 105.5v233h270z" />
    <glyph glyph-name="uni04C6" unicode="&#x4c6;" horiz-adv-x="1150" 
d="M1061 1082v-1082h-337v822h-200l-8 -201c-4.66699 -103.333 -15 -193.666 -31 -270.999s-41.5 -142 -76.5 -194s-81.167 -91 -138.5 -117s-129.333 -39 -216 -39h-41l-8 261h27c34.667 0 61.167 6.16699 79.5 18.5s32 32.666 41 60.999s14.667 65.333 17 111l8.5 169.5
l20 461h863zM1301 6c0 -40.667 -5.33203 -81.332 -15.999 -121.999s-25.334 -79.834 -44.001 -117.501s-40.5 -73 -65.5 -106s-51.833 -61.833 -80.5 -86.5l-170 80c10.667 22.667 22.167 45.5 34.5 68.5s23.833 47.5 34.5 73.5s19.667 54.5 27 85.5s11 66.167 11 105.5v233
h270z" />
    <glyph glyph-name="uni04C7" unicode="&#x4c7;" horiz-adv-x="1441" 
d="M459 1456v-605.999h523v606h351v-1463c0 -69.333 -9.5 -130.833 -28.5 -184.5s-46.5 -98.667 -82.5 -135s-79.833 -63.833 -131.5 -82.5s-109.834 -28 -174.501 -28c-29.333 0 -56.666 1.16699 -81.999 3.5s-53 6.83301 -83 13.5l14 265
c8.66699 -2 16.667 -3.66699 24 -5s14.5 -2.5 21.5 -3.5s14.833 -1.66699 23.5 -2s19 -0.5 31 -0.5c38 0 67 13.167 87 39.5s30 66.166 30 119.499v587h-523v-580h-351v1456h351z" />
    <glyph glyph-name="uni04C8" unicode="&#x4c8;" horiz-adv-x="1151" 
d="M427 1082l0.00195312 -421.999h295v422h338v-1097c0 -68 -9.33301 -128.333 -28 -181s-45.667 -96.834 -81 -132.501s-78.333 -62.667 -129 -81s-107.667 -27.5 -171 -27.5c-28.667 0 -55.5 1.16699 -80.5 3.5s-51.833 6.83301 -80.5 13.5l14 255
c17.333 -4 32.666 -7 45.999 -9s31.666 -3 54.999 -3c38 0 67 13.5 87 40.5s30 67.5 30 121.5v416h-295v-401h-337v1082h337z" />
    <glyph glyph-name="uni04C9" unicode="&#x4c9;" horiz-adv-x="1439" 
d="M1327 0h-349v608h-517v-608h-351v1456h351v-578h517v578h349v-1456zM1565 6c0 -40.667 -5.33203 -81.332 -15.999 -121.999s-25.334 -79.834 -44.001 -117.501s-40.5 -73 -65.5 -106s-51.833 -61.833 -80.5 -86.5l-170 80c10.667 22.667 22.167 45.5 34.5 68.5
s23.833 47.5 34.5 73.5s19.667 54.5 27 85.5s11 66.167 11 105.5v233h270z" />
    <glyph glyph-name="uni04CA" unicode="&#x4ca;" horiz-adv-x="1148" 
d="M1058 0h-338v401h-295v-401h-337v1082h337v-422h295v422h338v-1082zM1298 6c0 -40.667 -5.33203 -81.332 -15.999 -121.999s-25.334 -79.834 -44.001 -117.501s-40.5 -73 -65.5 -106s-51.833 -61.833 -80.5 -86.5l-170 80c10.667 22.667 22.167 45.5 34.5 68.5
s23.833 47.5 34.5 73.5s19.667 54.5 27 85.5s11 66.167 11 105.5v233h270z" />
    <glyph glyph-name="uni04CB" unicode="&#x4cb;" horiz-adv-x="1431" 
d="M1323 1456v-1456h-350v538c-20.667 -3.33301 -42.834 -6.33301 -66.501 -9s-46.5 -4.83398 -68.5 -6.50098s-41.667 -3 -59 -4s-30 -1.5 -38 -1.5c-92 0 -175.333 9.83301 -250 29.5s-138.5 50 -191.5 91s-94 92.5 -123 154.5s-43.5 135.667 -43.5 221v443h351v-443
c0 -44 5.33301 -80.5 16 -109.5s26.667 -52.167 48 -69.5s48 -29.5 80 -36.5s69.667 -10.5 113 -10.5c10 0 24 0.5 42 1.5s37.833 2.33301 59.5 4s43.834 3.66699 66.501 6s44 5.16602 64 8.49902v649h350zM1059 -355.998h-337v579h337v-579z" />
    <glyph glyph-name="uni04CC" unicode="&#x4cc;" horiz-adv-x="1142" 
d="M1056 0l-338.999 -0.000976562v325c-19.333 -3.33301 -37.5 -5.83301 -54.5 -7.5s-32.167 -2.5 -45.5 -2.5c-84 0 -159.333 8 -226 24s-123 40.833 -169 74.5s-81.167 76.834 -105.5 129.501s-36.5 116 -36.5 190v349h337v-349c0 -32.667 3.5 -59.334 10.5 -80.001
s18.333 -36.667 34 -48s36.167 -19.166 61.5 -23.499s56.666 -6.5 93.999 -6.5c32.667 0 66 3 100 9v498h339v-1082zM799.001 -356.001h-337v579h337v-579z" />
    <glyph glyph-name="uni04CD" unicode="&#x4cd;" horiz-adv-x="1795" 
d="M571 1456l325 -1013l324 1013h462v-1456h-352v340l34 696l-352 -1036h-232l-353 1037l34 -697v-340h-351v1456h461zM1920 6c0 -40.667 -5.33203 -81.332 -15.999 -121.999s-25.334 -79.834 -44.001 -117.501s-40.5 -73 -65.5 -106s-51.833 -61.833 -80.5 -86.5l-170 80
c10.667 22.667 22.167 45.5 34.5 68.5s23.833 47.5 34.5 73.5s19.667 54.5 27 85.5s11 66.167 11 105.5v233h270z" />
    <glyph glyph-name="uni04CE" unicode="&#x4ce;" horiz-adv-x="1572" 
d="M772 372l245 710h424v-1082h-338v600l-218 -600h-224l-206 568v-568h-338v1082h414zM1681 6c0 -40.667 -5.33203 -81.332 -15.999 -121.999s-25.334 -79.834 -44.001 -117.501s-40.5 -73 -65.5 -106s-51.833 -61.833 -80.5 -86.5l-170 80
c10.667 22.667 22.167 45.5 34.5 68.5s23.833 47.5 34.5 73.5s19.667 54.5 27 85.5s11 66.167 11 105.5v233h270z" />
    <glyph glyph-name="uni04CF" unicode="&#x4cf;" horiz-adv-x="618" 
d="M484 0h-350v1456h350v-1456z" />
    <glyph glyph-name="uni04D0" unicode="&#x4d0;" horiz-adv-x="1395" 
d="M937 272h-481l-84 -272h-375l534 1456h330l538 -1456h-377zM540 543h313l-157 505zM1070 1848c0 -45.333 -8.66504 -86.833 -25.998 -124.5s-42 -70 -74 -97s-70.833 -48 -116.5 -63s-96.834 -22.5 -153.501 -22.5s-107.834 7.5 -153.501 22.5s-84.5 36 -116.5 63
s-56.667 59.333 -74 97s-26 79.167 -26 124.5h229c0 -16.667 2.5 -32.667 7.5 -48s13.167 -28.833 24.5 -40.5s25.833 -21 43.5 -28s39.5 -10.5 65.5 -10.5s47.833 3.5 65.5 10.5s32 16.333 43 28s18.833 25.167 23.5 40.5s7 31.333 7 48h231z" />
    <glyph glyph-name="uni04D1" unicode="&#x4d1;" horiz-adv-x="1087" 
d="M704 0c-7.33301 13.333 -13.499 28.168 -18.499 44.501s-9.5 33.833 -13.5 52.5c-26 -32.667 -59.667 -60.334 -101 -83.001s-94.333 -34 -159 -34c-50 0 -97.167 8 -141.5 24s-83.166 38.167 -116.499 66.5s-59.833 62.5 -79.5 102.5s-29.5 84 -29.5 132
c0 56 10.167 106 30.5 150s51.333 81.167 93 111.5s94.334 53.666 158.001 69.999s139.167 24.5 226.5 24.5h104v57c0 46 -10 82.333 -30 109s-53 40 -99 40c-38.667 0 -68.334 -9.66699 -89.001 -29s-31 -49 -31 -89h-337c0 50 11.167 96.667 33.5 140
s54.166 80.666 95.499 111.999s91.166 56 149.499 74s123.5 27 195.5 27c64.667 0 124.5 -8 179.5 -24s102.5 -40.167 142.5 -72.5s71.333 -72.666 94 -120.999s34 -104.5 34 -168.5v-443c0 -35.333 1 -66 3 -92s5 -48.833 9 -68.5s8.83301 -37.167 14.5 -52.5
s12.167 -29.666 19.5 -42.999v-17h-337zM493.001 220.002c42 0 76.833 9.00098 104.5 27.001s47.5 38.333 59.5 61v173h-106c-31.333 0 -57.833 -4.33301 -79.5 -13s-39 -20.334 -52 -35.001s-22.333 -31.5 -28 -50.5s-8.5 -38.833 -8.5 -59.5
c0 -30.667 10.333 -55.5 31 -74.5s47 -28.5 79 -28.5zM905.001 1538c0 -45.333 -8.66504 -86.833 -25.998 -124.5s-42 -70 -74 -97s-70.833 -48 -116.5 -63s-96.834 -22.5 -153.501 -22.5s-107.834 7.5 -153.501 22.5s-84.5 36 -116.5 63s-56.667 59.333 -74 97
s-26 79.167 -26 124.5h229c0 -16.667 2.5 -32.667 7.5 -48s13.167 -28.833 24.5 -40.5s25.833 -21 43.5 -28s39.5 -10.5 65.5 -10.5s47.833 3.5 65.5 10.5s32 16.333 43 28s18.833 25.167 23.5 40.5s7 31.333 7 48h231z" />
    <glyph glyph-name="uni04D2" unicode="&#x4d2;" horiz-adv-x="1395" 
d="M937 272h-481l-84 -272h-375l534 1456h330l538 -1456h-377zM540 543h313l-157 505zM285 1675c0 18.667 4 36.167 12 52.5s18.833 30.5 32.5 42.5s29.667 21.333 48 28s37.833 10 58.5 10s40 -3.33301 58 -10s33.833 -16 47.5 -28s24.5 -26.167 32.5 -42.5
s12 -33.833 12 -52.5s-4 -36.167 -12 -52.5s-18.833 -30.5 -32.5 -42.5s-29.5 -21.333 -47.5 -28s-37.333 -10 -58 -10s-40.167 3.33301 -58.5 10s-34.333 16 -48 28s-24.5 26.167 -32.5 42.5s-12 33.833 -12 52.5zM804 1675c0 18.667 4 36.167 12 52.5
s18.833 30.5 32.5 42.5s29.667 21.333 48 28s37.833 10 58.5 10s40 -3.33301 58 -10s33.833 -16 47.5 -28s24.5 -26.167 32.5 -42.5s12 -33.833 12 -52.5s-4 -36.167 -12 -52.5s-18.833 -30.5 -32.5 -42.5s-29.5 -21.333 -47.5 -28s-37.333 -10 -58 -10
s-40.167 3.33301 -58.5 10s-34.333 16 -48 28s-24.5 26.167 -32.5 42.5s-12 33.833 -12 52.5z" />
    <glyph glyph-name="uni04D3" unicode="&#x4d3;" horiz-adv-x="1087" 
d="M704 0c-7.33301 13.333 -13.499 28.168 -18.499 44.501s-9.5 33.833 -13.5 52.5c-26 -32.667 -59.667 -60.334 -101 -83.001s-94.333 -34 -159 -34c-50 0 -97.167 8 -141.5 24s-83.166 38.167 -116.499 66.5s-59.833 62.5 -79.5 102.5s-29.5 84 -29.5 132
c0 56 10.167 106 30.5 150s51.333 81.167 93 111.5s94.334 53.666 158.001 69.999s139.167 24.5 226.5 24.5h104v57c0 46 -10 82.333 -30 109s-53 40 -99 40c-38.667 0 -68.334 -9.66699 -89.001 -29s-31 -49 -31 -89h-337c0 50 11.167 96.667 33.5 140
s54.166 80.666 95.499 111.999s91.166 56 149.499 74s123.5 27 195.5 27c64.667 0 124.5 -8 179.5 -24s102.5 -40.167 142.5 -72.5s71.333 -72.666 94 -120.999s34 -104.5 34 -168.5v-443c0 -35.333 1 -66 3 -92s5 -48.833 9 -68.5s8.83301 -37.167 14.5 -52.5
s12.167 -29.666 19.5 -42.999v-17h-337zM493.001 220.002c42 0 76.833 9.00098 104.5 27.001s47.5 38.333 59.5 61v173h-106c-31.333 0 -57.833 -4.33301 -79.5 -13s-39 -20.334 -52 -35.001s-22.333 -31.5 -28 -50.5s-8.5 -38.833 -8.5 -59.5
c0 -30.667 10.333 -55.5 31 -74.5s47 -28.5 79 -28.5zM120.001 1365c0 18.667 4 36.167 12 52.5s18.833 30.5 32.5 42.5s29.667 21.333 48 28s37.833 10 58.5 10s40 -3.33301 58 -10s33.833 -16 47.5 -28s24.5 -26.167 32.5 -42.5s12 -33.833 12 -52.5s-4 -36.167 -12 -52.5
s-18.833 -30.5 -32.5 -42.5s-29.5 -21.333 -47.5 -28s-37.333 -10 -58 -10s-40.167 3.33301 -58.5 10s-34.333 16 -48 28s-24.5 26.167 -32.5 42.5s-12 33.833 -12 52.5zM639.001 1365c0 18.667 4 36.167 12 52.5s18.833 30.5 32.5 42.5s29.667 21.333 48 28
s37.833 10 58.5 10s40 -3.33301 58 -10s33.833 -16 47.5 -28s24.5 -26.167 32.5 -42.5s12 -33.833 12 -52.5s-4 -36.167 -12 -52.5s-18.833 -30.5 -32.5 -42.5s-29.5 -21.333 -47.5 -28s-37.333 -10 -58 -10s-40.167 3.33301 -58.5 10s-34.333 16 -48 28
s-24.5 26.167 -32.5 42.5s-12 33.833 -12 52.5z" />
    <glyph glyph-name="uni04D4" unicode="&#x4d4;" horiz-adv-x="1926" 
d="M1851 0h-897l-14 329h-382l-152 -329h-390l735 1456h1039v-264h-549l13 -316h455v-264h-444l15 -348h571v-264zM683 599h246l-21 486z" />
    <glyph glyph-name="uni04D5" unicode="&#x4d5;" horiz-adv-x="1730" 
d="M1238 -20c-82.667 0 -155.663 11.832 -218.996 35.499s-117 56.5 -161 98.5c-18 -18 -39.333 -35.167 -64 -51.5s-52.5 -30.5 -83.5 -42.5s-65.333 -21.667 -103 -29s-78.834 -11 -123.501 -11c-68.667 0 -129.334 8.16699 -182.001 24.5s-96.834 39.5 -132.501 69.5
s-62.667 66.167 -81 108.5s-27.5 89.5 -27.5 141.5c0 106 43.667 187.667 131 245s217 86 389 86h136v46c0 44 -11.333 78.5 -34 103.5s-55.667 37.5 -99 37.5c-48 0 -84.667 -9.83301 -110 -29.5s-38 -43.834 -38 -72.501l-337 19c0 50 11.5 95.833 34.5 137.5
s55.667 77.834 98 108.501s93.666 54.5 153.999 71.5s127.833 25.5 202.5 25.5c66 0 125.833 -7.5 179.5 -22.5s100.167 -37.833 139.5 -68.5c40.667 30 87.5 52.833 140.5 68.5s112.833 23.167 179.5 22.5c70.667 0 134.167 -11.333 190.5 -34s104.333 -55.334 144 -98.001
s70.167 -94.167 91.5 -154.5s32 -128.166 32 -203.499v-177h-639c4 -28.667 11.5 -55 22.5 -79s26.167 -44.5 45.5 -61.5s43 -30.333 71 -40s61 -14.5 99 -14.5c32.667 0 62 1.66699 88 5s50.167 8 72.5 14s43.5 13.167 63.5 21.5l61 26.5l81 -206
c-20.667 -16 -45.667 -31.167 -75 -45.5s-62 -27.166 -98 -38.499s-74.167 -20.333 -114.5 -27s-81.833 -10 -124.5 -10zM548.004 211.999c30 0 60.1689 6.16797 90.502 18.501s56.5 27.166 78.5 44.499v176h-134c-30.667 0 -57.5 -3.66699 -80.5 -11s-42.333 -17 -58 -29
s-27.334 -26 -35.001 -42s-11.5 -32.333 -11.5 -49c0 -34 12.167 -60.5 36.5 -79.5s62.166 -28.5 113.499 -28.5zM1227.01 842c-30 0 -55.667 -4.66797 -77 -14.001s-39 -22.666 -53 -39.999s-25 -38 -33 -62s-13.667 -50.667 -17 -80h309v26c0 54 -11 95.833 -33 125.5
s-54 44.5 -96 44.5z" />
    <glyph glyph-name="uni04D6" unicode="&#x4d6;" horiz-adv-x="1146" 
d="M1013 617h-552v-347h652v-270h-1003v1456h1005v-271h-654v-307h552v-261zM1014 1848c0 -45.333 -8.66504 -86.833 -25.998 -124.5s-42 -70 -74 -97s-70.833 -48 -116.5 -63s-96.834 -22.5 -153.501 -22.5s-107.834 7.5 -153.501 22.5s-84.5 36 -116.5 63
s-56.667 59.333 -74 97s-26 79.167 -26 124.5h229c0 -16.667 2.5 -32.667 7.5 -48s13.167 -28.833 24.5 -40.5s25.833 -21 43.5 -28s39.5 -10.5 65.5 -10.5s47.833 3.5 65.5 10.5s32 16.333 43 28s18.833 25.167 23.5 40.5s7 31.333 7 48h231z" />
    <glyph glyph-name="uni04D7" unicode="&#x4d7;" horiz-adv-x="1115" 
d="M618 -20c-88 0 -166.669 14.002 -236.002 42.002s-127.666 66 -174.999 114s-83.5 103.667 -108.5 167s-37.5 130.666 -37.5 201.999v38c0 78.667 10.833 152.167 32.5 220.5s54.334 127.5 98.001 177.5s98 89.333 163 118s140.833 43 227.5 43
c76.667 0 145.5 -12.333 206.5 -37s112.667 -60 155 -106s74.666 -101.667 96.999 -167s33.5 -138.666 33.5 -219.999v-137h-670c12 -60.667 38.333 -108.334 79 -143.001s93.334 -52 158.001 -52c46 0 91.167 8.66699 135.5 26s82.5 46 114.5 86l154 -182
c-17.333 -24 -39.5 -47.333 -66.5 -70s-58.5 -42.834 -94.5 -60.501s-76.333 -32 -121 -43s-93 -16.5 -145 -16.5zM579.998 842.002c-28.667 0 -53.3311 -5 -73.998 -15s-37.834 -23.667 -51.501 -41s-24.5 -38 -32.5 -62s-14 -50 -18 -78h340v26
c1.33301 54 -12.334 95.833 -41.001 125.5s-69.667 44.5 -123 44.5zM904.001 1539c0 -45.333 -8.66504 -86.833 -25.998 -124.5s-42 -70 -74 -97s-70.833 -48 -116.5 -63s-96.834 -22.5 -153.501 -22.5s-107.834 7.5 -153.501 22.5s-84.5 36 -116.5 63
s-56.667 59.333 -74 97s-26 79.167 -26 124.5h229c0 -16.667 2.5 -32.667 7.5 -48s13.167 -28.833 24.5 -40.5s25.833 -21 43.5 -28s39.5 -10.5 65.5 -10.5s47.833 3.5 65.5 10.5s32 16.333 43 28s18.833 25.167 23.5 40.5s7 31.333 7 48h231z" />
    <glyph glyph-name="uni04D8" unicode="&#x4d8;" horiz-adv-x="1430" 
d="M614 1477c122 0 228.499 -16.499 319.499 -49.499s166.833 -79 227.5 -138s106.167 -129.167 136.5 -210.5s45.5 -170.666 45.5 -267.999v-171c0 -97.333 -16.167 -186.5 -48.5 -267.5s-77 -150.833 -134 -209.5s-124.333 -104.167 -202 -136.5
s-161.5 -48.166 -251.5 -47.499c-104 0 -195.667 16.167 -275 48.5s-145.833 78.5 -199.5 138.5s-94.334 132.667 -122.001 218s-41.5 180.666 -41.5 285.999v177h923c-2.66699 46 -11.167 89.167 -25.5 129.5s-36.166 75.5 -65.499 105.5s-67.5 53.667 -114.5 71
s-104.5 26 -172.5 26c-46 0 -89.167 -1.83301 -129.5 -5.5s-77.5 -8.33398 -111.5 -14.001s-64.667 -11.834 -92 -18.501s-51 -13 -71 -19l-49 282c11.333 4.66699 30 11.167 56 19.5s58.167 16.5 96.5 24.5s82.833 14.833 133.5 20.5s106.334 8.5 167.001 8.5z
M706.999 276.001c42.667 0 80.5 7.5 113.5 22.5s61.167 35.667 84.5 62s41.833 57.5 55.5 93.5s23.167 75 28.5 117h-571v-31c0 -36.667 5.33301 -71 16 -103s27.5 -60 50.5 -84s52.833 -42.833 89.5 -56.5s81 -20.5 133 -20.5z" />
    <glyph glyph-name="uni04D9" unicode="&#x4d9;" horiz-adv-x="1083" 
d="M511 1103c81.333 0 154.501 -13.668 219.501 -41.001s120.167 -64.666 165.5 -111.999s80 -102.833 104 -166.5s36 -132.167 36 -205.5v-38c0 -79.333 -10.5 -153 -31.5 -221s-52.333 -127.167 -94 -177.5s-93.834 -89.833 -156.501 -118.5
s-135.334 -42.667 -218.001 -42c-74 0 -140 11.333 -198 34s-107.167 55.334 -147.5 98.001s-71.166 94.167 -92.499 154.5s-32 128.166 -32 203.499v177h626c-5.33301 27.333 -14 52.833 -26 76.5s-27.333 44.334 -46 62.001s-41 31.5 -67 41.5s-55.333 15 -88 15
c-36 0 -67.5 -1.66699 -94.5 -5s-51.667 -8 -74 -14s-43.833 -13.167 -64.5 -21.5l-65 -26.5l-80 206c21.333 16 46.833 31.167 76.5 45.5s62.667 27.166 99 38.499s75.333 20.333 117 27s85.5 10 131.5 10zM536.001 240.999c25.333 0 47.167 4.83203 65.5 14.499
s33.833 23.334 46.5 41.001s22.5 38.5 29.5 62.5s12.167 50 15.5 78h-298v-26c0 -54 11 -95.833 33 -125.5s58 -44.5 108 -44.5z" />
    <glyph glyph-name="uni04DA" unicode="&#x4da;" horiz-adv-x="1430" 
d="M614 1477c122 0 228.499 -16.499 319.499 -49.499s166.833 -79 227.5 -138s106.167 -129.167 136.5 -210.5s45.5 -170.666 45.5 -267.999v-171c0 -97.333 -16.167 -186.5 -48.5 -267.5s-77 -150.833 -134 -209.5s-124.333 -104.167 -202 -136.5
s-161.5 -48.166 -251.5 -47.499c-104 0 -195.667 16.167 -275 48.5s-145.833 78.5 -199.5 138.5s-94.334 132.667 -122.001 218s-41.5 180.666 -41.5 285.999v177h923c-2.66699 46 -11.167 89.167 -25.5 129.5s-36.166 75.5 -65.499 105.5s-67.5 53.667 -114.5 71
s-104.5 26 -172.5 26c-46 0 -89.167 -1.83301 -129.5 -5.5s-77.5 -8.33398 -111.5 -14.001s-64.667 -11.834 -92 -18.501s-51 -13 -71 -19l-49 282c11.333 4.66699 30 11.167 56 19.5s58.167 16.5 96.5 24.5s82.833 14.833 133.5 20.5s106.334 8.5 167.001 8.5z
M706.999 276.001c42.667 0 80.5 7.5 113.5 22.5s61.167 35.667 84.5 62s41.833 57.5 55.5 93.5s23.167 75 28.5 117h-571v-31c0 -36.667 5.33301 -71 16 -103s27.5 -60 50.5 -84s52.833 -42.833 89.5 -56.5s81 -20.5 133 -20.5zM255.999 1628c0 18.667 4 36.167 12 52.5
s18.833 30.5 32.5 42.5s29.667 21.333 48 28s37.833 10 58.5 10s40 -3.33301 58 -10s33.833 -16 47.5 -28s24.5 -26.167 32.5 -42.5s12 -33.833 12 -52.5s-4 -36.167 -12 -52.5s-18.833 -30.5 -32.5 -42.5s-29.5 -21.333 -47.5 -28s-37.333 -10 -58 -10
s-40.167 3.33301 -58.5 10s-34.333 16 -48 28s-24.5 26.167 -32.5 42.5s-12 33.833 -12 52.5zM774.999 1628c0 18.667 4 36.167 12 52.5s18.833 30.5 32.5 42.5s29.667 21.333 48 28s37.833 10 58.5 10s40 -3.33301 58 -10s33.833 -16 47.5 -28s24.5 -26.167 32.5 -42.5
s12 -33.833 12 -52.5s-4 -36.167 -12 -52.5s-18.833 -30.5 -32.5 -42.5s-29.5 -21.333 -47.5 -28s-37.333 -10 -58 -10s-40.167 3.33301 -58.5 10s-34.333 16 -48 28s-24.5 26.167 -32.5 42.5s-12 33.833 -12 52.5z" />
    <glyph glyph-name="uni04DB" unicode="&#x4db;" horiz-adv-x="1083" 
d="M511 1103c81.333 0 154.501 -13.668 219.501 -41.001s120.167 -64.666 165.5 -111.999s80 -102.833 104 -166.5s36 -132.167 36 -205.5v-38c0 -79.333 -10.5 -153 -31.5 -221s-52.333 -127.167 -94 -177.5s-93.834 -89.833 -156.501 -118.5
s-135.334 -42.667 -218.001 -42c-74 0 -140 11.333 -198 34s-107.167 55.334 -147.5 98.001s-71.166 94.167 -92.499 154.5s-32 128.166 -32 203.499v177h626c-5.33301 27.333 -14 52.833 -26 76.5s-27.333 44.334 -46 62.001s-41 31.5 -67 41.5s-55.333 15 -88 15
c-36 0 -67.5 -1.66699 -94.5 -5s-51.667 -8 -74 -14s-43.833 -13.167 -64.5 -21.5l-65 -26.5l-80 206c21.333 16 46.833 31.167 76.5 45.5s62.667 27.166 99 38.499s75.333 20.333 117 27s85.5 10 131.5 10zM536.001 240.999c25.333 0 47.167 4.83203 65.5 14.499
s33.833 23.334 46.5 41.001s22.5 38.5 29.5 62.5s12.167 50 15.5 78h-298v-26c0 -54 11 -95.833 33 -125.5s58 -44.5 108 -44.5zM126.002 1366c0 18.667 4 36.167 12 52.5s18.833 30.5 32.5 42.5s29.667 21.333 48 28s37.833 10 58.5 10s40 -3.33301 58 -10
s33.833 -16 47.5 -28s24.5 -26.167 32.5 -42.5s12 -33.833 12 -52.5s-4 -36.167 -12 -52.5s-18.833 -30.5 -32.5 -42.5s-29.5 -21.333 -47.5 -28s-37.333 -10 -58 -10s-40.167 3.33301 -58.5 10s-34.333 16 -48 28s-24.5 26.167 -32.5 42.5s-12 33.833 -12 52.5z
M645.002 1366c0 18.667 4 36.167 12 52.5s18.833 30.5 32.5 42.5s29.667 21.333 48 28s37.833 10 58.5 10s40 -3.33301 58 -10s33.833 -16 47.5 -28s24.5 -26.167 32.5 -42.5s12 -33.833 12 -52.5s-4 -36.167 -12 -52.5s-18.833 -30.5 -32.5 -42.5s-29.5 -21.333 -47.5 -28
s-37.333 -10 -58 -10s-40.167 3.33301 -58.5 10s-34.333 16 -48 28s-24.5 26.167 -32.5 42.5s-12 33.833 -12 52.5z" />
    <glyph glyph-name="uni04DC" unicode="&#x4dc;" horiz-adv-x="2136" 
d="M1435 569h-178v-569h-349v569h-181l-280 -569h-436l439 795l-426 661h443l298 -571h143v571h349v-571h142l285 571h442l-415 -659l430 -797h-438zM656 1675c0 18.667 4 36.167 12 52.5s18.833 30.5 32.5 42.5s29.667 21.333 48 28s37.833 10 58.5 10s40 -3.33301 58 -10
s33.833 -16 47.5 -28s24.5 -26.167 32.5 -42.5s12 -33.833 12 -52.5s-4 -36.167 -12 -52.5s-18.833 -30.5 -32.5 -42.5s-29.5 -21.333 -47.5 -28s-37.333 -10 -58 -10s-40.167 3.33301 -58.5 10s-34.333 16 -48 28s-24.5 26.167 -32.5 42.5s-12 33.833 -12 52.5zM1175 1675
c0 18.667 4 36.167 12 52.5s18.833 30.5 32.5 42.5s29.667 21.333 48 28s37.833 10 58.5 10s40 -3.33301 58 -10s33.833 -16 47.5 -28s24.5 -26.167 32.5 -42.5s12 -33.833 12 -52.5s-4 -36.167 -12 -52.5s-18.833 -30.5 -32.5 -42.5s-29.5 -21.333 -47.5 -28
s-37.333 -10 -58 -10s-40.167 3.33301 -58.5 10s-34.333 16 -48 28s-24.5 26.167 -32.5 42.5s-12 33.833 -12 52.5z" />
    <glyph glyph-name="uni04DD" unicode="&#x4dd;" horiz-adv-x="1847" 
d="M1225 378h-128v-378h-337v378h-125l-185 -378h-400l322 579l-335 503h421l205 -389h97v389h337v-389h100l206 389h421l-337 -505l10 5l324 -582h-412zM521 1365c0 18.667 4 36.167 12 52.5s18.833 30.5 32.5 42.5s29.667 21.333 48 28s37.833 10 58.5 10
s40 -3.33301 58 -10s33.833 -16 47.5 -28s24.5 -26.167 32.5 -42.5s12 -33.833 12 -52.5s-4 -36.167 -12 -52.5s-18.833 -30.5 -32.5 -42.5s-29.5 -21.333 -47.5 -28s-37.333 -10 -58 -10s-40.167 3.33301 -58.5 10s-34.333 16 -48 28s-24.5 26.167 -32.5 42.5
s-12 33.833 -12 52.5zM1040 1365c0 18.667 4 36.167 12 52.5s18.833 30.5 32.5 42.5s29.667 21.333 48 28s37.833 10 58.5 10s40 -3.33301 58 -10s33.833 -16 47.5 -28s24.5 -26.167 32.5 -42.5s12 -33.833 12 -52.5s-4 -36.167 -12 -52.5s-18.833 -30.5 -32.5 -42.5
s-29.5 -21.333 -47.5 -28s-37.333 -10 -58 -10s-40.167 3.33301 -58.5 10s-34.333 16 -48 28s-24.5 26.167 -32.5 42.5s-12 33.833 -12 52.5z" />
    <glyph glyph-name="uni04DE" unicode="&#x4de;" horiz-adv-x="1289" 
d="M637 873c64.667 0 111.169 15.834 139.502 47.501s42.5 75.5 42.5 131.5c0 20.667 -4 40.167 -12 58.5s-20.167 34.5 -36.5 48.5s-36.833 25.167 -61.5 33.5s-54 12.5 -88 12.5c-26 0 -50.5 -3.16699 -73.5 -9.5s-43 -15.833 -60 -28.5s-30.333 -28 -40 -46
s-14.5 -39 -14.5 -63h-350c0 65.333 14.5 123.833 43.5 175.5s68 95.334 117 131.001s106 63 171 82s133.833 28.5 206.5 28.5c83.333 0 158.833 -8.83301 226.5 -26.5s125.334 -43.834 173.001 -78.501s84.5 -77.834 110.5 -129.501s39 -111.5 39 -179.5
c0 -66.667 -19.5 -127.5 -58.5 -182.5s-92.833 -98.5 -161.5 -130.5c78.667 -28 138.834 -70.5 180.501 -127.5s62.5 -127.833 62.5 -212.5c0 -68 -14.167 -128.5 -42.5 -181.5s-67.833 -97.667 -118.5 -134s-111 -64 -181 -83s-146.667 -28.5 -230 -28.5
c-45.333 0 -90.5 3.5 -135.5 10.5s-88.167 18 -129.5 33s-79.833 33.833 -115.5 56.5s-66.834 49.667 -93.501 81s-47.5 67 -62.5 107s-22.5 85 -22.5 135h352c0 -22 5.16699 -42.333 15.5 -61s24.666 -35 42.999 -49s40.166 -24.833 65.499 -32.5s53 -11.5 83 -11.5
c34.667 0 65.667 4.33301 93 13s50.5 20.5 69.5 35.5s33.333 32.5 43 52.5s14.5 41.667 14.5 65c0 72 -17.333 122.833 -52 152.5s-85.334 44.5 -152.001 44.5h-187v260h187zM212.002 1675c0 18.667 4 36.167 12 52.5s18.833 30.5 32.5 42.5s29.667 21.333 48 28
s37.833 10 58.5 10s40 -3.33301 58 -10s33.833 -16 47.5 -28s24.5 -26.167 32.5 -42.5s12 -33.833 12 -52.5s-4 -36.167 -12 -52.5s-18.833 -30.5 -32.5 -42.5s-29.5 -21.333 -47.5 -28s-37.333 -10 -58 -10s-40.167 3.33301 -58.5 10s-34.333 16 -48 28
s-24.5 26.167 -32.5 42.5s-12 33.833 -12 52.5zM731.002 1675c0 18.667 4 36.167 12 52.5s18.833 30.5 32.5 42.5s29.667 21.333 48 28s37.833 10 58.5 10s40 -3.33301 58 -10s33.833 -16 47.5 -28s24.5 -26.167 32.5 -42.5s12 -33.833 12 -52.5s-4 -36.167 -12 -52.5
s-18.833 -30.5 -32.5 -42.5s-29.5 -21.333 -47.5 -28s-37.333 -10 -58 -10s-40.167 3.33301 -58.5 10s-34.333 16 -48 28s-24.5 26.167 -32.5 42.5s-12 33.833 -12 52.5z" />
    <glyph glyph-name="uni04DF" unicode="&#x4df;" horiz-adv-x="1059" 
d="M535 652c42 0 72.4971 9.49414 91.4971 28.4941s28.5 43.833 28.5 74.5c0 12.667 -1.5 25.334 -4.5 38.001s-8.5 24 -16.5 34s-19.333 18.167 -34 24.5s-33.667 9.5 -57 9.5c-39.333 0 -70.666 -7.5 -93.999 -22.5s-35 -38.5 -35 -70.5h-337
c0 52.667 11.667 99.5 35 140.5s55 75.833 95 104.5s87 50.5 141 65.5s111.667 22.5 173 22.5c71.333 0 136 -6.83301 194 -20.5s107.5 -33.667 148.5 -60s72.667 -59.166 95 -98.499s33.5 -84.666 33.5 -135.999c0 -48 -14.5 -92.167 -43.5 -132.5
s-69.833 -72.5 -122.5 -96.5c60.667 -21.333 106.667 -53 138 -95s47 -94 47 -156c0 -51.333 -12.167 -97.166 -36.5 -137.499s-58.166 -74.5 -101.499 -102.5s-95 -49.333 -155 -64s-125.667 -22 -197 -22c-57.333 0 -113.5 6.66699 -168.5 20s-104.167 33.833 -147.5 61.5
s-78.333 62.834 -105 105.501s-40 93.667 -40 153h337c0 -27.333 11.333 -50.833 34 -70.5s60.334 -29.5 113.001 -29.5c25.333 0 46.333 3.33301 63 10s30 15.5 40 26.5s17.167 23.5 21.5 37.5s6.5 28 6.5 42c0 42.667 -11.833 73.334 -35.5 92.001s-58.5 28 -104.5 28
h-140v196h140zM125.997 1364.99c0 18.667 4 36.167 12 52.5s18.833 30.5 32.5 42.5s29.667 21.333 48 28s37.833 10 58.5 10s40 -3.33301 58 -10s33.833 -16 47.5 -28s24.5 -26.167 32.5 -42.5s12 -33.833 12 -52.5s-4 -36.167 -12 -52.5s-18.833 -30.5 -32.5 -42.5
s-29.5 -21.333 -47.5 -28s-37.333 -10 -58 -10s-40.167 3.33301 -58.5 10s-34.333 16 -48 28s-24.5 26.167 -32.5 42.5s-12 33.833 -12 52.5zM644.997 1364.99c0 18.667 4 36.167 12 52.5s18.833 30.5 32.5 42.5s29.667 21.333 48 28s37.833 10 58.5 10s40 -3.33301 58 -10
s33.833 -16 47.5 -28s24.5 -26.167 32.5 -42.5s12 -33.833 12 -52.5s-4 -36.167 -12 -52.5s-18.833 -30.5 -32.5 -42.5s-29.5 -21.333 -47.5 -28s-37.333 -10 -58 -10s-40.167 3.33301 -58.5 10s-34.333 16 -48 28s-24.5 26.167 -32.5 42.5s-12 33.833 -12 52.5z" />
    <glyph glyph-name="uni04E0" unicode="&#x4e0;" horiz-adv-x="1179" 
d="M738 1185h-596.999v271h994l1 -225l-339 -358c114 -27.333 201.667 -80.166 263 -158.499s92 -180.5 92 -306.5c0 -68 -13.833 -128.667 -41.5 -182s-66 -98.333 -115 -135s-107.5 -64.5 -175.5 -83.5s-142.333 -28.5 -223 -28.5c-65.333 0 -129.5 8.16699 -192.5 24.5
s-119.5 41.666 -169.5 75.999s-90.333 78.333 -121 132s-46 117.834 -46 192.501h351c0 -22 4 -42.5 12 -61.5s19.667 -35.333 35 -49s34 -24.5 56 -32.5s47 -12 75 -12c32.667 0 61.667 4.33301 87 13s46.666 20.5 63.999 35.5s30.666 32.667 39.999 53
s14 42.166 14 65.499c0 94 -21.667 161.167 -65 201.5s-106.666 60.5 -189.999 60.5h-127v198z" />
    <glyph glyph-name="uni04E1" unicode="&#x4e1;" horiz-adv-x="1181" 
d="M745 822l-613.996 0.000976562v260h995l1 -216l-345 -368c116.667 -25.333 206.5 -77.333 269.5 -156s94.5 -181.667 94.5 -309c0 -68 -13.667 -128.5 -41 -181.5s-65.5 -97.833 -114.5 -134.5s-107 -64.5 -174 -83.5s-140.5 -28.5 -220.5 -28.5
c-64.667 0 -128.334 8.16699 -191.001 24.5s-118.834 41.666 -168.501 75.999s-89.667 78.333 -120 132s-45.5 117.5 -45.5 191.5h338c0 -23.333 4.33301 -44.833 13 -64.5s21 -37 37 -52s35.5 -26.667 58.5 -35s49.167 -12.5 78.5 -12.5c33.333 0 63.166 4.5 89.499 13.5
s48.666 21.5 66.999 37.5s32.333 34.667 42 56s14.5 44.333 14.5 69c0 47.333 -5.66699 87.833 -17 121.5s-28 61.167 -50 82.5s-49.167 36.833 -81.5 46.5s-69.833 14.5 -112.5 14.5h-128v193z" />
    <glyph glyph-name="uni04E2" unicode="&#x4e2;" horiz-adv-x="1419" 
d="M964 1456h351v-1456h-351v918l-523 -918h-351v1456h351v-919zM1071 1589h-734v173h734v-173z" />
    <glyph glyph-name="uni04E3" unicode="&#x4e3;" horiz-adv-x="1148" 
d="M724 1082h338v-1082h-338v630l-297 -630h-339v1082h339v-628zM949 1280h-734v173h734v-173z" />
    <glyph glyph-name="uni04E4" unicode="&#x4e4;" horiz-adv-x="1419" 
d="M964 1456h351v-1456h-351v918l-523 -918h-351v1456h351v-919zM290 1675c0 18.667 4 36.167 12 52.5s18.833 30.5 32.5 42.5s29.667 21.333 48 28s37.833 10 58.5 10s40 -3.33301 58 -10s33.833 -16 47.5 -28s24.5 -26.167 32.5 -42.5s12 -33.833 12 -52.5
s-4 -36.167 -12 -52.5s-18.833 -30.5 -32.5 -42.5s-29.5 -21.333 -47.5 -28s-37.333 -10 -58 -10s-40.167 3.33301 -58.5 10s-34.333 16 -48 28s-24.5 26.167 -32.5 42.5s-12 33.833 -12 52.5zM809 1675c0 18.667 4 36.167 12 52.5s18.833 30.5 32.5 42.5
s29.667 21.333 48 28s37.833 10 58.5 10s40 -3.33301 58 -10s33.833 -16 47.5 -28s24.5 -26.167 32.5 -42.5s12 -33.833 12 -52.5s-4 -36.167 -12 -52.5s-18.833 -30.5 -32.5 -42.5s-29.5 -21.333 -47.5 -28s-37.333 -10 -58 -10s-40.167 3.33301 -58.5 10
s-34.333 16 -48 28s-24.5 26.167 -32.5 42.5s-12 33.833 -12 52.5z" />
    <glyph glyph-name="uni04E5" unicode="&#x4e5;" horiz-adv-x="1148" 
d="M724 1082h338v-1082h-338v630l-297 -630h-339v1082h339v-628zM168 1365c0 18.667 4 36.167 12 52.5s18.833 30.5 32.5 42.5s29.667 21.333 48 28s37.833 10 58.5 10s40 -3.33301 58 -10s33.833 -16 47.5 -28s24.5 -26.167 32.5 -42.5s12 -33.833 12 -52.5
s-4 -36.167 -12 -52.5s-18.833 -30.5 -32.5 -42.5s-29.5 -21.333 -47.5 -28s-37.333 -10 -58 -10s-40.167 3.33301 -58.5 10s-34.333 16 -48 28s-24.5 26.167 -32.5 42.5s-12 33.833 -12 52.5zM687 1365c0 18.667 4 36.167 12 52.5s18.833 30.5 32.5 42.5
s29.667 21.333 48 28s37.833 10 58.5 10s40 -3.33301 58 -10s33.833 -16 47.5 -28s24.5 -26.167 32.5 -42.5s12 -33.833 12 -52.5s-4 -36.167 -12 -52.5s-18.833 -30.5 -32.5 -42.5s-29.5 -21.333 -47.5 -28s-37.333 -10 -58 -10s-40.167 3.33301 -58.5 10
s-34.333 16 -48 28s-24.5 26.167 -32.5 42.5s-12 33.833 -12 52.5z" />
    <glyph glyph-name="uni04E6" unicode="&#x4e6;" horiz-adv-x="1414" 
d="M1343 698c0 -111.333 -15.6689 -211.333 -47.002 -300s-75.166 -164 -131.499 -226s-123.333 -109.5 -201 -142.5s-162.834 -49.5 -255.501 -49.5c-94 0 -180.167 16.5 -258.5 49.5s-145.666 80.5 -201.999 142.5s-100.166 137.333 -131.499 226s-47 188.667 -47 300v59
c0 111.333 15.5 211.333 46.5 300s74.667 164 131 226s123.5 109.667 201.5 143s164 50 258 50c92.667 0 178 -16.667 256 -50s145.167 -81 201.5 -143s100.333 -137.333 132 -226s47.5 -188.667 47.5 -300v-59zM985.998 759c0 144.667 -24.166 254.502 -72.499 329.502
s-117.5 112.5 -207.5 112.5c-94 0 -164.167 -37.5 -210.5 -112.5s-69.5 -184.833 -69.5 -329.5v-61c0 -142.667 23.667 -252.334 71 -329.001s117.666 -115 210.999 -115c89.333 0 158 38.167 206 114.5s72 186.166 72 329.499v61zM289.999 1675c0 18.667 4 36.167 12 52.5
s18.833 30.5 32.5 42.5s29.667 21.333 48 28s37.833 10 58.5 10s40 -3.33301 58 -10s33.833 -16 47.5 -28s24.5 -26.167 32.5 -42.5s12 -33.833 12 -52.5s-4 -36.167 -12 -52.5s-18.833 -30.5 -32.5 -42.5s-29.5 -21.333 -47.5 -28s-37.333 -10 -58 -10
s-40.167 3.33301 -58.5 10s-34.333 16 -48 28s-24.5 26.167 -32.5 42.5s-12 33.833 -12 52.5zM808.999 1675c0 18.667 4 36.167 12 52.5s18.833 30.5 32.5 42.5s29.667 21.333 48 28s37.833 10 58.5 10s40 -3.33301 58 -10s33.833 -16 47.5 -28s24.5 -26.167 32.5 -42.5
s12 -33.833 12 -52.5s-4 -36.167 -12 -52.5s-18.833 -30.5 -32.5 -42.5s-29.5 -21.333 -47.5 -28s-37.333 -10 -58 -10s-40.167 3.33301 -58.5 10s-34.333 16 -48 28s-24.5 26.167 -32.5 42.5s-12 33.833 -12 52.5z" />
    <glyph glyph-name="uni04E7" unicode="&#x4e7;" horiz-adv-x="1150" 
d="M52 551c0 78.667 11.333 151.667 34 219s56 125.666 100 174.999s98.5 87.833 163.5 115.5s139.5 41.5 223.5 41.5c85.333 0 160.5 -13.833 225.5 -41.5s119.5 -66.167 163.5 -115.5s77.333 -107.666 100 -174.999s34 -140.333 34 -219v-21
c0 -79.333 -11.167 -152.5 -33.5 -219.5s-55.5 -125 -99.5 -174s-98.5 -87.333 -163.5 -115s-139.833 -41.5 -224.5 -41.5s-159.5 13.833 -224.5 41.5s-119.667 66 -164 115s-77.833 107 -100.5 174s-34 140.167 -34 219.5v21zM389 530c0 -40.667 2.83301 -78.667 8.5 -114
s15.667 -66 30 -92s33.5 -46.5 57.5 -61.5s54 -22.5 90 -22.5c35.333 0 64.833 7.5 88.5 22.5s42.5 35.5 56.5 61.5s24 56.667 30 92s9 73.333 9 114v21c0 39.333 -2.83301 76.666 -8.5 111.999s-15.667 66.166 -30 92.499s-33.5 47.333 -57.5 63s-54 23.5 -90 23.5
c-35.333 0 -64.833 -7.83301 -88.5 -23.5s-42.5 -36.667 -56.5 -63s-24 -57.166 -30 -92.499s-9 -72.666 -9 -111.999v-21zM162 1365c0 18.667 4 36.167 12 52.5s18.833 30.5 32.5 42.5s29.667 21.333 48 28s37.833 10 58.5 10s40 -3.33301 58 -10s33.833 -16 47.5 -28
s24.5 -26.167 32.5 -42.5s12 -33.833 12 -52.5s-4 -36.167 -12 -52.5s-18.833 -30.5 -32.5 -42.5s-29.5 -21.333 -47.5 -28s-37.333 -10 -58 -10s-40.167 3.33301 -58.5 10s-34.333 16 -48 28s-24.5 26.167 -32.5 42.5s-12 33.833 -12 52.5zM681 1365
c0 18.667 4 36.167 12 52.5s18.833 30.5 32.5 42.5s29.667 21.333 48 28s37.833 10 58.5 10s40 -3.33301 58 -10s33.833 -16 47.5 -28s24.5 -26.167 32.5 -42.5s12 -33.833 12 -52.5s-4 -36.167 -12 -52.5s-18.833 -30.5 -32.5 -42.5s-29.5 -21.333 -47.5 -28
s-37.333 -10 -58 -10s-40.167 3.33301 -58.5 10s-34.333 16 -48 28s-24.5 26.167 -32.5 42.5s-12 33.833 -12 52.5z" />
    <glyph glyph-name="uni04E8" unicode="&#x4e8;" horiz-adv-x="1416" 
d="M1359 698c0 -111.333 -15.6689 -211.333 -47.002 -300s-75.166 -164 -131.499 -226s-123.333 -109.5 -201 -142.5s-162.834 -49.5 -255.501 -49.5c-94 0 -180.167 16.5 -258.5 49.5s-145.666 80.5 -201.999 142.5s-100.166 137.333 -131.499 226s-47 188.667 -47 300v59
c0 111.333 15.5 211.333 46.5 300s74.667 164 131 226s123.5 109.667 201.5 143s164 50 258 50c92.667 0 178 -16.667 256 -50s145.167 -81 201.5 -143s100.333 -137.333 132 -226s47.5 -188.667 47.5 -300v-59zM723.998 254c83.333 0 148.667 33.167 196 99.5
s74 162.166 80 287.499h-557c6 -125.333 32.5 -221.166 79.5 -287.499s114.167 -99.5 201.5 -99.5zM721.999 1201c-86 0 -152 -31.167 -198 -93.5s-72.667 -154.166 -80 -275.499h555c-8 121.333 -35.667 213.166 -83 275.499s-112 93.5 -194 93.5z" />
    <glyph glyph-name="uni04E9" unicode="&#x4e9;" horiz-adv-x="1152" 
d="M50 551c0 78.667 11.333 151.667 34 219s56 125.666 100 174.999s98.5 87.833 163.5 115.5s139.5 41.5 223.5 41.5c85.333 0 160.5 -13.833 225.5 -41.5s119.5 -66.167 163.5 -115.5s77.333 -107.666 100 -174.999s34 -140.333 34 -219v-21
c0 -79.333 -11.167 -152.5 -33.5 -219.5s-55.5 -125 -99.5 -174s-98.5 -87.333 -163.5 -115s-139.833 -41.5 -224.5 -41.5s-159.5 13.833 -224.5 41.5s-119.667 66 -164 115s-77.833 107 -100.5 174s-34 140.167 -34 219.5v21zM571 842
c-29.333 0 -54.6709 -5.33301 -76.0039 -16s-39.166 -25.5 -53.499 -44.5s-25.5 -41.5 -33.5 -67.5s-13.667 -54 -17 -84h362c-3.33301 30 -9.16602 58 -17.499 84s-19.666 48.5 -33.999 67.5s-32.166 33.833 -53.499 44.5s-47 16 -77 16zM572.995 240
c28.667 0 53.335 4.83301 74.002 14.5s38.167 23.334 52.5 41.001s25.666 38.667 33.999 63s14.5 51.166 18.5 80.499h-360c4 -29.333 10.167 -56.166 18.5 -80.499s19.666 -45.333 33.999 -63s32 -31.334 53 -41.001s46.167 -14.5 75.5 -14.5z" />
    <glyph glyph-name="uni04EA" unicode="&#x4ea;" horiz-adv-x="1416" 
d="M1359 698c0 -111.333 -15.6689 -211.333 -47.002 -300s-75.166 -164 -131.499 -226s-123.333 -109.5 -201 -142.5s-162.834 -49.5 -255.501 -49.5c-94 0 -180.167 16.5 -258.5 49.5s-145.666 80.5 -201.999 142.5s-100.166 137.333 -131.499 226s-47 188.667 -47 300v59
c0 111.333 15.5 211.333 46.5 300s74.667 164 131 226s123.5 109.667 201.5 143s164 50 258 50c92.667 0 178 -16.667 256 -50s145.167 -81 201.5 -143s100.333 -137.333 132 -226s47.5 -188.667 47.5 -300v-59zM723.998 254c83.333 0 148.667 33.167 196 99.5
s74 162.166 80 287.499h-557c6 -125.333 32.5 -221.166 79.5 -287.499s114.167 -99.5 201.5 -99.5zM721.999 1201c-86 0 -152 -31.167 -198 -93.5s-72.667 -154.166 -80 -275.499h555c-8 121.333 -35.667 213.166 -83 275.499s-112 93.5 -194 93.5zM312.999 1675
c0 18.667 4 36.167 12 52.5s18.833 30.5 32.5 42.5s29.667 21.333 48 28s37.833 10 58.5 10s40 -3.33301 58 -10s33.833 -16 47.5 -28s24.5 -26.167 32.5 -42.5s12 -33.833 12 -52.5s-4 -36.167 -12 -52.5s-18.833 -30.5 -32.5 -42.5s-29.5 -21.333 -47.5 -28
s-37.333 -10 -58 -10s-40.167 3.33301 -58.5 10s-34.333 16 -48 28s-24.5 26.167 -32.5 42.5s-12 33.833 -12 52.5zM831.999 1675c0 18.667 4 36.167 12 52.5s18.833 30.5 32.5 42.5s29.667 21.333 48 28s37.833 10 58.5 10s40 -3.33301 58 -10s33.833 -16 47.5 -28
s24.5 -26.167 32.5 -42.5s12 -33.833 12 -52.5s-4 -36.167 -12 -52.5s-18.833 -30.5 -32.5 -42.5s-29.5 -21.333 -47.5 -28s-37.333 -10 -58 -10s-40.167 3.33301 -58.5 10s-34.333 16 -48 28s-24.5 26.167 -32.5 42.5s-12 33.833 -12 52.5z" />
    <glyph glyph-name="uni04EB" unicode="&#x4eb;" horiz-adv-x="1152" 
d="M50 551c0 78.667 11.333 151.667 34 219s56 125.666 100 174.999s98.5 87.833 163.5 115.5s139.5 41.5 223.5 41.5c85.333 0 160.5 -13.833 225.5 -41.5s119.5 -66.167 163.5 -115.5s77.333 -107.666 100 -174.999s34 -140.333 34 -219v-21
c0 -79.333 -11.167 -152.5 -33.5 -219.5s-55.5 -125 -99.5 -174s-98.5 -87.333 -163.5 -115s-139.833 -41.5 -224.5 -41.5s-159.5 13.833 -224.5 41.5s-119.667 66 -164 115s-77.833 107 -100.5 174s-34 140.167 -34 219.5v21zM571 842
c-29.333 0 -54.6709 -5.33301 -76.0039 -16s-39.166 -25.5 -53.499 -44.5s-25.5 -41.5 -33.5 -67.5s-13.667 -54 -17 -84h362c-3.33301 30 -9.16602 58 -17.499 84s-19.666 48.5 -33.999 67.5s-32.166 33.833 -53.499 44.5s-47 16 -77 16zM572.995 240
c28.667 0 53.335 4.83301 74.002 14.5s38.167 23.334 52.5 41.001s25.666 38.667 33.999 63s14.5 51.166 18.5 80.499h-360c4 -29.333 10.167 -56.166 18.5 -80.499s19.666 -45.333 33.999 -63s32 -31.334 53 -41.001s46.167 -14.5 75.5 -14.5zM156.996 1365
c0 18.667 4 36.167 12 52.5s18.833 30.5 32.5 42.5s29.667 21.333 48 28s37.833 10 58.5 10s40 -3.33301 58 -10s33.833 -16 47.5 -28s24.5 -26.167 32.5 -42.5s12 -33.833 12 -52.5s-4 -36.167 -12 -52.5s-18.833 -30.5 -32.5 -42.5s-29.5 -21.333 -47.5 -28
s-37.333 -10 -58 -10s-40.167 3.33301 -58.5 10s-34.333 16 -48 28s-24.5 26.167 -32.5 42.5s-12 33.833 -12 52.5zM675.996 1365c0 18.667 4 36.167 12 52.5s18.833 30.5 32.5 42.5s29.667 21.333 48 28s37.833 10 58.5 10s40 -3.33301 58 -10s33.833 -16 47.5 -28
s24.5 -26.167 32.5 -42.5s12 -33.833 12 -52.5s-4 -36.167 -12 -52.5s-18.833 -30.5 -32.5 -42.5s-29.5 -21.333 -47.5 -28s-37.333 -10 -58 -10s-40.167 3.33301 -58.5 10s-34.333 16 -48 28s-24.5 26.167 -32.5 42.5s-12 33.833 -12 52.5z" />
    <glyph glyph-name="uni04EC" unicode="&#x4ec;" horiz-adv-x="1302" 
d="M367 492c2.66699 -82.667 25.1631 -143.999 67.4961 -183.999s103.833 -60 184.5 -60c42.667 0 79.667 6.66699 111 20s57.833 34 79.5 62s38.334 63.667 50.001 107s19.5 95.333 23.5 156h-402v271h402c-9.33301 120 -35.666 206.833 -78.999 260.5
s-103.333 80.5 -180 80.5c-46.667 0 -86.167 -5.5 -118.5 -16.5s-58.833 -27.167 -79.5 -48.5s-35.834 -47.833 -45.501 -79.5s-15.167 -67.834 -16.5 -108.501h-349c6.66699 75.333 24.334 145 53.001 209s68.334 119.333 119.001 166s112.334 83.167 185.001 109.5
s156.667 39.5 252 39.5c92.667 0 176.667 -16.5 252 -49.5s139.666 -80.167 192.999 -141.5s94.5 -135.833 123.5 -223.5s43.5 -186.5 43.5 -296.5v-78c0 -109.333 -13.833 -207.833 -41.5 -295.5s-68 -162 -121 -223s-117.667 -107.833 -194 -140.5
s-163.166 -49 -260.499 -49c-89.333 0 -170.333 12.5 -243 37.5s-135 60 -187 105s-92.667 99 -122 162s-46 132.5 -50 208.5h350zM220.996 1675c0 18.667 4 36.167 12 52.5s18.833 30.5 32.5 42.5s29.667 21.333 48 28s37.833 10 58.5 10s40 -3.33301 58 -10
s33.833 -16 47.5 -28s24.5 -26.167 32.5 -42.5s12 -33.833 12 -52.5s-4 -36.167 -12 -52.5s-18.833 -30.5 -32.5 -42.5s-29.5 -21.333 -47.5 -28s-37.333 -10 -58 -10s-40.167 3.33301 -58.5 10s-34.333 16 -48 28s-24.5 26.167 -32.5 42.5s-12 33.833 -12 52.5z
M739.996 1675c0 18.667 4 36.167 12 52.5s18.833 30.5 32.5 42.5s29.667 21.333 48 28s37.833 10 58.5 10s40 -3.33301 58 -10s33.833 -16 47.5 -28s24.5 -26.167 32.5 -42.5s12 -33.833 12 -52.5s-4 -36.167 -12 -52.5s-18.833 -30.5 -32.5 -42.5s-29.5 -21.333 -47.5 -28
s-37.333 -10 -58 -10s-40.167 3.33301 -58.5 10s-34.333 16 -48 28s-24.5 26.167 -32.5 42.5s-12 33.833 -12 52.5z" />
    <glyph glyph-name="uni04ED" unicode="&#x4ed;" horiz-adv-x="1044" 
d="M497 842c-48 0 -82.6631 -12.6689 -103.996 -38.002s-32 -61 -32 -107h-316c0 60.667 11.333 115.834 34 165.501s54 92.334 94 128.001s87.667 63.167 143 82.5s115.666 29 180.999 29c84.667 0 159.167 -14 223.5 -42s118 -66.5 161 -115.5s75.333 -107.167 97 -174.5
s32.5 -140 32.5 -218v-23c0 -78 -10.833 -150.5 -32.5 -217.5s-54 -125 -97 -174s-96.333 -87.5 -160 -115.5s-137.834 -42 -222.501 -42c-68 0 -129.833 9.66699 -185.5 29s-103.5 47.5 -143.5 84.5s-70.833 82.333 -92.5 136s-32.5 115.167 -32.5 184.5h316
c0 -24.667 2.66699 -47.5 8 -68.5s13.5 -39.333 24.5 -55s25.167 -28 42.5 -37s38.333 -13.5 63 -13.5c29.333 0 54.166 5.33301 74.499 16s37.166 25.5 50.499 44.5s23.5 41.333 30.5 67s11.833 53.5 14.5 83.5h-238v183h238c-2.66699 30 -7.5 57.667 -14.5 83
s-17.333 47.333 -31 66s-30.667 33.167 -51 43.5s-45.5 15.5 -75.5 15.5zM98.0039 1365c0 18.667 4 36.167 12 52.5s18.833 30.5 32.5 42.5s29.667 21.333 48 28s37.833 10 58.5 10s40 -3.33301 58 -10s33.833 -16 47.5 -28s24.5 -26.167 32.5 -42.5s12 -33.833 12 -52.5
s-4 -36.167 -12 -52.5s-18.833 -30.5 -32.5 -42.5s-29.5 -21.333 -47.5 -28s-37.333 -10 -58 -10s-40.167 3.33301 -58.5 10s-34.333 16 -48 28s-24.5 26.167 -32.5 42.5s-12 33.833 -12 52.5zM617.004 1365c0 18.667 4 36.167 12 52.5s18.833 30.5 32.5 42.5
s29.667 21.333 48 28s37.833 10 58.5 10s40 -3.33301 58 -10s33.833 -16 47.5 -28s24.5 -26.167 32.5 -42.5s12 -33.833 12 -52.5s-4 -36.167 -12 -52.5s-18.833 -30.5 -32.5 -42.5s-29.5 -21.333 -47.5 -28s-37.333 -10 -58 -10s-40.167 3.33301 -58.5 10
s-34.333 16 -48 28s-24.5 26.167 -32.5 42.5s-12 33.833 -12 52.5z" />
    <glyph glyph-name="uni04EE" unicode="&#x4ee;" horiz-adv-x="1295" 
d="M675 824v-1.00098l241 633h370l-490 -1155c-19.333 -42.667 -41 -83.5 -65 -122.5s-52.667 -73.167 -86 -102.5s-72.333 -52.833 -117 -70.5s-97 -26.5 -157 -26.5h-54c-20.667 0 -38.667 0.666992 -54 2l-6 272c4 -1.33301 9.33301 -2.16602 16 -2.49902l20 -1
c6.66699 -0.333008 13 -0.5 19 -0.5h15c30 0 55.167 2.66699 75.5 8s37.5 13.5 51.5 24.5s25.5 24.833 34.5 41.5s17.167 36.667 24.5 60l17 48l-526 1025h373zM1047 1589h-734v173h734v-173z" />
    <glyph glyph-name="uni04EF" unicode="&#x4ef;" horiz-adv-x="1061" 
d="M527 472l179.995 610h361l-434 -1243c-9.33301 -27.333 -21.666 -57 -36.999 -89s-36.5 -61.833 -63.5 -89.5s-61.167 -50.834 -102.5 -69.501s-93 -28 -155 -28c-16.667 0 -30.5 0.333008 -41.5 1s-21.167 1.83398 -30.5 3.50098s-19.166 3.66699 -29.499 6
s-22.833 5.5 -37.5 9.5v241h43c26.667 0 49.334 2 68.001 6s34.334 10 47.001 18s22.834 17.833 30.501 29.5s14.167 25.167 19.5 40.5l27 72l-376 1092h360zM894.995 1280h-734v173h734v-173z" />
    <glyph glyph-name="uni04F0" unicode="&#x4f0;" horiz-adv-x="1295" 
d="M675 824v-1.00098l241 633h370l-490 -1155c-19.333 -42.667 -41 -83.5 -65 -122.5s-52.667 -73.167 -86 -102.5s-72.333 -52.833 -117 -70.5s-97 -26.5 -157 -26.5h-54c-20.667 0 -38.667 0.666992 -54 2l-6 272c4 -1.33301 9.33301 -2.16602 16 -2.49902l20 -1
c6.66699 -0.333008 13 -0.5 19 -0.5h15c30 0 55.167 2.66699 75.5 8s37.5 13.5 51.5 24.5s25.5 24.833 34.5 41.5s17.167 36.667 24.5 60l17 48l-526 1025h373zM266 1675c0 18.667 4 36.167 12 52.5s18.833 30.5 32.5 42.5s29.667 21.333 48 28s37.833 10 58.5 10
s40 -3.33301 58 -10s33.833 -16 47.5 -28s24.5 -26.167 32.5 -42.5s12 -33.833 12 -52.5s-4 -36.167 -12 -52.5s-18.833 -30.5 -32.5 -42.5s-29.5 -21.333 -47.5 -28s-37.333 -10 -58 -10s-40.167 3.33301 -58.5 10s-34.333 16 -48 28s-24.5 26.167 -32.5 42.5
s-12 33.833 -12 52.5zM785 1675c0 18.667 4 36.167 12 52.5s18.833 30.5 32.5 42.5s29.667 21.333 48 28s37.833 10 58.5 10s40 -3.33301 58 -10s33.833 -16 47.5 -28s24.5 -26.167 32.5 -42.5s12 -33.833 12 -52.5s-4 -36.167 -12 -52.5s-18.833 -30.5 -32.5 -42.5
s-29.5 -21.333 -47.5 -28s-37.333 -10 -58 -10s-40.167 3.33301 -58.5 10s-34.333 16 -48 28s-24.5 26.167 -32.5 42.5s-12 33.833 -12 52.5z" />
    </font>
</defs>
</svg>
